# MagicaVoxel @ Ephtracy

# group
o Microfones

# material
mtllib room-2-Microfones.mtl
usemtl palette

# normals
vn -1 0 0
vn 1 0 0
vn 0 0 1
vn 0 0 -1
vn 0 -1 0
vn 0 1 0

# texcoords
vt 0.0136719 0.5
vt 0.0214844 0.5

# verts
v -0.4 1.3 0.2
v -0.4 1.3 -0.3
v -0.4 1.4 0.2
v -0.4 1.4 -0.3
v -0.3 1.3 0.3
v -0.3 1.3 0.2
v -0.3 1.3 -0.3
v -0.3 1.3 -0.4
v -0.3 1.4 0.3
v -0.3 1.4 0.2
v -0.3 1.4 -0.3
v -0.3 1.4 -0.4
v -0.2 1.4 0
v -0.2 1.4 -0.1
v -0.2 1.5 0
v -0.2 1.5 -0.1
v -0.1 1.4 0.1
v -0.1 1.4 0
v -0.1 1.4 -0.1
v -0.1 1.4 -0.2
v -0.1 1.5 0.1
v -0.1 1.5 0
v -0.1 1.5 -0.1
v -0.1 1.5 -0.2
v -0.1 1.9 0
v -0.1 1.9 -0.1
v 0 2.2 0.1
v 0 2.2 -0.2
v 0 2.3 0.2
v 0 2.3 0.1
v 0 2.3 -0.2
v 0 2.3 -0.3
v 0 2.6 0.2
v 0 2.6 0.1
v 0 2.6 -0.2
v 0 2.6 -0.3
v 0 2.7 0.1
v 0 2.7 -0.2
v 0.1 1.7 0.1
v 0.1 1.7 0
v 0.1 1.7 -0.1
v 0.1 1.7 -0.2
v 0.1 1.8 0
v 0.1 1.8 -0.1
v 0.1 2.2 0.2
v 0.1 2.2 0.1
v 0.1 2.2 -0.2
v 0.1 2.2 -0.3
v 0.1 2.3 0.2
v 0.1 2.3 0.1
v 0.1 2.3 -0.2
v 0.1 2.3 -0.3
v 0.1 2.6 0.2
v 0.1 2.6 0.1
v 0.1 2.6 -0.2
v 0.1 2.6 -0.3
v 0.1 2.7 0.2
v 0.1 2.7 0.1
v 0.1 2.7 -0.2
v 0.1 2.7 -0.3
v 0 1.4 0.1
v 0 1.4 0
v 0 1.4 -0.1
v 0 1.4 -0.2
v 0 1.5 0.1
v 0 1.5 0
v 0 1.5 -0.1
v 0 1.5 -0.2
v 0 1.7 0
v 0 1.7 -0.1
v 0 1.8 0
v 0 1.8 -0.1
v 0 1.9 0
v 0 1.9 -0.1
v 0.1 1.4 0
v 0.1 1.4 -0.1
v 0.1 1.5 0
v 0.1 1.5 -0.1
v 0.2 1.3 0.3
v 0.2 1.3 0.2
v 0.2 1.3 -0.3
v 0.2 1.3 -0.4
v 0.2 1.4 0.3
v 0.2 1.4 0.2
v 0.2 1.4 -0.3
v 0.2 1.4 -0.4
v 0.3 1.3 0.2
v 0.3 1.3 -0.3
v 0.3 1.4 0.2
v 0.3 1.4 -0.3
v 0.4 1.7 0.1
v 0.4 1.7 -0.2
v 0.4 2.2 0.2
v 0.4 2.2 0.1
v 0.4 2.2 -0.2
v 0.4 2.2 -0.3
v 0.4 2.3 0.2
v 0.4 2.3 0.1
v 0.4 2.3 -0.2
v 0.4 2.3 -0.3
v 0.4 2.6 0.2
v 0.4 2.6 0.1
v 0.4 2.6 -0.2
v 0.4 2.6 -0.3
v 0.4 2.7 0.2
v 0.4 2.7 0.1
v 0.4 2.7 -0.2
v 0.4 2.7 -0.3
v 0.5 2.2 0.1
v 0.5 2.2 -0.2
v 0.5 2.3 0.2
v 0.5 2.3 0.1
v 0.5 2.3 -0.2
v 0.5 2.3 -0.3
v 0.5 2.6 0.2
v 0.5 2.6 0.1
v 0.5 2.6 -0.2
v 0.5 2.6 -0.3
v 0.5 2.7 0.1
v 0.5 2.7 -0.2
v -0.3 1.3 0.3
v -0.3 1.4 0.3
v 0.2 1.3 0.3
v 0.2 1.4 0.3
v -0.4 1.3 0.2
v -0.4 1.4 0.2
v -0.3 1.3 0.2
v -0.3 1.4 0.2
v 0 2.3 0.2
v 0 2.6 0.2
v 0.1 2.2 0.2
v 0.1 2.3 0.2
v 0.1 2.6 0.2
v 0.1 2.7 0.2
v 0.2 1.3 0.2
v 0.2 1.4 0.2
v 0.3 1.3 0.2
v 0.3 1.4 0.2
v 0.4 2.2 0.2
v 0.4 2.3 0.2
v 0.4 2.6 0.2
v 0.4 2.7 0.2
v 0.5 2.3 0.2
v 0.5 2.6 0.2
v -0.1 1.4 0.1
v -0.1 1.5 0.1
v 0 1.4 0.1
v 0 1.5 0.1
v 0 2.2 0.1
v 0 2.3 0.1
v 0 2.6 0.1
v 0 2.7 0.1
v 0.1 1.7 0.1
v 0.1 2.2 0.1
v 0.1 2.3 0.1
v 0.1 2.6 0.1
v 0.1 2.7 0.1
v 0.4 1.7 0.1
v 0.4 2.2 0.1
v 0.4 2.3 0.1
v 0.4 2.6 0.1
v 0.4 2.7 0.1
v 0.5 2.2 0.1
v 0.5 2.3 0.1
v 0.5 2.6 0.1
v 0.5 2.7 0.1
v -0.2 1.4 0
v -0.2 1.5 0
v -0.1 1.4 0
v -0.1 1.5 0
v -0.1 1.9 0
v 0 1.4 0
v 0 1.5 0
v 0 1.7 0
v 0 1.8 0
v 0 1.9 0
v 0.1 1.4 0
v 0.1 1.5 0
v 0.1 1.7 0
v 0.1 1.8 0
v -0.2 1.4 -0.1
v -0.2 1.5 -0.1
v -0.1 1.4 -0.1
v -0.1 1.5 -0.1
v -0.1 1.9 -0.1
v 0 1.4 -0.1
v 0 1.5 -0.1
v 0 1.7 -0.1
v 0 1.8 -0.1
v 0 1.9 -0.1
v 0.1 1.4 -0.1
v 0.1 1.5 -0.1
v 0.1 1.7 -0.1
v 0.1 1.8 -0.1
v -0.1 1.4 -0.2
v -0.1 1.5 -0.2
v 0 1.4 -0.2
v 0 1.5 -0.2
v 0 2.2 -0.2
v 0 2.3 -0.2
v 0 2.6 -0.2
v 0 2.7 -0.2
v 0.1 1.7 -0.2
v 0.1 2.2 -0.2
v 0.1 2.3 -0.2
v 0.1 2.6 -0.2
v 0.1 2.7 -0.2
v 0.4 1.7 -0.2
v 0.4 2.2 -0.2
v 0.4 2.3 -0.2
v 0.4 2.6 -0.2
v 0.4 2.7 -0.2
v 0.5 2.2 -0.2
v 0.5 2.3 -0.2
v 0.5 2.6 -0.2
v 0.5 2.7 -0.2
v -0.4 1.3 -0.3
v -0.4 1.4 -0.3
v -0.3 1.3 -0.3
v -0.3 1.4 -0.3
v 0 2.3 -0.3
v 0 2.6 -0.3
v 0.1 2.2 -0.3
v 0.1 2.3 -0.3
v 0.1 2.6 -0.3
v 0.1 2.7 -0.3
v 0.2 1.3 -0.3
v 0.2 1.4 -0.3
v 0.3 1.3 -0.3
v 0.3 1.4 -0.3
v 0.4 2.2 -0.3
v 0.4 2.3 -0.3
v 0.4 2.6 -0.3
v 0.4 2.7 -0.3
v 0.5 2.3 -0.3
v 0.5 2.6 -0.3
v -0.3 1.3 -0.4
v -0.3 1.4 -0.4
v 0.2 1.3 -0.4
v 0.2 1.4 -0.4
v -0.3 1.3 0.3
v 0.2 1.3 0.3
v -0.4 1.3 0.2
v -0.3 1.3 0.2
v 0.2 1.3 0.2
v 0.3 1.3 0.2
v -0.4 1.3 -0.3
v -0.3 1.3 -0.3
v 0.2 1.3 -0.3
v 0.3 1.3 -0.3
v -0.3 1.3 -0.4
v 0.2 1.3 -0.4
v 0.1 1.7 0.1
v 0.4 1.7 0.1
v 0 1.7 0
v 0.1 1.7 0
v 0 1.7 -0.1
v 0.1 1.7 -0.1
v 0.1 1.7 -0.2
v 0.4 1.7 -0.2
v 0.1 2.2 0.2
v 0.4 2.2 0.2
v 0 2.2 0.1
v 0.1 2.2 0.1
v 0.4 2.2 0.1
v 0.5 2.2 0.1
v 0 2.2 -0.2
v 0.1 2.2 -0.2
v 0.4 2.2 -0.2
v 0.5 2.2 -0.2
v 0.1 2.2 -0.3
v 0.4 2.2 -0.3
v 0 2.3 0.2
v 0.1 2.3 0.2
v 0.4 2.3 0.2
v 0.5 2.3 0.2
v 0 2.3 0.1
v 0.1 2.3 0.1
v 0.4 2.3 0.1
v 0.5 2.3 0.1
v 0 2.3 -0.2
v 0.1 2.3 -0.2
v 0.4 2.3 -0.2
v 0.5 2.3 -0.2
v 0 2.3 -0.3
v 0.1 2.3 -0.3
v 0.4 2.3 -0.3
v 0.5 2.3 -0.3
v -0.3 1.4 0.3
v 0.2 1.4 0.3
v -0.4 1.4 0.2
v -0.3 1.4 0.2
v 0.2 1.4 0.2
v 0.3 1.4 0.2
v -0.1 1.4 0.1
v 0 1.4 0.1
v -0.2 1.4 0
v -0.1 1.4 0
v 0 1.4 0
v 0.1 1.4 0
v -0.2 1.4 -0.1
v -0.1 1.4 -0.1
v 0 1.4 -0.1
v 0.1 1.4 -0.1
v -0.1 1.4 -0.2
v 0 1.4 -0.2
v -0.4 1.4 -0.3
v -0.3 1.4 -0.3
v 0.2 1.4 -0.3
v 0.3 1.4 -0.3
v -0.3 1.4 -0.4
v 0.2 1.4 -0.4
v -0.1 1.5 0.1
v 0 1.5 0.1
v -0.2 1.5 0
v -0.1 1.5 0
v 0 1.5 0
v 0.1 1.5 0
v -0.2 1.5 -0.1
v -0.1 1.5 -0.1
v 0 1.5 -0.1
v 0.1 1.5 -0.1
v -0.1 1.5 -0.2
v 0 1.5 -0.2
v 0 1.8 0
v 0.1 1.8 0
v 0 1.8 -0.1
v 0.1 1.8 -0.1
v -0.1 1.9 0
v 0 1.9 0
v -0.1 1.9 -0.1
v 0 1.9 -0.1
v 0 2.6 0.2
v 0.1 2.6 0.2
v 0.4 2.6 0.2
v 0.5 2.6 0.2
v 0 2.6 0.1
v 0.1 2.6 0.1
v 0.4 2.6 0.1
v 0.5 2.6 0.1
v 0 2.6 -0.2
v 0.1 2.6 -0.2
v 0.4 2.6 -0.2
v 0.5 2.6 -0.2
v 0 2.6 -0.3
v 0.1 2.6 -0.3
v 0.4 2.6 -0.3
v 0.5 2.6 -0.3
v 0.1 2.7 0.2
v 0.4 2.7 0.2
v 0 2.7 0.1
v 0.1 2.7 0.1
v 0.4 2.7 0.1
v 0.5 2.7 0.1
v 0 2.7 -0.2
v 0.1 2.7 -0.2
v 0.4 2.7 -0.2
v 0.5 2.7 -0.2
v 0.1 2.7 -0.3
v 0.4 2.7 -0.3

# faces
f 3/1/1 2/1/1 1/1/1
f 4/1/1 2/1/1 3/1/1
f 9/1/1 6/1/1 5/1/1
f 10/1/1 6/1/1 9/1/1
f 11/1/1 8/1/1 7/1/1
f 12/1/1 8/1/1 11/1/1
f 15/1/1 14/1/1 13/1/1
f 16/1/1 14/1/1 15/1/1
f 21/1/1 18/1/1 17/1/1
f 22/1/1 18/1/1 21/1/1
f 23/1/1 20/1/1 19/1/1
f 24/1/1 20/1/1 23/1/1
f 25/1/1 23/1/1 22/1/1
f 26/1/1 23/1/1 25/1/1
f 30/2/1 28/2/1 27/2/1
f 31/2/1 28/2/1 30/2/1
f 33/2/1 30/2/1 29/2/1
f 33/2/1 32/2/1 31/2/1
f 33/2/1 31/2/1 30/2/1
f 34/2/1 32/2/1 33/2/1
f 35/2/1 32/2/1 34/2/1
f 36/2/1 32/2/1 35/2/1
f 37/2/1 35/2/1 34/2/1
f 38/2/1 35/2/1 37/2/1
f 43/1/1 40/1/1 39/1/1
f 44/1/1 42/1/1 41/1/1
f 46/1/1 43/1/1 39/1/1
f 46/1/1 44/1/1 43/1/1
f 47/1/1 42/1/1 44/1/1
f 47/1/1 44/1/1 46/1/1
f 49/2/1 46/2/1 45/2/1
f 50/2/1 46/2/1 49/2/1
f 51/2/1 48/2/1 47/2/1
f 52/2/1 48/2/1 51/2/1
f 57/2/1 54/2/1 53/2/1
f 58/2/1 54/2/1 57/2/1
f 59/2/1 56/2/1 55/2/1
f 60/2/1 56/2/1 59/2/1
f 61/1/2 62/1/2 65/1/2
f 65/1/2 62/1/2 66/1/2
f 63/1/2 64/1/2 67/1/2
f 67/1/2 64/1/2 68/1/2
f 66/1/2 67/1/2 69/1/2
f 69/1/2 67/1/2 70/1/2
f 71/1/2 72/1/2 73/1/2
f 73/1/2 72/1/2 74/1/2
f 75/1/2 76/1/2 77/1/2
f 77/1/2 76/1/2 78/1/2
f 79/1/2 80/1/2 83/1/2
f 83/1/2 80/1/2 84/1/2
f 81/1/2 82/1/2 85/1/2
f 85/1/2 82/1/2 86/1/2
f 87/1/2 88/1/2 89/1/2
f 89/1/2 88/1/2 90/1/2
f 91/1/2 92/1/2 94/1/2
f 94/1/2 92/1/2 95/1/2
f 93/2/2 94/2/2 97/2/2
f 97/2/2 94/2/2 98/2/2
f 95/2/2 96/2/2 99/2/2
f 99/2/2 96/2/2 100/2/2
f 101/2/2 102/2/2 105/2/2
f 105/2/2 102/2/2 106/2/2
f 103/2/2 104/2/2 107/2/2
f 107/2/2 104/2/2 108/2/2
f 109/2/2 110/2/2 112/2/2
f 112/2/2 110/2/2 113/2/2
f 111/2/2 112/2/2 115/2/2
f 113/2/2 114/2/2 115/2/2
f 112/2/2 113/2/2 115/2/2
f 115/2/2 114/2/2 116/2/2
f 116/2/2 114/2/2 117/2/2
f 117/2/2 114/2/2 118/2/2
f 116/2/2 117/2/2 119/2/2
f 119/2/2 117/2/2 120/2/2
f 123/1/3 122/1/3 121/1/3
f 124/1/3 122/1/3 123/1/3
f 127/1/3 126/1/3 125/1/3
f 128/1/3 126/1/3 127/1/3
f 132/2/3 130/2/3 129/2/3
f 133/2/3 130/2/3 132/2/3
f 137/1/3 136/1/3 135/1/3
f 138/1/3 136/1/3 137/1/3
f 139/2/3 132/2/3 131/2/3
f 139/2/3 133/2/3 132/2/3
f 139/2/3 134/2/3 133/2/3
f 140/2/3 134/2/3 139/2/3
f 141/2/3 134/2/3 140/2/3
f 142/2/3 134/2/3 141/2/3
f 143/2/3 141/2/3 140/2/3
f 144/2/3 141/2/3 143/2/3
f 147/1/3 146/1/3 145/1/3
f 148/1/3 146/1/3 147/1/3
f 154/2/3 150/2/3 149/2/3
f 155/2/3 150/2/3 154/2/3
f 156/2/3 152/2/3 151/2/3
f 157/2/3 152/2/3 156/2/3
f 158/1/3 154/1/3 153/1/3
f 159/1/3 154/1/3 158/1/3
f 163/2/3 160/2/3 159/2/3
f 164/2/3 160/2/3 163/2/3
f 165/2/3 162/2/3 161/2/3
f 166/2/3 162/2/3 165/2/3
f 169/1/3 168/1/3 167/1/3
f 170/1/3 168/1/3 169/1/3
f 173/1/3 171/1/3 170/1/3
f 174/1/3 171/1/3 173/1/3
f 175/1/3 171/1/3 174/1/3
f 176/1/3 171/1/3 175/1/3
f 177/1/3 173/1/3 172/1/3
f 178/1/3 173/1/3 177/1/3
f 179/1/3 175/1/3 174/1/3
f 180/1/3 175/1/3 179/1/3
f 181/1/4 182/1/4 183/1/4
f 183/1/4 182/1/4 184/1/4
f 184/1/4 185/1/4 187/1/4
f 187/1/4 185/1/4 188/1/4
f 188/1/4 185/1/4 189/1/4
f 189/1/4 185/1/4 190/1/4
f 186/1/4 187/1/4 191/1/4
f 191/1/4 187/1/4 192/1/4
f 188/1/4 189/1/4 193/1/4
f 193/1/4 189/1/4 194/1/4
f 195/1/4 196/1/4 197/1/4
f 197/1/4 196/1/4 198/1/4
f 199/2/4 200/2/4 204/2/4
f 204/2/4 200/2/4 205/2/4
f 201/2/4 202/2/4 206/2/4
f 206/2/4 202/2/4 207/2/4
f 203/1/4 204/1/4 208/1/4
f 208/1/4 204/1/4 209/1/4
f 209/2/4 210/2/4 213/2/4
f 213/2/4 210/2/4 214/2/4
f 211/2/4 212/2/4 215/2/4
f 215/2/4 212/2/4 216/2/4
f 217/1/4 218/1/4 219/1/4
f 219/1/4 218/1/4 220/1/4
f 221/2/4 222/2/4 224/2/4
f 224/2/4 222/2/4 225/2/4
f 227/1/4 228/1/4 229/1/4
f 229/1/4 228/1/4 230/1/4
f 223/2/4 224/2/4 231/2/4
f 224/2/4 225/2/4 231/2/4
f 225/2/4 226/2/4 231/2/4
f 231/2/4 226/2/4 232/2/4
f 232/2/4 226/2/4 233/2/4
f 233/2/4 226/2/4 234/2/4
f 232/2/4 233/2/4 235/2/4
f 235/2/4 233/2/4 236/2/4
f 237/1/4 238/1/4 239/1/4
f 239/1/4 238/1/4 240/1/4
f 244/1/5 242/1/5 241/1/5
f 245/1/5 242/1/5 244/1/5
f 247/1/5 244/1/5 243/1/5
f 247/1/5 246/1/5 245/1/5
f 247/1/5 245/1/5 244/1/5
f 248/1/5 246/1/5 247/1/5
f 249/1/5 246/1/5 248/1/5
f 250/1/5 246/1/5 249/1/5
f 251/1/5 249/1/5 248/1/5
f 252/1/5 249/1/5 251/1/5
f 256/1/5 254/1/5 253/1/5
f 257/1/5 256/1/5 255/1/5
f 258/1/5 254/1/5 256/1/5
f 258/1/5 256/1/5 257/1/5
f 259/1/5 254/1/5 258/1/5
f 260/1/5 254/1/5 259/1/5
f 264/2/5 262/2/5 261/2/5
f 265/2/5 262/2/5 264/2/5
f 267/2/5 264/2/5 263/2/5
f 268/2/5 264/2/5 267/2/5
f 269/2/5 266/2/5 265/2/5
f 270/2/5 266/2/5 269/2/5
f 271/2/5 269/2/5 268/2/5
f 272/2/5 269/2/5 271/2/5
f 277/2/5 274/2/5 273/2/5
f 278/2/5 274/2/5 277/2/5
f 279/2/5 276/2/5 275/2/5
f 280/2/5 276/2/5 279/2/5
f 285/2/5 282/2/5 281/2/5
f 286/2/5 282/2/5 285/2/5
f 287/2/5 284/2/5 283/2/5
f 288/2/5 284/2/5 287/2/5
f 289/1/6 290/1/6 292/1/6
f 292/1/6 290/1/6 293/1/6
f 291/1/6 292/1/6 295/1/6
f 293/1/6 294/1/6 295/1/6
f 292/1/6 293/1/6 295/1/6
f 295/1/6 294/1/6 296/1/6
f 291/1/6 295/1/6 297/1/6
f 297/1/6 295/1/6 298/1/6
f 296/1/6 294/1/6 299/1/6
f 299/1/6 294/1/6 300/1/6
f 291/1/6 297/1/6 301/1/6
f 300/1/6 294/1/6 304/1/6
f 301/1/6 302/1/6 305/1/6
f 303/1/6 304/1/6 306/1/6
f 301/1/6 305/1/6 307/1/6
f 305/1/6 306/1/6 307/1/6
f 291/1/6 301/1/6 307/1/6
f 307/1/6 306/1/6 308/1/6
f 306/1/6 304/1/6 309/1/6
f 308/1/6 306/1/6 309/1/6
f 304/1/6 294/1/6 309/1/6
f 309/1/6 294/1/6 310/1/6
f 308/1/6 309/1/6 311/1/6
f 311/1/6 309/1/6 312/1/6
f 313/1/6 314/1/6 316/1/6
f 316/1/6 314/1/6 317/1/6
f 315/1/6 316/1/6 319/1/6
f 319/1/6 316/1/6 320/1/6
f 317/1/6 318/1/6 321/1/6
f 321/1/6 318/1/6 322/1/6
f 320/1/6 321/1/6 323/1/6
f 323/1/6 321/1/6 324/1/6
f 325/1/6 326/1/6 327/1/6
f 327/1/6 326/1/6 328/1/6
f 329/1/6 330/1/6 331/1/6
f 331/1/6 330/1/6 332/1/6
f 333/2/6 334/2/6 337/2/6
f 337/2/6 334/2/6 338/2/6
f 335/2/6 336/2/6 339/2/6
f 339/2/6 336/2/6 340/2/6
f 341/2/6 342/2/6 345/2/6
f 345/2/6 342/2/6 346/2/6
f 343/2/6 344/2/6 347/2/6
f 347/2/6 344/2/6 348/2/6
f 349/2/6 350/2/6 352/2/6
f 352/2/6 350/2/6 353/2/6
f 351/2/6 352/2/6 355/2/6
f 353/2/6 354/2/6 355/2/6
f 352/2/6 353/2/6 355/2/6
f 355/2/6 354/2/6 356/2/6
f 356/2/6 354/2/6 357/2/6
f 357/2/6 354/2/6 358/2/6
f 356/2/6 357/2/6 359/2/6
f 359/2/6 357/2/6 360/2/6
