# MagicaVoxel @ Ephtracy

# group
o Furniture_New

# material
mtllib room-30-Furniture_New.mtl
usemtl palette

# normals
vn -1 0 0
vn 1 0 0
vn 0 0 1
vn 0 0 -1
vn 0 -1 0
vn 0 1 0

# texcoords
vt 0.00585938 0.5
vt 0.0839844 0.5
vt 0.0878906 0.5

# verts
v -1.5 0.5 0.7
v -1.5 0.5 -0.6
v -1.5 1.9 -0.1
v -1.5 1.9 -0.6
v -1.5 3.5 0.7
v -1.5 3.5 -0.1
v -1.4 1 -0.6
v -1.4 1 -0.7
v -1.4 1.4 -0.6
v -1.4 1.4 -0.7
v -1.2 0.8 -0.6
v -1.2 0.8 -0.7
v -1.2 0.9 -0.6
v -1.2 0.9 -0.7
v -1.2 1.2 -0.7
v -1.2 1.2 -0.8
v -1.2 1.3 -0.7
v -1.2 1.3 -0.8
v -1.2 1.6 -0.6
v -1.2 1.6 -0.7
v -1.2 1.7 -0.6
v -1.2 1.7 -0.7
v -0.6 1.9 0.7
v -0.6 1.9 -0.1
v -0.6 2.4 0.7
v -0.6 2.4 0
v -0.6 2.5 0.7
v -0.6 2.5 0
v -0.6 2.9 0.7
v -0.6 2.9 0
v -0.6 3 0.7
v -0.6 3 0
v -0.6 3.3 0.7
v -0.6 3.3 -0.1
v -0.6 3.4 0.7
v -0.6 3.4 -0.1
v -0.6 3.5 0.7
v -0.6 3.5 -0.1
v 1.4 0.5 0.7
v 1.4 0.5 -0.6
v 1.4 1.5 -0.3
v 1.4 1.5 -0.4
v 1.4 1.8 0.7
v 1.4 1.8 -0.3
v 1.4 1.8 -0.4
v 1.4 1.8 -0.6
v 1.4 1.9 0.7
v 1.4 1.9 -0.1
v 1.4 3.3 0.7
v 1.4 3.3 -0.1
v 1.4 3.4 0.7
v 1.4 3.4 -0.1
v 1.4 3.5 0.7
v 1.4 3.5 -0.1
v -1.4 1.9 0.7
v -1.4 1.9 -0.1
v -1.4 2.4 0.7
v -1.4 2.4 0
v -1.4 2.5 0.7
v -1.4 2.5 0
v -1.4 2.9 0.7
v -1.4 2.9 0
v -1.4 3 0.7
v -1.4 3 0
v -1.4 3.3 0.7
v -1.4 3.3 -0.1
v -1.4 3.4 0.7
v -1.4 3.4 -0.1
v -1.4 3.5 0.7
v -1.4 3.5 -0.1
v -0.8 0.8 -0.6
v -0.8 0.8 -0.7
v -0.8 0.9 -0.6
v -0.8 0.9 -0.7
v -0.8 1.2 -0.7
v -0.8 1.2 -0.8
v -0.8 1.3 -0.7
v -0.8 1.3 -0.8
v -0.8 1.6 -0.6
v -0.8 1.6 -0.7
v -0.8 1.7 -0.6
v -0.8 1.7 -0.7
v -0.6 1 -0.6
v -0.6 1 -0.7
v -0.6 1.4 -0.6
v -0.6 1.4 -0.7
v -0.5 0.5 0.7
v -0.5 0.5 -0.6
v -0.5 1.5 -0.3
v -0.5 1.5 -0.4
v -0.5 1.8 0.7
v -0.5 1.8 -0.3
v -0.5 1.8 -0.4
v -0.5 1.8 -0.6
v -0.5 1.9 0.7
v -0.5 1.9 -0.1
v -0.5 3.3 0.7
v -0.5 3.3 -0.1
v -0.5 3.4 0.7
v -0.5 3.4 -0.1
v -0.5 3.5 0.7
v -0.5 3.5 -0.1
v 1.5 0.5 0.7
v 1.5 0.5 -0.6
v 1.5 1.9 -0.1
v 1.5 1.9 -0.6
v 1.5 3.5 0.7
v 1.5 3.5 -0.1
v -1.5 0.5 0.7
v -1.5 3.5 0.7
v -1.4 0.5 0.7
v -1.4 1.8 0.7
v -1.4 1.9 0.7
v -1.4 2.4 0.7
v -1.4 2.5 0.7
v -1.4 2.9 0.7
v -1.4 3 0.7
v -1.4 3.3 0.7
v -1.4 3.4 0.7
v -1.4 3.5 0.7
v -0.6 0.5 0.7
v -0.6 1.8 0.7
v -0.6 1.9 0.7
v -0.6 2.4 0.7
v -0.6 2.5 0.7
v -0.6 2.9 0.7
v -0.6 3 0.7
v -0.6 3.3 0.7
v -0.6 3.4 0.7
v -0.6 3.5 0.7
v -0.5 0.5 0.7
v -0.5 1.8 0.7
v -0.5 1.9 0.7
v -0.5 3.3 0.7
v -0.5 3.4 0.7
v -0.5 3.5 0.7
v 1.4 0.5 0.7
v 1.4 1.8 0.7
v 1.4 1.9 0.7
v 1.4 3.3 0.7
v 1.4 3.4 0.7
v 1.4 3.5 0.7
v 1.5 0.5 0.7
v 1.5 3.5 0.7
v -0.5 1.5 -0.3
v -0.5 1.8 -0.3
v 1.4 1.5 -0.3
v 1.4 1.8 -0.3
v -1.4 2.4 0
v -1.4 2.5 0
v -1.4 2.9 0
v -1.4 3 0
v -0.6 2.4 0
v -0.6 2.5 0
v -0.6 2.9 0
v -0.6 3 0
v -1.5 1.9 -0.1
v -1.5 3.5 -0.1
v -1.4 1.9 -0.1
v -1.4 3.3 -0.1
v -1.4 3.4 -0.1
v -1.4 3.5 -0.1
v -0.6 1.9 -0.1
v -0.6 3.3 -0.1
v -0.6 3.4 -0.1
v -0.6 3.5 -0.1
v -0.5 1.9 -0.1
v -0.5 3.3 -0.1
v -0.5 3.4 -0.1
v -0.5 3.5 -0.1
v 1.4 1.9 -0.1
v 1.4 3.3 -0.1
v 1.4 3.4 -0.1
v 1.4 3.5 -0.1
v 1.5 1.9 -0.1
v 1.5 3.5 -0.1
v -0.5 1.5 -0.4
v -0.5 1.8 -0.4
v 1.4 1.5 -0.4
v 1.4 1.8 -0.4
v -1.5 0.5 -0.6
v -1.5 1.9 -0.6
v -1.4 0.5 -0.6
v -1.4 1 -0.6
v -1.4 1.4 -0.6
v -1.4 1.8 -0.6
v -1.2 0.8 -0.6
v -1.2 0.9 -0.6
v -1.2 1.6 -0.6
v -1.2 1.7 -0.6
v -0.8 0.8 -0.6
v -0.8 0.9 -0.6
v -0.8 1.6 -0.6
v -0.8 1.7 -0.6
v -0.6 0.5 -0.6
v -0.6 1 -0.6
v -0.6 1.4 -0.6
v -0.6 1.8 -0.6
v -0.5 0.5 -0.6
v -0.5 1.8 -0.6
v 1.4 0.5 -0.6
v 1.4 1.8 -0.6
v 1.5 0.5 -0.6
v 1.5 1.9 -0.6
v -1.4 1 -0.7
v -1.4 1.4 -0.7
v -1.2 0.8 -0.7
v -1.2 0.9 -0.7
v -1.2 1.2 -0.7
v -1.2 1.3 -0.7
v -1.2 1.6 -0.7
v -1.2 1.7 -0.7
v -0.8 0.8 -0.7
v -0.8 0.9 -0.7
v -0.8 1.2 -0.7
v -0.8 1.3 -0.7
v -0.8 1.6 -0.7
v -0.8 1.7 -0.7
v -0.6 1 -0.7
v -0.6 1.4 -0.7
v -1.2 1.2 -0.8
v -1.2 1.3 -0.8
v -0.8 1.2 -0.8
v -0.8 1.3 -0.8
v -1.5 0.5 0.7
v -1.4 0.5 0.7
v -0.6 0.5 0.7
v -0.5 0.5 0.7
v 1.4 0.5 0.7
v 1.5 0.5 0.7
v -1.4 0.5 0.6
v -0.6 0.5 0.6
v -1.4 0.5 -0.5
v -0.6 0.5 -0.5
v -1.5 0.5 -0.6
v -1.4 0.5 -0.6
v -0.6 0.5 -0.6
v -0.5 0.5 -0.6
v 1.4 0.5 -0.6
v 1.5 0.5 -0.6
v -1.2 0.8 -0.6
v -0.8 0.8 -0.6
v -1.2 0.8 -0.7
v -0.8 0.8 -0.7
v -1.4 1 -0.6
v -0.6 1 -0.6
v -1.4 1 -0.7
v -0.6 1 -0.7
v -1.2 1.2 -0.7
v -0.8 1.2 -0.7
v -1.2 1.2 -0.8
v -0.8 1.2 -0.8
v -0.5 1.5 -0.3
v 1.4 1.5 -0.3
v -0.5 1.5 -0.4
v 1.4 1.5 -0.4
v -1.2 1.6 -0.6
v -0.8 1.6 -0.6
v -1.2 1.6 -0.7
v -0.8 1.6 -0.7
v -0.5 1.8 0.7
v 1.4 1.8 0.7
v -0.5 1.8 -0.3
v 1.4 1.8 -0.3
v -0.5 1.8 -0.4
v 1.4 1.8 -0.4
v -0.5 1.8 -0.6
v 1.4 1.8 -0.6
v -1.4 2.4 0.7
v -0.6 2.4 0.7
v -1.4 2.4 0
v -0.6 2.4 0
v -1.4 2.9 0.7
v -0.6 2.9 0.7
v -1.4 2.9 0
v -0.6 2.9 0
v -1.4 3.3 0.7
v -0.6 3.3 0.7
v -0.5 3.3 0.7
v 1.4 3.3 0.7
v -1.4 3.3 -0.1
v -0.6 3.3 -0.1
v -0.5 3.3 -0.1
v 1.4 3.3 -0.1
v -1.2 0.9 -0.6
v -0.8 0.9 -0.6
v -1.2 0.9 -0.7
v -0.8 0.9 -0.7
v -1.2 1.3 -0.7
v -0.8 1.3 -0.7
v -1.2 1.3 -0.8
v -0.8 1.3 -0.8
v -1.4 1.4 -0.6
v -0.6 1.4 -0.6
v -1.4 1.4 -0.7
v -0.6 1.4 -0.7
v -1.2 1.7 -0.6
v -0.8 1.7 -0.6
v -1.2 1.7 -0.7
v -0.8 1.7 -0.7
v -1.4 1.9 0.7
v -0.6 1.9 0.7
v -0.5 1.9 0.7
v 1.4 1.9 0.7
v -1.5 1.9 -0.1
v -1.4 1.9 -0.1
v -0.6 1.9 -0.1
v -0.5 1.9 -0.1
v 1.4 1.9 -0.1
v 1.5 1.9 -0.1
v -1.5 1.9 -0.6
v 1.5 1.9 -0.6
v -1.4 2.5 0.7
v -0.6 2.5 0.7
v -1.4 2.5 0
v -0.6 2.5 0
v -1.4 3 0.7
v -0.6 3 0.7
v -1.4 3 0
v -0.6 3 0
v -1.4 3.4 0.7
v -0.6 3.4 0.7
v -0.5 3.4 0.7
v 1.4 3.4 0.7
v -1.4 3.4 -0.1
v -0.6 3.4 -0.1
v -0.5 3.4 -0.1
v 1.4 3.4 -0.1
v -1.5 3.5 0.7
v -1.4 3.5 0.7
v -0.6 3.5 0.7
v -0.5 3.5 0.7
v 1.4 3.5 0.7
v 1.5 3.5 0.7
v -1.5 3.5 -0.1
v -1.4 3.5 -0.1
v -0.6 3.5 -0.1
v -0.5 3.5 -0.1
v 1.4 3.5 -0.1
v 1.5 3.5 -0.1

# faces
f 3/3/1 2/3/1 1/3/1
f 4/3/1 2/3/1 3/3/1
f 5/3/1 3/3/1 1/3/1
f 6/3/1 3/3/1 5/3/1
f 9/2/1 8/2/1 7/2/1
f 10/2/1 8/2/1 9/2/1
f 13/1/1 12/1/1 11/1/1
f 14/1/1 12/1/1 13/1/1
f 17/1/1 16/1/1 15/1/1
f 18/1/1 16/1/1 17/1/1
f 21/1/1 20/1/1 19/1/1
f 22/1/1 20/1/1 21/1/1
f 25/3/1 24/3/1 23/3/1
f 26/3/1 24/3/1 25/3/1
f 28/3/1 24/3/1 26/3/1
f 29/3/1 28/3/1 27/3/1
f 30/3/1 24/3/1 28/3/1
f 30/3/1 28/3/1 29/3/1
f 32/3/1 24/3/1 30/3/1
f 33/3/1 32/3/1 31/3/1
f 34/3/1 24/3/1 32/3/1
f 34/3/1 32/3/1 33/3/1
f 37/3/1 36/3/1 35/3/1
f 38/3/1 36/3/1 37/3/1
f 41/3/1 40/3/1 39/3/1
f 42/3/1 40/3/1 41/3/1
f 43/3/1 41/3/1 39/3/1
f 44/3/1 41/3/1 43/3/1
f 45/3/1 40/3/1 42/3/1
f 46/3/1 40/3/1 45/3/1
f 49/3/1 48/3/1 47/3/1
f 50/3/1 48/3/1 49/3/1
f 53/3/1 52/3/1 51/3/1
f 54/3/1 52/3/1 53/3/1
f 55/3/2 56/3/2 57/3/2
f 57/3/2 56/3/2 58/3/2
f 58/3/2 56/3/2 60/3/2
f 59/3/2 60/3/2 61/3/2
f 60/3/2 56/3/2 62/3/2
f 61/3/2 60/3/2 62/3/2
f 62/3/2 56/3/2 64/3/2
f 63/3/2 64/3/2 65/3/2
f 64/3/2 56/3/2 66/3/2
f 65/3/2 64/3/2 66/3/2
f 67/3/2 68/3/2 69/3/2
f 69/3/2 68/3/2 70/3/2
f 71/1/2 72/1/2 73/1/2
f 73/1/2 72/1/2 74/1/2
f 75/1/2 76/1/2 77/1/2
f 77/1/2 76/1/2 78/1/2
f 79/1/2 80/1/2 81/1/2
f 81/1/2 80/1/2 82/1/2
f 83/2/2 84/2/2 85/2/2
f 85/2/2 84/2/2 86/2/2
f 87/3/2 88/3/2 89/3/2
f 89/3/2 88/3/2 90/3/2
f 87/3/2 89/3/2 91/3/2
f 91/3/2 89/3/2 92/3/2
f 90/3/2 88/3/2 93/3/2
f 93/3/2 88/3/2 94/3/2
f 95/3/2 96/3/2 97/3/2
f 97/3/2 96/3/2 98/3/2
f 99/3/2 100/3/2 101/3/2
f 101/3/2 100/3/2 102/3/2
f 103/3/2 104/3/2 105/3/2
f 105/3/2 104/3/2 106/3/2
f 103/3/2 105/3/2 107/3/2
f 107/3/2 105/3/2 108/3/2
f 111/3/3 110/3/3 109/3/3
f 112/3/3 110/3/3 111/3/3
f 113/3/3 110/3/3 112/3/3
f 114/3/3 110/3/3 113/3/3
f 115/3/3 110/3/3 114/3/3
f 116/3/3 110/3/3 115/3/3
f 117/3/3 110/3/3 116/3/3
f 118/3/3 110/3/3 117/3/3
f 119/3/3 110/3/3 118/3/3
f 120/3/3 110/3/3 119/3/3
f 121/2/3 112/2/3 111/2/3
f 122/3/3 113/3/3 112/3/3
f 122/2/3 112/2/3 121/2/3
f 123/3/3 113/3/3 122/3/3
f 124/2/3 115/2/3 114/2/3
f 125/2/3 115/2/3 124/2/3
f 126/2/3 117/2/3 116/2/3
f 127/2/3 117/2/3 126/2/3
f 128/2/3 119/2/3 118/2/3
f 129/2/3 119/2/3 128/2/3
f 131/3/3 127/3/3 126/3/3
f 131/3/3 130/3/3 129/3/3
f 131/3/3 129/3/3 128/3/3
f 131/3/3 128/3/3 127/3/3
f 131/3/3 123/3/3 122/3/3
f 131/3/3 126/3/3 125/3/3
f 131/3/3 125/3/3 124/3/3
f 131/3/3 124/3/3 123/3/3
f 131/3/3 122/3/3 121/3/3
f 132/3/3 130/3/3 131/3/3
f 133/3/3 130/3/3 132/3/3
f 134/3/3 130/3/3 133/3/3
f 135/3/3 130/3/3 134/3/3
f 136/3/3 130/3/3 135/3/3
f 138/3/3 133/3/3 132/3/3
f 139/3/3 133/3/3 138/3/3
f 140/2/3 135/2/3 134/2/3
f 141/2/3 135/2/3 140/2/3
f 143/3/3 139/3/3 138/3/3
f 143/3/3 142/3/3 141/3/3
f 143/3/3 141/3/3 140/3/3
f 143/3/3 140/3/3 139/3/3
f 143/3/3 138/3/3 137/3/3
f 144/3/3 142/3/3 143/3/3
f 147/2/3 146/2/3 145/2/3
f 148/2/3 146/2/3 147/2/3
f 149/2/4 150/2/4 153/2/4
f 153/2/4 150/2/4 154/2/4
f 151/2/4 152/2/4 155/2/4
f 155/2/4 152/2/4 156/2/4
f 157/3/4 158/3/4 159/3/4
f 159/3/4 158/3/4 160/3/4
f 160/3/4 158/3/4 161/3/4
f 161/3/4 158/3/4 162/3/4
f 160/2/4 161/2/4 164/2/4
f 164/2/4 161/2/4 165/2/4
f 163/3/4 164/3/4 167/3/4
f 165/3/4 166/3/4 167/3/4
f 164/3/4 165/3/4 167/3/4
f 167/3/4 166/3/4 168/3/4
f 168/3/4 166/3/4 169/3/4
f 169/3/4 166/3/4 170/3/4
f 168/2/4 169/2/4 172/2/4
f 172/2/4 169/2/4 173/2/4
f 171/3/4 172/3/4 175/3/4
f 173/3/4 174/3/4 175/3/4
f 172/3/4 173/3/4 175/3/4
f 175/3/4 174/3/4 176/3/4
f 177/2/4 178/2/4 179/2/4
f 179/2/4 178/2/4 180/2/4
f 181/3/4 182/3/4 183/3/4
f 183/3/4 182/3/4 184/3/4
f 184/3/4 182/3/4 185/3/4
f 185/3/4 182/3/4 186/3/4
f 183/2/4 184/2/4 187/2/4
f 187/2/4 184/2/4 188/2/4
f 185/2/4 186/2/4 189/2/4
f 189/2/4 186/2/4 190/2/4
f 183/2/4 187/2/4 191/2/4
f 188/2/4 184/2/4 192/2/4
f 185/2/4 189/2/4 193/2/4
f 190/2/4 186/2/4 194/2/4
f 183/2/4 191/2/4 195/2/4
f 191/2/4 192/2/4 195/2/4
f 192/2/4 184/2/4 196/2/4
f 195/2/4 192/2/4 196/2/4
f 193/2/4 194/2/4 197/2/4
f 185/2/4 193/2/4 197/2/4
f 186/3/4 182/3/4 198/3/4
f 194/2/4 186/2/4 198/2/4
f 197/2/4 194/2/4 198/2/4
f 196/3/4 197/3/4 199/3/4
f 195/3/4 196/3/4 199/3/4
f 197/3/4 198/3/4 199/3/4
f 198/3/4 182/3/4 200/3/4
f 199/3/4 198/3/4 200/3/4
f 200/3/4 182/3/4 202/3/4
f 201/3/4 202/3/4 203/3/4
f 202/3/4 182/3/4 204/3/4
f 203/3/4 202/3/4 204/3/4
f 205/2/4 206/2/4 209/2/4
f 209/2/4 206/2/4 210/2/4
f 207/1/4 208/1/4 213/1/4
f 213/1/4 208/1/4 214/1/4
f 205/2/4 209/2/4 215/2/4
f 210/2/4 206/2/4 216/2/4
f 211/1/4 212/1/4 217/1/4
f 217/1/4 212/1/4 218/1/4
f 215/2/4 216/2/4 219/2/4
f 205/2/4 215/2/4 219/2/4
f 216/2/4 206/2/4 220/2/4
f 219/2/4 216/2/4 220/2/4
f 221/1/4 222/1/4 223/1/4
f 223/1/4 222/1/4 224/1/4
f 231/3/5 226/3/5 225/3/5
f 231/2/5 227/2/5 226/2/5
f 232/3/5 228/3/5 227/3/5
f 232/2/5 227/2/5 231/2/5
f 233/3/5 231/3/5 225/3/5
f 233/3/5 232/3/5 231/3/5
f 234/3/5 228/3/5 232/3/5
f 234/3/5 232/3/5 233/3/5
f 235/3/5 233/3/5 225/3/5
f 236/2/5 234/2/5 233/2/5
f 236/3/5 233/3/5 235/3/5
f 237/3/5 228/3/5 234/3/5
f 237/2/5 234/2/5 236/2/5
f 238/3/5 228/3/5 237/3/5
f 239/3/5 230/3/5 229/3/5
f 240/3/5 230/3/5 239/3/5
f 243/1/5 242/1/5 241/1/5
f 244/1/5 242/1/5 243/1/5
f 247/2/5 246/2/5 245/2/5
f 248/2/5 246/2/5 247/2/5
f 251/1/5 250/1/5 249/1/5
f 252/1/5 250/1/5 251/1/5
f 255/2/5 254/2/5 253/2/5
f 256/2/5 254/2/5 255/2/5
f 259/1/5 258/1/5 257/1/5
f 260/1/5 258/1/5 259/1/5
f 263/3/5 262/3/5 261/3/5
f 264/3/5 262/3/5 263/3/5
f 267/3/5 266/3/5 265/3/5
f 268/3/5 266/3/5 267/3/5
f 271/2/5 270/2/5 269/2/5
f 272/2/5 270/2/5 271/2/5
f 275/2/5 274/2/5 273/2/5
f 276/2/5 274/2/5 275/2/5
f 281/2/5 278/2/5 277/2/5
f 282/2/5 278/2/5 281/2/5
f 283/2/5 280/2/5 279/2/5
f 284/2/5 280/2/5 283/2/5
f 285/1/6 286/1/6 287/1/6
f 287/1/6 286/1/6 288/1/6
f 289/1/6 290/1/6 291/1/6
f 291/1/6 290/1/6 292/1/6
f 293/2/6 294/2/6 295/2/6
f 295/2/6 294/2/6 296/2/6
f 297/1/6 298/1/6 299/1/6
f 299/1/6 298/1/6 300/1/6
f 301/3/6 302/3/6 306/3/6
f 306/3/6 302/3/6 307/3/6
f 303/3/6 304/3/6 308/3/6
f 308/3/6 304/3/6 309/3/6
f 306/3/6 307/3/6 311/3/6
f 309/3/6 310/3/6 311/3/6
f 308/3/6 309/3/6 311/3/6
f 307/3/6 308/3/6 311/3/6
f 305/3/6 306/3/6 311/3/6
f 311/3/6 310/3/6 312/3/6
f 313/2/6 314/2/6 315/2/6
f 315/2/6 314/2/6 316/2/6
f 317/2/6 318/2/6 319/2/6
f 319/2/6 318/2/6 320/2/6
f 321/2/6 322/2/6 325/2/6
f 325/2/6 322/2/6 326/2/6
f 323/2/6 324/2/6 327/2/6
f 327/2/6 324/2/6 328/2/6
f 329/3/6 330/3/6 335/3/6
f 335/3/6 330/3/6 336/3/6
f 331/3/6 332/3/6 337/3/6
f 337/3/6 332/3/6 338/3/6
f 333/3/6 334/3/6 339/3/6
f 339/3/6 334/3/6 340/3/6
