# MagicaVoxel @ Ephtracy

# group
o PC

# material
mtllib room-34-PC.mtl
usemtl palette

# normals
vn -1 0 0
vn 1 0 0
vn 0 0 1
vn 0 0 -1
vn 0 -1 0
vn 0 1 0

# texcoords
vt 0.00976563 0.5
vt 0.0136719 0.5
vt 0.0292969 0.5

# verts
v -1.4 1.2 0.5
v -1.4 1.2 -1
v -1.4 1.3 0.6
v -1.4 1.3 0.5
v -1.4 1.4 0.5
v -1.4 1.4 -1
v -1.4 1.6 0.7
v -1.4 1.6 0.6
v -1.4 1.7 0.6
v -1.4 1.7 0.5
v -1.4 2 0.8
v -1.4 2 0.7
v -1.4 2.1 0.7
v -1.4 2.1 0.6
v -1.4 2.4 0.9
v -1.4 2.4 0.8
v -1.4 2.5 0.8
v -1.4 2.5 0.7
v -1.4 2.8 0.9
v -1.4 2.8 0.8
v -1.3 1.4 0.7
v -1.3 1.4 0.6
v -1.3 1.6 0.8
v -1.3 1.6 0.7
v -1.3 1.6 0.6
v -1.3 2 0.9
v -1.3 2 0.8
v -1.3 2 0.7
v -1.3 2.4 1
v -1.3 2.4 0.9
v -1.3 2.4 0.8
v -1.3 2.7 1
v -1.3 2.7 0.9
v 1.3 1.4 0.7
v 1.3 1.4 0.6
v 1.3 1.6 0.8
v 1.3 1.6 0.7
v 1.3 1.6 0.6
v 1.3 2 0.9
v 1.3 2 0.8
v 1.3 2 0.7
v 1.3 2.4 1
v 1.3 2.4 0.9
v 1.3 2.4 0.8
v 1.3 2.7 1
v 1.3 2.7 0.9
v 1.4 1.2 0.5
v 1.4 1.2 -1
v 1.4 1.3 0.6
v 1.4 1.3 0.5
v 1.4 1.4 0.5
v 1.4 1.4 -1
v 1.4 1.6 0.7
v 1.4 1.6 0.6
v 1.4 1.7 0.6
v 1.4 1.7 0.5
v 1.4 2 0.8
v 1.4 2 0.7
v 1.4 2.1 0.7
v 1.4 2.1 0.6
v 1.4 2.4 0.9
v 1.4 2.4 0.8
v 1.4 2.5 0.8
v 1.4 2.5 0.7
v 1.4 2.8 0.9
v 1.4 2.8 0.8
v -1.3 2.4 1
v -1.3 2.7 1
v 1.3 2.4 1
v 1.3 2.7 1
v -1.4 2.4 0.9
v -1.4 2.8 0.9
v -1.3 2 0.9
v -1.3 2.4 0.9
v -1.3 2.7 0.9
v -0.1 2.7 0.9
v -0.1 2.8 0.9
v 0.1 2.7 0.9
v 0.1 2.8 0.9
v 1.3 2 0.9
v 1.3 2.4 0.9
v 1.3 2.7 0.9
v 1.4 2.4 0.9
v 1.4 2.8 0.9
v -1.4 2 0.8
v -1.4 2.4 0.8
v -1.3 1.6 0.8
v -1.3 2 0.8
v -1.3 2.4 0.8
v 1.3 1.6 0.8
v 1.3 2 0.8
v 1.3 2.4 0.8
v 1.4 2 0.8
v 1.4 2.4 0.8
v -1.4 1.6 0.7
v -1.4 2 0.7
v -1.3 1.4 0.7
v -1.3 1.6 0.7
v -1.3 2 0.7
v 1.3 1.4 0.7
v 1.3 1.6 0.7
v 1.3 2 0.7
v 1.4 1.6 0.7
v 1.4 2 0.7
v -1.4 1.3 0.6
v -1.4 1.6 0.6
v -1.3 1.4 0.6
v -1.3 1.6 0.6
v 1.3 1.4 0.6
v 1.3 1.6 0.6
v 1.4 1.3 0.6
v 1.4 1.6 0.6
v -1.4 1.2 0.5
v -1.4 1.3 0.5
v 1.4 1.2 0.5
v 1.4 1.3 0.5
v -1.4 2.5 0.8
v -1.4 2.8 0.8
v -1.3 2.5 0.8
v -1.3 2.7 0.8
v -0.1 2.7 0.8
v -0.1 2.8 0.8
v 0.1 2.7 0.8
v 0.1 2.8 0.8
v 1.3 2.5 0.8
v 1.3 2.7 0.8
v 1.4 2.5 0.8
v 1.4 2.8 0.8
v -1.4 2.1 0.7
v -1.4 2.5 0.7
v -1.3 2.1 0.7
v -1.3 2.5 0.7
v 1.3 2.1 0.7
v 1.3 2.5 0.7
v 1.4 2.1 0.7
v 1.4 2.5 0.7
v -1.4 1.7 0.6
v -1.4 2.1 0.6
v -1.3 1.7 0.6
v -1.3 2.1 0.6
v 1.3 1.7 0.6
v 1.3 2.1 0.6
v 1.4 1.7 0.6
v 1.4 2.1 0.6
v -1.4 1.4 0.5
v -1.4 1.7 0.5
v -1.3 1.5 0.5
v -1.3 1.7 0.5
v 1.3 1.5 0.5
v 1.3 1.7 0.5
v 1.4 1.4 0.5
v 1.4 1.7 0.5
v -1.4 1.2 -1
v -1.4 1.4 -1
v -0.3 1.3 -1
v -0.3 1.4 -1
v 0.4 1.3 -1
v 0.4 1.4 -1
v 1.4 1.2 -1
v 1.4 1.4 -1
v -1.4 1.2 0.5
v 1.4 1.2 0.5
v -1.4 1.2 -1
v 1.4 1.2 -1
v -1.4 1.3 0.6
v 1.4 1.3 0.6
v -1.4 1.3 0.5
v 1.4 1.3 0.5
v -1.3 1.4 0.7
v 1.3 1.4 0.7
v -1.3 1.4 0.6
v 1.3 1.4 0.6
v -1.3 1.6 0.8
v 1.3 1.6 0.8
v -1.4 1.6 0.7
v -1.3 1.6 0.7
v 1.3 1.6 0.7
v 1.4 1.6 0.7
v -1.4 1.6 0.6
v -1.3 1.6 0.6
v 1.3 1.6 0.6
v 1.4 1.6 0.6
v -1.3 2 0.9
v 1.3 2 0.9
v -1.4 2 0.8
v -1.3 2 0.8
v 1.3 2 0.8
v 1.4 2 0.8
v -1.4 2 0.7
v -1.3 2 0.7
v 1.3 2 0.7
v 1.4 2 0.7
v -1.3 2.4 1
v 1.3 2.4 1
v -1.4 2.4 0.9
v -1.3 2.4 0.9
v 1.3 2.4 0.9
v 1.4 2.4 0.9
v -1.4 2.4 0.8
v -1.3 2.4 0.8
v 1.3 2.4 0.8
v 1.4 2.4 0.8
v -1.4 1.4 0.5
v 1.4 1.4 0.5
v -1.3 1.4 0.4
v -1.2 1.4 0.4
v -1.1 1.4 0.4
v -1 1.4 0.4
v -0.9 1.4 0.4
v -0.8 1.4 0.4
v -0.6 1.4 0.4
v -0.4 1.4 0.4
v -0.3 1.4 0.4
v -0.2 1.4 0.4
v -0.1 1.4 0.4
v 0 1.4 0.4
v 0.1 1.4 0.4
v 0.2 1.4 0.4
v 0.3 1.4 0.4
v 0.4 1.4 0.4
v 0.5 1.4 0.4
v 0.6 1.4 0.4
v 0.7 1.4 0.4
v 0.8 1.4 0.4
v 0.9 1.4 0.4
v 1 1.4 0.4
v 1.1 1.4 0.4
v 1.3 1.4 0.4
v -1.3 1.4 0.3
v -1.2 1.4 0.3
v -1.1 1.4 0.3
v -1 1.4 0.3
v -0.9 1.4 0.3
v -0.8 1.4 0.3
v -0.6 1.4 0.3
v -0.4 1.4 0.3
v -0.3 1.4 0.3
v -0.2 1.4 0.3
v -0.1 1.4 0.3
v 0 1.4 0.3
v 0.1 1.4 0.3
v 0.2 1.4 0.3
v 0.3 1.4 0.3
v 0.4 1.4 0.3
v 0.5 1.4 0.3
v 0.6 1.4 0.3
v 0.7 1.4 0.3
v 0.8 1.4 0.3
v 0.9 1.4 0.3
v 1 1.4 0.3
v 1.1 1.4 0.3
v 1.3 1.4 0.3
v -1.3 1.4 0.2
v -1.2 1.4 0.2
v -1.1 1.4 0.2
v -1 1.4 0.2
v -0.9 1.4 0.2
v -0.8 1.4 0.2
v -0.6 1.4 0.2
v -0.5 1.4 0.2
v -0.4 1.4 0.2
v -0.3 1.4 0.2
v -0.2 1.4 0.2
v -0.1 1.4 0.2
v 0 1.4 0.2
v 0.1 1.4 0.2
v 0.2 1.4 0.2
v 0.3 1.4 0.2
v 0.4 1.4 0.2
v 0.5 1.4 0.2
v 0.6 1.4 0.2
v 0.7 1.4 0.2
v 0.8 1.4 0.2
v 0.9 1.4 0.2
v 1 1.4 0.2
v 1.3 1.4 0.2
v -1.3 1.4 0.1
v -1.2 1.4 0.1
v -1.1 1.4 0.1
v -1 1.4 0.1
v -0.9 1.4 0.1
v -0.8 1.4 0.1
v -0.6 1.4 0.1
v -0.5 1.4 0.1
v -0.4 1.4 0.1
v -0.3 1.4 0.1
v -0.2 1.4 0.1
v -0.1 1.4 0.1
v 0 1.4 0.1
v 0.1 1.4 0.1
v 0.2 1.4 0.1
v 0.3 1.4 0.1
v 0.4 1.4 0.1
v 0.5 1.4 0.1
v 0.6 1.4 0.1
v 0.7 1.4 0.1
v 0.8 1.4 0.1
v 0.9 1.4 0.1
v 1 1.4 0.1
v 1.3 1.4 0.1
v -1.3 1.4 0
v -1.2 1.4 0
v -1.1 1.4 0
v -1 1.4 0
v -0.9 1.4 0
v -0.8 1.4 0
v -0.6 1.4 0
v -0.4 1.4 0
v -0.3 1.4 0
v -0.2 1.4 0
v -0.1 1.4 0
v 0 1.4 0
v 0.1 1.4 0
v 0.2 1.4 0
v 0.3 1.4 0
v 0.4 1.4 0
v 0.5 1.4 0
v 0.6 1.4 0
v 0.7 1.4 0
v 0.8 1.4 0
v 0.9 1.4 0
v 1 1.4 0
v 1.1 1.4 0
v 1.3 1.4 0
v -1.3 1.4 -0.1
v -1.2 1.4 -0.1
v -1.1 1.4 -0.1
v -1 1.4 -0.1
v -0.9 1.4 -0.1
v -0.8 1.4 -0.1
v -0.3 1.4 -0.1
v -0.2 1.4 -0.1
v -0.1 1.4 -0.1
v 0 1.4 -0.1
v 0.1 1.4 -0.1
v 0.2 1.4 -0.1
v 0.3 1.4 -0.1
v 0.4 1.4 -0.1
v 0.5 1.4 -0.1
v 0.6 1.4 -0.1
v 0.7 1.4 -0.1
v 0.8 1.4 -0.1
v 0.9 1.4 -0.1
v 1 1.4 -0.1
v 1.1 1.4 -0.1
v 1.3 1.4 -0.1
v -1.1 1.4 -0.2
v -1 1.4 -0.2
v -0.4 1.4 -0.2
v -0.3 1.4 -0.2
v -0.2 1.4 -0.2
v -0.1 1.4 -0.2
v 0 1.4 -0.2
v 0.1 1.4 -0.2
v 0.2 1.4 -0.2
v 0.3 1.4 -0.2
v 0.4 1.4 -0.2
v 0.5 1.4 -0.2
v 0.6 1.4 -0.2
v 0.7 1.4 -0.2
v 0.8 1.4 -0.2
v 0.9 1.4 -0.2
v 1 1.4 -0.2
v 1.3 1.4 -0.2
v -1.1 1.4 -0.3
v -1 1.4 -0.3
v -0.6 1.4 -0.3
v -0.3 1.4 -0.3
v -0.2 1.4 -0.3
v -0.1 1.4 -0.3
v 0 1.4 -0.3
v 0.1 1.4 -0.3
v 0.2 1.4 -0.3
v 0.3 1.4 -0.3
v 0.4 1.4 -0.3
v 0.5 1.4 -0.3
v 0.6 1.4 -0.3
v 0.7 1.4 -0.3
v 0.8 1.4 -0.3
v 0.9 1.4 -0.3
v 1 1.4 -0.3
v 1.3 1.4 -0.3
v -1.3 1.4 -0.4
v -1.2 1.4 -0.4
v -1.1 1.4 -0.4
v -1 1.4 -0.4
v -0.9 1.4 -0.4
v -0.8 1.4 -0.4
v -0.6 1.4 -0.4
v -0.5 1.4 -0.4
v -0.4 1.4 -0.4
v -0.3 1.4 -0.4
v -0.2 1.4 -0.4
v -0.1 1.4 -0.4
v 0 1.4 -0.4
v 0.6 1.4 -0.4
v 0.7 1.4 -0.4
v 0.8 1.4 -0.4
v 0.9 1.4 -0.4
v 1 1.4 -0.4
v 1.1 1.4 -0.4
v 1.3 1.4 -0.4
v -1.3 1.4 -0.5
v -1.2 1.4 -0.5
v -1.1 1.4 -0.5
v -1 1.4 -0.5
v -0.9 1.4 -0.5
v -0.8 1.4 -0.5
v -0.6 1.4 -0.5
v -0.5 1.4 -0.5
v -0.4 1.4 -0.5
v -0.3 1.4 -0.5
v -0.2 1.4 -0.5
v -0.1 1.4 -0.5
v 0 1.4 -0.5
v 0.6 1.4 -0.5
v 0.7 1.4 -0.5
v 0.8 1.4 -0.5
v 0.9 1.4 -0.5
v 1 1.4 -0.5
v 1.1 1.4 -0.5
v 1.3 1.4 -0.5
v -0.3 1.4 -0.6
v 0.4 1.4 -0.6
v -1.4 1.4 -1
v -0.3 1.4 -1
v 0.4 1.4 -1
v 1.4 1.4 -1
v -1.4 1.7 0.6
v -1.3 1.7 0.6
v 1.3 1.7 0.6
v 1.4 1.7 0.6
v -1.4 1.7 0.5
v -1.3 1.7 0.5
v 1.3 1.7 0.5
v 1.4 1.7 0.5
v -1.4 2.1 0.7
v -1.3 2.1 0.7
v 1.3 2.1 0.7
v 1.4 2.1 0.7
v -1.4 2.1 0.6
v -1.3 2.1 0.6
v 1.3 2.1 0.6
v 1.4 2.1 0.6
v -1.4 2.5 0.8
v -1.3 2.5 0.8
v 1.3 2.5 0.8
v 1.4 2.5 0.8
v -1.4 2.5 0.7
v -1.3 2.5 0.7
v 1.3 2.5 0.7
v 1.4 2.5 0.7
v -1.3 2.7 1
v 1.3 2.7 1
v -1.3 2.7 0.9
v -0.1 2.7 0.9
v 0.1 2.7 0.9
v 1.3 2.7 0.9
v -1.4 2.8 0.9
v -0.1 2.8 0.9
v 0.1 2.8 0.9
v 1.4 2.8 0.9
v -1.4 2.8 0.8
v -0.1 2.8 0.8
v 0.1 2.8 0.8
v 1.4 2.8 0.8

# faces
f 4/1/1 2/1/1 1/1/1
f 5/1/1 2/1/1 4/1/1
f 5/1/1 4/1/1 3/1/1
f 6/1/1 2/1/1 5/1/1
f 8/1/1 5/1/1 3/1/1
f 9/1/1 5/1/1 8/1/1
f 9/1/1 8/1/1 7/1/1
f 10/1/1 5/1/1 9/1/1
f 12/1/1 9/1/1 7/1/1
f 13/1/1 9/1/1 12/1/1
f 13/1/1 12/1/1 11/1/1
f 14/1/1 9/1/1 13/1/1
f 16/1/1 13/1/1 11/1/1
f 17/1/1 13/1/1 16/1/1
f 17/1/1 16/1/1 15/1/1
f 18/1/1 13/1/1 17/1/1
f 19/1/1 17/1/1 15/1/1
f 20/1/1 17/1/1 19/1/1
f 24/1/1 22/1/1 21/1/1
f 25/1/1 22/1/1 24/1/1
f 27/1/1 24/1/1 23/1/1
f 28/1/1 24/1/1 27/1/1
f 30/1/1 27/1/1 26/1/1
f 31/1/1 27/1/1 30/1/1
f 32/1/1 30/1/1 29/1/1
f 33/1/1 30/1/1 32/1/1
f 34/1/2 35/1/2 37/1/2
f 37/1/2 35/1/2 38/1/2
f 36/1/2 37/1/2 40/1/2
f 40/1/2 37/1/2 41/1/2
f 39/1/2 40/1/2 43/1/2
f 43/1/2 40/1/2 44/1/2
f 42/1/2 43/1/2 45/1/2
f 45/1/2 43/1/2 46/1/2
f 47/1/2 48/1/2 50/1/2
f 50/1/2 48/1/2 51/1/2
f 49/1/2 50/1/2 51/1/2
f 51/1/2 48/1/2 52/1/2
f 49/1/2 51/1/2 54/1/2
f 54/1/2 51/1/2 55/1/2
f 53/1/2 54/1/2 55/1/2
f 55/1/2 51/1/2 56/1/2
f 53/1/2 55/1/2 58/1/2
f 58/1/2 55/1/2 59/1/2
f 57/1/2 58/1/2 59/1/2
f 59/1/2 55/1/2 60/1/2
f 57/1/2 59/1/2 62/1/2
f 62/1/2 59/1/2 63/1/2
f 61/1/2 62/1/2 63/1/2
f 63/1/2 59/1/2 64/1/2
f 61/1/2 63/1/2 65/1/2
f 65/1/2 63/1/2 66/1/2
f 69/1/3 68/1/3 67/1/3
f 70/1/3 68/1/3 69/1/3
f 74/1/3 72/1/3 71/1/3
f 75/1/3 72/1/3 74/1/3
f 76/1/3 72/1/3 75/1/3
f 77/1/3 72/1/3 76/1/3
f 78/2/3 77/2/3 76/2/3
f 79/2/3 77/2/3 78/2/3
f 80/1/3 74/1/3 73/1/3
f 81/1/3 74/1/3 80/1/3
f 82/1/3 79/1/3 78/1/3
f 83/1/3 82/1/3 81/1/3
f 84/1/3 79/1/3 82/1/3
f 84/1/3 82/1/3 83/1/3
f 88/1/3 86/1/3 85/1/3
f 89/1/3 86/1/3 88/1/3
f 90/1/3 88/1/3 87/1/3
f 91/1/3 88/1/3 90/1/3
f 93/1/3 92/1/3 91/1/3
f 94/1/3 92/1/3 93/1/3
f 98/1/3 96/1/3 95/1/3
f 99/1/3 96/1/3 98/1/3
f 100/1/3 98/1/3 97/1/3
f 101/1/3 98/1/3 100/1/3
f 103/1/3 102/1/3 101/1/3
f 104/1/3 102/1/3 103/1/3
f 107/1/3 106/1/3 105/1/3
f 108/1/3 106/1/3 107/1/3
f 109/1/3 107/1/3 105/1/3
f 111/1/3 109/1/3 105/1/3
f 111/1/3 110/1/3 109/1/3
f 112/1/3 110/1/3 111/1/3
f 115/1/3 114/1/3 113/1/3
f 116/1/3 114/1/3 115/1/3
f 117/1/4 118/1/4 119/1/4
f 119/1/4 118/1/4 120/1/4
f 119/3/4 120/3/4 121/3/4
f 120/1/4 118/1/4 121/1/4
f 121/1/4 118/1/4 122/1/4
f 119/3/4 121/3/4 123/3/4
f 121/2/4 122/2/4 123/2/4
f 123/2/4 122/2/4 124/2/4
f 119/3/4 123/3/4 125/3/4
f 123/1/4 124/1/4 126/1/4
f 125/3/4 123/3/4 126/3/4
f 125/1/4 126/1/4 127/1/4
f 126/1/4 124/1/4 128/1/4
f 127/1/4 126/1/4 128/1/4
f 129/1/4 130/1/4 131/1/4
f 131/1/4 130/1/4 132/1/4
f 131/3/4 132/3/4 133/3/4
f 133/3/4 132/3/4 134/3/4
f 133/1/4 134/1/4 135/1/4
f 135/1/4 134/1/4 136/1/4
f 137/1/4 138/1/4 139/1/4
f 139/1/4 138/1/4 140/1/4
f 139/3/4 140/3/4 141/3/4
f 141/3/4 140/3/4 142/3/4
f 141/1/4 142/1/4 143/1/4
f 143/1/4 142/1/4 144/1/4
f 145/1/4 146/1/4 147/1/4
f 147/1/4 146/1/4 148/1/4
f 145/1/4 147/1/4 149/1/4
f 147/3/4 148/3/4 149/3/4
f 149/3/4 148/3/4 150/3/4
f 145/1/4 149/1/4 151/1/4
f 149/1/4 150/1/4 151/1/4
f 151/1/4 150/1/4 152/1/4
f 153/1/4 154/1/4 155/1/4
f 155/1/4 154/1/4 156/1/4
f 153/1/4 155/1/4 157/1/4
f 155/2/4 156/2/4 157/2/4
f 157/2/4 156/2/4 158/2/4
f 153/1/4 157/1/4 159/1/4
f 157/1/4 158/1/4 159/1/4
f 159/1/4 158/1/4 160/1/4
f 163/1/5 162/1/5 161/1/5
f 164/1/5 162/1/5 163/1/5
f 167/1/5 166/1/5 165/1/5
f 168/1/5 166/1/5 167/1/5
f 171/1/5 170/1/5 169/1/5
f 172/1/5 170/1/5 171/1/5
f 176/1/5 174/1/5 173/1/5
f 177/1/5 174/1/5 176/1/5
f 179/1/5 176/1/5 175/1/5
f 180/1/5 176/1/5 179/1/5
f 181/1/5 178/1/5 177/1/5
f 182/1/5 178/1/5 181/1/5
f 186/1/5 184/1/5 183/1/5
f 187/1/5 184/1/5 186/1/5
f 189/1/5 186/1/5 185/1/5
f 190/1/5 186/1/5 189/1/5
f 191/1/5 188/1/5 187/1/5
f 192/1/5 188/1/5 191/1/5
f 196/1/5 194/1/5 193/1/5
f 197/1/5 194/1/5 196/1/5
f 199/1/5 196/1/5 195/1/5
f 200/1/5 196/1/5 199/1/5
f 201/1/5 198/1/5 197/1/5
f 202/1/5 198/1/5 201/1/5
f 203/1/6 204/1/6 205/1/6
f 205/1/6 204/1/6 206/1/6
f 206/1/6 204/1/6 207/1/6
f 207/1/6 204/1/6 208/1/6
f 208/1/6 204/1/6 209/1/6
f 209/1/6 204/1/6 210/1/6
f 210/1/6 204/1/6 211/1/6
f 211/1/6 204/1/6 212/1/6
f 212/1/6 204/1/6 213/1/6
f 213/1/6 204/1/6 214/1/6
f 214/1/6 204/1/6 215/1/6
f 215/1/6 204/1/6 216/1/6
f 216/1/6 204/1/6 217/1/6
f 217/1/6 204/1/6 218/1/6
f 218/1/6 204/1/6 219/1/6
f 219/1/6 204/1/6 220/1/6
f 220/1/6 204/1/6 221/1/6
f 221/1/6 204/1/6 222/1/6
f 222/1/6 204/1/6 223/1/6
f 223/1/6 204/1/6 224/1/6
f 224/1/6 204/1/6 225/1/6
f 225/1/6 204/1/6 226/1/6
f 226/1/6 204/1/6 227/1/6
f 227/1/6 204/1/6 228/1/6
f 203/1/6 205/1/6 229/1/6
f 205/2/6 206/2/6 229/2/6
f 206/1/6 207/1/6 230/1/6
f 229/2/6 206/2/6 230/2/6
f 207/2/6 208/2/6 231/2/6
f 230/1/6 207/1/6 231/1/6
f 208/1/6 209/1/6 232/1/6
f 231/2/6 208/2/6 232/2/6
f 209/2/6 210/2/6 233/2/6
f 232/1/6 209/1/6 233/1/6
f 210/1/6 211/1/6 234/1/6
f 233/2/6 210/2/6 234/2/6
f 211/2/6 212/2/6 235/2/6
f 234/1/6 211/1/6 235/1/6
f 212/1/6 213/1/6 236/1/6
f 235/2/6 212/2/6 236/2/6
f 213/2/6 214/2/6 237/2/6
f 236/1/6 213/1/6 237/1/6
f 214/1/6 215/1/6 238/1/6
f 237/2/6 214/2/6 238/2/6
f 215/2/6 216/2/6 239/2/6
f 238/1/6 215/1/6 239/1/6
f 216/1/6 217/1/6 240/1/6
f 239/2/6 216/2/6 240/2/6
f 217/2/6 218/2/6 241/2/6
f 240/1/6 217/1/6 241/1/6
f 218/1/6 219/1/6 242/1/6
f 241/2/6 218/2/6 242/2/6
f 219/2/6 220/2/6 243/2/6
f 242/1/6 219/1/6 243/1/6
f 220/1/6 221/1/6 244/1/6
f 243/2/6 220/2/6 244/2/6
f 221/2/6 222/2/6 245/2/6
f 244/1/6 221/1/6 245/1/6
f 222/1/6 223/1/6 246/1/6
f 245/2/6 222/2/6 246/2/6
f 223/2/6 224/2/6 247/2/6
f 246/1/6 223/1/6 247/1/6
f 224/1/6 225/1/6 248/1/6
f 247/2/6 224/2/6 248/2/6
f 225/2/6 226/2/6 249/2/6
f 248/1/6 225/1/6 249/1/6
f 226/1/6 227/1/6 250/1/6
f 249/2/6 226/2/6 250/2/6
f 227/2/6 228/2/6 251/2/6
f 250/1/6 227/1/6 251/1/6
f 228/1/6 204/1/6 252/1/6
f 251/2/6 228/2/6 252/2/6
f 250/1/6 251/1/6 253/1/6
f 249/1/6 250/1/6 253/1/6
f 251/1/6 252/1/6 253/1/6
f 248/1/6 249/1/6 253/1/6
f 247/1/6 248/1/6 253/1/6
f 246/1/6 247/1/6 253/1/6
f 245/1/6 246/1/6 253/1/6
f 244/1/6 245/1/6 253/1/6
f 243/1/6 244/1/6 253/1/6
f 242/1/6 243/1/6 253/1/6
f 241/1/6 242/1/6 253/1/6
f 240/1/6 241/1/6 253/1/6
f 239/1/6 240/1/6 253/1/6
f 238/1/6 239/1/6 253/1/6
f 237/1/6 238/1/6 253/1/6
f 236/1/6 237/1/6 253/1/6
f 235/1/6 236/1/6 253/1/6
f 234/1/6 235/1/6 253/1/6
f 233/1/6 234/1/6 253/1/6
f 232/1/6 233/1/6 253/1/6
f 231/1/6 232/1/6 253/1/6
f 230/1/6 231/1/6 253/1/6
f 229/1/6 230/1/6 253/1/6
f 203/1/6 229/1/6 253/1/6
f 253/1/6 252/1/6 254/1/6
f 254/1/6 252/1/6 255/1/6
f 255/1/6 252/1/6 256/1/6
f 256/1/6 252/1/6 257/1/6
f 257/1/6 252/1/6 258/1/6
f 258/1/6 252/1/6 259/1/6
f 259/1/6 252/1/6 260/1/6
f 260/1/6 252/1/6 261/1/6
f 261/1/6 252/1/6 262/1/6
f 262/1/6 252/1/6 263/1/6
f 263/1/6 252/1/6 264/1/6
f 264/1/6 252/1/6 265/1/6
f 265/1/6 252/1/6 266/1/6
f 266/1/6 252/1/6 267/1/6
f 267/1/6 252/1/6 268/1/6
f 268/1/6 252/1/6 269/1/6
f 269/1/6 252/1/6 270/1/6
f 270/1/6 252/1/6 271/1/6
f 271/1/6 252/1/6 272/1/6
f 272/1/6 252/1/6 273/1/6
f 273/1/6 252/1/6 274/1/6
f 274/1/6 252/1/6 275/1/6
f 252/1/6 204/1/6 276/1/6
f 275/1/6 252/1/6 276/1/6
f 203/1/6 253/1/6 277/1/6
f 253/2/6 254/2/6 277/2/6
f 254/1/6 255/1/6 278/1/6
f 277/2/6 254/2/6 278/2/6
f 255/2/6 256/2/6 279/2/6
f 278/1/6 255/1/6 279/1/6
f 256/1/6 257/1/6 280/1/6
f 279/2/6 256/2/6 280/2/6
f 257/2/6 258/2/6 281/2/6
f 280/1/6 257/1/6 281/1/6
f 258/1/6 259/1/6 282/1/6
f 281/2/6 258/2/6 282/2/6
f 259/2/6 260/2/6 283/2/6
f 282/1/6 259/1/6 283/1/6
f 260/1/6 261/1/6 284/1/6
f 283/2/6 260/2/6 284/2/6
f 261/2/6 262/2/6 285/2/6
f 284/1/6 261/1/6 285/1/6
f 262/1/6 263/1/6 286/1/6
f 285/2/6 262/2/6 286/2/6
f 263/2/6 264/2/6 287/2/6
f 286/1/6 263/1/6 287/1/6
f 264/1/6 265/1/6 288/1/6
f 287/2/6 264/2/6 288/2/6
f 265/2/6 266/2/6 289/2/6
f 288/1/6 265/1/6 289/1/6
f 266/1/6 267/1/6 290/1/6
f 289/2/6 266/2/6 290/2/6
f 267/2/6 268/2/6 291/2/6
f 290/1/6 267/1/6 291/1/6
f 268/1/6 269/1/6 292/1/6
f 291/2/6 268/2/6 292/2/6
f 269/2/6 270/2/6 293/2/6
f 292/1/6 269/1/6 293/1/6
f 270/1/6 271/1/6 294/1/6
f 293/2/6 270/2/6 294/2/6
f 271/2/6 272/2/6 295/2/6
f 294/1/6 271/1/6 295/1/6
f 272/1/6 273/1/6 296/1/6
f 295/2/6 272/2/6 296/2/6
f 273/2/6 274/2/6 297/2/6
f 296/1/6 273/1/6 297/1/6
f 274/1/6 275/1/6 298/1/6
f 297/2/6 274/2/6 298/2/6
f 275/2/6 276/2/6 299/2/6
f 298/1/6 275/1/6 299/1/6
f 276/1/6 204/1/6 300/1/6
f 299/2/6 276/2/6 300/2/6
f 296/1/6 297/1/6 301/1/6
f 298/1/6 299/1/6 301/1/6
f 299/1/6 300/1/6 301/1/6
f 295/1/6 296/1/6 301/1/6
f 294/1/6 295/1/6 301/1/6
f 293/1/6 294/1/6 301/1/6
f 292/1/6 293/1/6 301/1/6
f 291/1/6 292/1/6 301/1/6
f 290/1/6 291/1/6 301/1/6
f 289/1/6 290/1/6 301/1/6
f 288/1/6 289/1/6 301/1/6
f 287/1/6 288/1/6 301/1/6
f 286/1/6 287/1/6 301/1/6
f 285/1/6 286/1/6 301/1/6
f 284/1/6 285/1/6 301/1/6
f 283/1/6 284/1/6 301/1/6
f 282/1/6 283/1/6 301/1/6
f 281/1/6 282/1/6 301/1/6
f 280/1/6 281/1/6 301/1/6
f 279/1/6 280/1/6 301/1/6
f 278/1/6 279/1/6 301/1/6
f 277/1/6 278/1/6 301/1/6
f 203/1/6 277/1/6 301/1/6
f 297/1/6 298/1/6 301/1/6
f 301/1/6 300/1/6 302/1/6
f 302/1/6 300/1/6 303/1/6
f 303/1/6 300/1/6 304/1/6
f 304/1/6 300/1/6 305/1/6
f 305/1/6 300/1/6 306/1/6
f 306/1/6 300/1/6 307/1/6
f 307/1/6 300/1/6 308/1/6
f 308/1/6 300/1/6 309/1/6
f 309/1/6 300/1/6 310/1/6
f 310/1/6 300/1/6 311/1/6
f 311/1/6 300/1/6 312/1/6
f 312/1/6 300/1/6 313/1/6
f 313/1/6 300/1/6 314/1/6
f 314/1/6 300/1/6 315/1/6
f 315/1/6 300/1/6 316/1/6
f 316/1/6 300/1/6 317/1/6
f 317/1/6 300/1/6 318/1/6
f 318/1/6 300/1/6 319/1/6
f 319/1/6 300/1/6 320/1/6
f 320/1/6 300/1/6 321/1/6
f 321/1/6 300/1/6 322/1/6
f 322/1/6 300/1/6 323/1/6
f 300/1/6 204/1/6 324/1/6
f 323/1/6 300/1/6 324/1/6
f 203/1/6 301/1/6 325/1/6
f 301/2/6 302/2/6 325/2/6
f 302/1/6 303/1/6 326/1/6
f 325/2/6 302/2/6 326/2/6
f 303/2/6 304/2/6 327/2/6
f 326/1/6 303/1/6 327/1/6
f 304/1/6 305/1/6 328/1/6
f 327/2/6 304/2/6 328/2/6
f 305/2/6 306/2/6 329/2/6
f 328/1/6 305/1/6 329/1/6
f 306/1/6 307/1/6 330/1/6
f 329/2/6 306/2/6 330/2/6
f 308/1/6 309/1/6 331/1/6
f 309/2/6 310/2/6 331/2/6
f 310/1/6 311/1/6 332/1/6
f 331/2/6 310/2/6 332/2/6
f 311/2/6 312/2/6 333/2/6
f 332/1/6 311/1/6 333/1/6
f 312/1/6 313/1/6 334/1/6
f 333/2/6 312/2/6 334/2/6
f 313/2/6 314/2/6 335/2/6
f 334/1/6 313/1/6 335/1/6
f 314/1/6 315/1/6 336/1/6
f 335/2/6 314/2/6 336/2/6
f 315/2/6 316/2/6 337/2/6
f 336/1/6 315/1/6 337/1/6
f 316/1/6 317/1/6 338/1/6
f 337/2/6 316/2/6 338/2/6
f 317/2/6 318/2/6 339/2/6
f 338/1/6 317/1/6 339/1/6
f 318/1/6 319/1/6 340/1/6
f 339/2/6 318/2/6 340/2/6
f 319/2/6 320/2/6 341/2/6
f 340/1/6 319/1/6 341/1/6
f 320/1/6 321/1/6 342/1/6
f 341/2/6 320/2/6 342/2/6
f 321/2/6 322/2/6 343/2/6
f 342/1/6 321/1/6 343/1/6
f 322/1/6 323/1/6 344/1/6
f 343/2/6 322/2/6 344/2/6
f 323/2/6 324/2/6 345/2/6
f 344/1/6 323/1/6 345/1/6
f 324/1/6 204/1/6 346/1/6
f 345/2/6 324/2/6 346/2/6
f 325/1/6 326/1/6 347/1/6
f 326/1/6 327/1/6 347/1/6
f 327/1/6 328/1/6 347/1/6
f 328/1/6 329/1/6 347/1/6
f 329/1/6 330/1/6 347/1/6
f 347/1/6 330/1/6 348/1/6
f 342/1/6 343/1/6 349/1/6
f 344/1/6 345/1/6 349/1/6
f 343/1/6 344/1/6 349/1/6
f 345/1/6 346/1/6 349/1/6
f 338/1/6 339/1/6 349/1/6
f 337/1/6 338/1/6 349/1/6
f 336/1/6 337/1/6 349/1/6
f 335/1/6 336/1/6 349/1/6
f 334/1/6 335/1/6 349/1/6
f 333/1/6 334/1/6 349/1/6
f 332/1/6 333/1/6 349/1/6
f 331/1/6 332/1/6 349/1/6
f 308/1/6 331/1/6 349/1/6
f 339/1/6 340/1/6 349/1/6
f 341/1/6 342/1/6 349/1/6
f 307/2/6 308/2/6 349/2/6
f 340/1/6 341/1/6 349/1/6
f 349/1/6 346/1/6 350/1/6
f 350/1/6 346/1/6 351/1/6
f 351/1/6 346/1/6 352/1/6
f 352/1/6 346/1/6 353/1/6
f 353/1/6 346/1/6 354/1/6
f 354/1/6 346/1/6 355/1/6
f 355/1/6 346/1/6 356/1/6
f 356/1/6 346/1/6 357/1/6
f 357/1/6 346/1/6 358/1/6
f 358/1/6 346/1/6 359/1/6
f 359/1/6 346/1/6 360/1/6
f 360/1/6 346/1/6 361/1/6
f 361/1/6 346/1/6 362/1/6
f 362/1/6 346/1/6 363/1/6
f 346/1/6 204/1/6 364/1/6
f 363/1/6 346/1/6 364/1/6
f 347/2/6 348/2/6 365/2/6
f 325/1/6 347/1/6 365/1/6
f 348/1/6 330/1/6 366/1/6
f 365/2/6 348/2/6 366/2/6
f 330/1/6 307/1/6 367/1/6
f 366/1/6 330/1/6 367/1/6
f 307/2/6 349/2/6 367/2/6
f 349/2/6 350/2/6 367/2/6
f 350/1/6 351/1/6 368/1/6
f 367/2/6 350/2/6 368/2/6
f 351/2/6 352/2/6 369/2/6
f 368/1/6 351/1/6 369/1/6
f 352/1/6 353/1/6 370/1/6
f 369/2/6 352/2/6 370/2/6
f 353/2/6 354/2/6 371/2/6
f 370/1/6 353/1/6 371/1/6
f 354/1/6 355/1/6 372/1/6
f 371/2/6 354/2/6 372/2/6
f 355/2/6 356/2/6 373/2/6
f 372/1/6 355/1/6 373/1/6
f 356/1/6 357/1/6 374/1/6
f 373/2/6 356/2/6 374/2/6
f 357/2/6 358/2/6 375/2/6
f 374/1/6 357/1/6 375/1/6
f 358/1/6 359/1/6 376/1/6
f 375/2/6 358/2/6 376/2/6
f 359/2/6 360/2/6 377/2/6
f 376/1/6 359/1/6 377/1/6
f 360/1/6 361/1/6 378/1/6
f 377/2/6 360/2/6 378/2/6
f 361/2/6 362/2/6 379/2/6
f 378/1/6 361/1/6 379/1/6
f 362/1/6 363/1/6 380/1/6
f 379/2/6 362/2/6 380/2/6
f 363/2/6 364/2/6 381/2/6
f 380/1/6 363/1/6 381/1/6
f 364/1/6 204/1/6 382/1/6
f 381/2/6 364/2/6 382/2/6
f 325/1/6 365/1/6 383/1/6
f 380/1/6 381/1/6 383/1/6
f 381/1/6 382/1/6 383/1/6
f 375/1/6 376/1/6 383/1/6
f 374/1/6 375/1/6 383/1/6
f 373/1/6 374/1/6 383/1/6
f 372/1/6 373/1/6 383/1/6
f 371/1/6 372/1/6 383/1/6
f 370/1/6 371/1/6 383/1/6
f 369/1/6 370/1/6 383/1/6
f 368/1/6 369/1/6 383/1/6
f 367/1/6 368/1/6 383/1/6
f 366/1/6 367/1/6 383/1/6
f 376/1/6 377/1/6 383/1/6
f 377/1/6 378/1/6 383/1/6
f 365/1/6 366/1/6 383/1/6
f 378/1/6 379/1/6 383/1/6
f 203/1/6 325/1/6 383/1/6
f 379/1/6 380/1/6 383/1/6
f 383/1/6 382/1/6 384/1/6
f 384/1/6 382/1/6 385/1/6
f 385/1/6 382/1/6 386/1/6
f 386/1/6 382/1/6 387/1/6
f 387/1/6 382/1/6 388/1/6
f 388/1/6 382/1/6 389/1/6
f 389/1/6 382/1/6 390/1/6
f 390/1/6 382/1/6 391/1/6
f 391/1/6 382/1/6 392/1/6
f 392/1/6 382/1/6 393/1/6
f 393/1/6 382/1/6 394/1/6
f 394/1/6 382/1/6 395/1/6
f 395/1/6 382/1/6 396/1/6
f 396/1/6 382/1/6 397/1/6
f 397/1/6 382/1/6 398/1/6
f 398/1/6 382/1/6 399/1/6
f 399/1/6 382/1/6 400/1/6
f 400/1/6 382/1/6 401/1/6
f 382/1/6 204/1/6 402/1/6
f 401/1/6 382/1/6 402/1/6
f 203/1/6 383/1/6 403/1/6
f 383/2/6 384/2/6 403/2/6
f 384/1/6 385/1/6 404/1/6
f 403/2/6 384/2/6 404/2/6
f 385/2/6 386/2/6 405/2/6
f 404/1/6 385/1/6 405/1/6
f 386/1/6 387/1/6 406/1/6
f 405/2/6 386/2/6 406/2/6
f 387/2/6 388/2/6 407/2/6
f 406/1/6 387/1/6 407/1/6
f 388/1/6 389/1/6 408/1/6
f 407/2/6 388/2/6 408/2/6
f 389/2/6 390/2/6 409/2/6
f 408/1/6 389/1/6 409/1/6
f 390/1/6 391/1/6 410/1/6
f 409/2/6 390/2/6 410/2/6
f 391/2/6 392/2/6 411/2/6
f 410/1/6 391/1/6 411/1/6
f 392/1/6 393/1/6 412/1/6
f 411/2/6 392/2/6 412/2/6
f 393/2/6 394/2/6 413/2/6
f 412/1/6 393/1/6 413/1/6
f 394/1/6 395/1/6 414/1/6
f 413/2/6 394/2/6 414/2/6
f 395/2/6 396/2/6 415/2/6
f 414/1/6 395/1/6 415/1/6
f 396/1/6 397/1/6 416/1/6
f 415/2/6 396/2/6 416/2/6
f 397/2/6 398/2/6 417/2/6
f 416/1/6 397/1/6 417/1/6
f 398/1/6 399/1/6 418/1/6
f 417/2/6 398/2/6 418/2/6
f 399/2/6 400/2/6 419/2/6
f 418/1/6 399/1/6 419/1/6
f 400/1/6 401/1/6 420/1/6
f 419/2/6 400/2/6 420/2/6
f 401/2/6 402/2/6 421/2/6
f 420/1/6 401/1/6 421/1/6
f 402/1/6 204/1/6 422/1/6
f 421/2/6 402/2/6 422/2/6
f 418/1/6 419/1/6 423/1/6
f 420/1/6 421/1/6 423/1/6
f 421/1/6 422/1/6 423/1/6
f 417/1/6 418/1/6 423/1/6
f 416/1/6 417/1/6 423/1/6
f 415/1/6 416/1/6 423/1/6
f 414/1/6 415/1/6 423/1/6
f 413/1/6 414/1/6 423/1/6
f 412/1/6 413/1/6 423/1/6
f 411/1/6 412/1/6 423/1/6
f 410/1/6 411/1/6 423/1/6
f 409/1/6 410/1/6 423/1/6
f 408/1/6 409/1/6 423/1/6
f 407/1/6 408/1/6 423/1/6
f 406/1/6 407/1/6 423/1/6
f 405/1/6 406/1/6 423/1/6
f 404/1/6 405/1/6 423/1/6
f 403/1/6 404/1/6 423/1/6
f 419/1/6 420/1/6 423/1/6
f 423/1/6 422/1/6 424/1/6
f 203/1/6 403/1/6 425/1/6
f 403/1/6 423/1/6 425/1/6
f 423/2/6 424/2/6 426/2/6
f 425/1/6 423/1/6 426/1/6
f 424/1/6 422/1/6 427/1/6
f 426/2/6 424/2/6 427/2/6
f 422/1/6 204/1/6 428/1/6
f 427/1/6 422/1/6 428/1/6
f 429/1/6 430/1/6 433/1/6
f 430/3/6 431/3/6 434/3/6
f 433/1/6 430/1/6 434/1/6
f 431/1/6 432/1/6 435/1/6
f 434/3/6 431/3/6 435/3/6
f 435/1/6 432/1/6 436/1/6
f 437/1/6 438/1/6 441/1/6
f 438/3/6 439/3/6 442/3/6
f 441/1/6 438/1/6 442/1/6
f 439/1/6 440/1/6 443/1/6
f 442/3/6 439/3/6 443/3/6
f 443/1/6 440/1/6 444/1/6
f 445/1/6 446/1/6 449/1/6
f 446/3/6 447/3/6 450/3/6
f 449/1/6 446/1/6 450/1/6
f 447/1/6 448/1/6 451/1/6
f 450/3/6 447/3/6 451/3/6
f 451/1/6 448/1/6 452/1/6
f 453/1/6 454/1/6 455/1/6
f 455/1/6 454/1/6 456/1/6
f 456/1/6 454/1/6 457/1/6
f 457/1/6 454/1/6 458/1/6
f 459/1/6 460/1/6 463/1/6
f 460/2/6 461/2/6 464/2/6
f 463/1/6 460/1/6 464/1/6
f 461/1/6 462/1/6 465/1/6
f 464/2/6 461/2/6 465/2/6
f 465/1/6 462/1/6 466/1/6
