# MagicaVoxel @ Ephtracy

# group
o Furniture_Old

# material
mtllib room-29-Furniture_Old.mtl
usemtl palette

# normals
vn -1 0 0
vn 1 0 0
vn 0 0 1
vn 0 0 -1
vn 0 -1 0
vn 0 1 0

# texcoords
vt 0.947266 0.5
vt 0.990234 0.5

# verts
v -2 1.5 0.5
v -2 1.5 -0.5
v -2 2.5 0.5
v -2 2.5 -0.5
v -2 2.6 0.5
v -2 2.6 -0.5
v 1.9 1.6 0.5
v 1.9 1.6 -0.5
v 1.9 2.5 0.5
v 1.9 2.5 -0.5
v -1.9 1.6 0.5
v -1.9 1.6 -0.5
v -1.9 2.5 0.5
v -1.9 2.5 -0.5
v 2 1.5 0.5
v 2 1.5 -0.5
v 2 2.5 0.5
v 2 2.5 -0.5
v 2 2.6 0.5
v 2 2.6 -0.5
v -2 1.5 0.5
v -2 2.5 0.5
v -2 2.6 0.5
v -1.9 1.5 0.5
v -1.9 1.6 0.5
v -1.9 2.5 0.5
v 1.9 1.5 0.5
v 1.9 1.6 0.5
v 1.9 2.5 0.5
v 2 1.5 0.5
v 2 2.5 0.5
v 2 2.6 0.5
v -2 1.5 -0.5
v -2 2.5 -0.5
v -2 2.6 -0.5
v -1.9 1.5 -0.5
v -1.9 1.6 -0.5
v -1.9 2.5 -0.5
v 1.9 1.5 -0.5
v 1.9 1.6 -0.5
v 1.9 2.5 -0.5
v 2 1.5 -0.5
v 2 2.5 -0.5
v 2 2.6 -0.5
v -2 1.5 0.5
v -1.9 1.5 0.5
v 1.9 1.5 0.5
v 2 1.5 0.5
v -2 1.5 -0.5
v -1.9 1.5 -0.5
v 1.9 1.5 -0.5
v 2 1.5 -0.5
v -1.9 2.5 0.5
v 1.9 2.5 0.5
v -1.9 2.5 -0.5
v 1.9 2.5 -0.5
v -1.9 1.6 0.5
v 1.9 1.6 0.5
v -1.9 1.6 -0.5
v 1.9 1.6 -0.5
v -2 2.6 0.5
v 2 2.6 0.5
v -2 2.6 -0.5
v 2 2.6 -0.5

# faces
f 3/2/1 2/2/1 1/2/1
f 4/2/1 2/2/1 3/2/1
f 5/1/1 4/1/1 3/1/1
f 6/1/1 4/1/1 5/1/1
f 9/2/1 8/2/1 7/2/1
f 10/2/1 8/2/1 9/2/1
f 11/2/2 12/2/2 13/2/2
f 13/2/2 12/2/2 14/2/2
f 15/2/2 16/2/2 17/2/2
f 17/2/2 16/2/2 18/2/2
f 17/1/2 18/1/2 19/1/2
f 19/1/2 18/1/2 20/1/2
f 24/2/3 22/2/3 21/2/3
f 25/2/3 22/2/3 24/2/3
f 26/1/3 23/1/3 22/1/3
f 26/2/3 22/2/3 25/2/3
f 27/1/3 25/1/3 24/1/3
f 28/1/3 25/1/3 27/1/3
f 29/1/3 23/1/3 26/1/3
f 30/2/3 28/2/3 27/2/3
f 30/2/3 29/2/3 28/2/3
f 31/1/3 23/1/3 29/1/3
f 31/2/3 29/2/3 30/2/3
f 32/1/3 23/1/3 31/1/3
f 33/2/4 34/2/4 36/2/4
f 36/2/4 34/2/4 37/2/4
f 34/1/4 35/1/4 38/1/4
f 37/2/4 34/2/4 38/2/4
f 36/1/4 37/1/4 39/1/4
f 39/1/4 37/1/4 40/1/4
f 38/1/4 35/1/4 41/1/4
f 39/2/4 40/2/4 42/2/4
f 40/2/4 41/2/4 42/2/4
f 41/1/4 35/1/4 43/1/4
f 42/2/4 41/2/4 43/2/4
f 43/1/4 35/1/4 44/1/4
f 49/2/5 46/2/5 45/2/5
f 50/1/5 47/1/5 46/1/5
f 50/2/5 46/2/5 49/2/5
f 51/2/5 48/2/5 47/2/5
f 51/1/5 47/1/5 50/1/5
f 52/2/5 48/2/5 51/2/5
f 55/1/5 54/1/5 53/1/5
f 56/1/5 54/1/5 55/1/5
f 57/1/6 58/1/6 59/1/6
f 59/1/6 58/1/6 60/1/6
f 61/1/6 62/1/6 63/1/6
f 63/1/6 62/1/6 64/1/6
