# MagicaVoxel @ Ephtracy

# group
o Microfones

# material
mtllib room-3-Microfones.mtl
usemtl palette

# normals
vn -1 0 0
vn 1 0 0
vn 0 0 1
vn 0 0 -1
vn 0 -1 0
vn 0 1 0

# texcoords
vt 0.0136719 0.5
vt 0.0214844 0.5

# verts
v -0.5 1.1 0.1
v -0.5 1.1 -0.2
v -0.5 1.2 0.1
v -0.5 1.2 -0.2
v -0.4 1.1 0.3
v -0.4 1.1 0.1
v -0.4 1.1 -0.2
v -0.4 1.1 -0.4
v -0.4 1.2 0.3
v -0.4 1.2 0.1
v -0.4 1.2 -0.2
v -0.4 1.2 -0.4
v -0.3 1.2 0.1
v -0.3 1.2 -0.2
v -0.3 1.3 0.1
v -0.3 1.3 -0.2
v -0.3 1.8 0.1
v -0.3 1.8 -0.2
v -0.3 2.3 0.1
v -0.3 2.3 -0.2
v -0.3 2.8 0.1
v -0.3 2.8 -0.2
v -0.2 1.1 0.4
v -0.2 1.1 0.3
v -0.2 1.1 -0.4
v -0.2 1.1 -0.5
v -0.2 1.2 0.4
v -0.2 1.2 0.3
v -0.2 1.2 0.2
v -0.2 1.2 0.1
v -0.2 1.2 -0.2
v -0.2 1.2 -0.3
v -0.2 1.2 -0.4
v -0.2 1.2 -0.5
v -0.2 1.3 0.2
v -0.2 1.3 0.1
v -0.2 1.3 -0.2
v -0.2 1.3 -0.3
v -0.2 1.8 0.2
v -0.2 1.8 0.1
v -0.2 1.8 -0.2
v -0.2 1.8 -0.3
v -0.2 2.3 0.2
v -0.2 2.3 0.1
v -0.2 2.3 -0.2
v -0.2 2.3 -0.3
v -0.2 2.8 0.2
v -0.2 2.8 0.1
v -0.2 2.8 -0.2
v -0.2 2.8 -0.3
v -0.2 2.9 0.1
v -0.2 2.9 -0.2
v -0.1 1.3 0
v -0.1 1.3 -0.1
v -0.1 1.8 0
v -0.1 1.8 -0.1
v 0 1.3 0.1
v 0 1.3 0
v 0 1.3 -0.1
v 0 1.3 -0.2
v 0 1.8 0.1
v 0 1.8 0
v 0 1.8 -0.1
v 0 1.8 -0.2
v 0.1 1.3 0.1
v 0.1 1.3 0
v 0.1 1.3 -0.1
v 0.1 1.3 -0.2
v 0.1 1.8 0.1
v 0.1 1.8 0
v 0.1 1.8 -0.1
v 0.1 1.8 -0.2
v 0.2 1.3 0
v 0.2 1.3 -0.1
v 0.2 1.8 0
v 0.2 1.8 -0.1
v 0.3 1.1 0.4
v 0.3 1.1 0.3
v 0.3 1.1 -0.4
v 0.3 1.1 -0.5
v 0.3 1.2 0.4
v 0.3 1.2 0.3
v 0.3 1.2 0.2
v 0.3 1.2 0.1
v 0.3 1.2 -0.2
v 0.3 1.2 -0.3
v 0.3 1.2 -0.4
v 0.3 1.2 -0.5
v 0.3 1.3 0.2
v 0.3 1.3 0.1
v 0.3 1.3 -0.2
v 0.3 1.3 -0.3
v 0.3 1.8 0.2
v 0.3 1.8 0.1
v 0.3 1.8 -0.2
v 0.3 1.8 -0.3
v 0.3 2.3 0.2
v 0.3 2.3 0.1
v 0.3 2.3 -0.2
v 0.3 2.3 -0.3
v 0.3 2.8 0.2
v 0.3 2.8 0.1
v 0.3 2.8 -0.2
v 0.3 2.8 -0.3
v 0.3 2.9 0.1
v 0.3 2.9 -0.2
v 0.4 1.2 0.1
v 0.4 1.2 -0.2
v 0.4 1.3 0.1
v 0.4 1.3 -0.2
v 0.4 1.8 0.1
v 0.4 1.8 -0.2
v 0.4 2.3 0.1
v 0.4 2.3 -0.2
v 0.4 2.8 0.1
v 0.4 2.8 -0.2
v 0.5 1.1 0.3
v 0.5 1.1 0.1
v 0.5 1.1 -0.2
v 0.5 1.1 -0.4
v 0.5 1.2 0.3
v 0.5 1.2 0.1
v 0.5 1.2 -0.2
v 0.5 1.2 -0.4
v 0.6 1.1 0.1
v 0.6 1.1 -0.2
v 0.6 1.2 0.1
v 0.6 1.2 -0.2
v -0.2 1.1 0.4
v -0.2 1.2 0.4
v 0.3 1.1 0.4
v 0.3 1.2 0.4
v -0.4 1.1 0.3
v -0.4 1.2 0.3
v -0.2 1.1 0.3
v -0.2 1.2 0.3
v 0.3 1.1 0.3
v 0.3 1.2 0.3
v 0.5 1.1 0.3
v 0.5 1.2 0.3
v -0.2 1.2 0.2
v -0.2 1.3 0.2
v -0.2 1.8 0.2
v -0.2 2.3 0.2
v -0.2 2.8 0.2
v 0 2.3 0.2
v 0 2.8 0.2
v 0.1 2.3 0.2
v 0.1 2.8 0.2
v 0.3 1.2 0.2
v 0.3 1.3 0.2
v 0.3 1.8 0.2
v 0.3 2.3 0.2
v 0.3 2.8 0.2
v -0.5 1.1 0.1
v -0.5 1.2 0.1
v -0.4 1.1 0.1
v -0.4 1.2 0.1
v -0.3 1.2 0.1
v -0.3 1.3 0.1
v -0.3 1.8 0.1
v -0.3 2.3 0.1
v -0.3 2.8 0.1
v -0.2 1.2 0.1
v -0.2 1.3 0.1
v -0.2 1.8 0.1
v -0.2 2.3 0.1
v -0.2 2.8 0.1
v -0.2 2.9 0.1
v 0 1.3 0.1
v 0 1.8 0.1
v 0 2.8 0.1
v 0 2.9 0.1
v 0.1 1.3 0.1
v 0.1 1.8 0.1
v 0.1 2.8 0.1
v 0.1 2.9 0.1
v 0.3 1.2 0.1
v 0.3 1.3 0.1
v 0.3 1.8 0.1
v 0.3 2.3 0.1
v 0.3 2.8 0.1
v 0.3 2.9 0.1
v 0.4 1.2 0.1
v 0.4 1.3 0.1
v 0.4 1.8 0.1
v 0.4 2.3 0.1
v 0.4 2.8 0.1
v 0.5 1.1 0.1
v 0.5 1.2 0.1
v 0.6 1.1 0.1
v 0.6 1.2 0.1
v -0.1 1.3 0
v -0.1 1.8 0
v 0 1.3 0
v 0 1.8 0
v 0.1 1.3 0
v 0.1 1.8 0
v 0.2 1.3 0
v 0.2 1.8 0
v -0.1 1.3 -0.1
v -0.1 1.8 -0.1
v 0 1.3 -0.1
v 0 1.8 -0.1
v 0.1 1.3 -0.1
v 0.1 1.8 -0.1
v 0.2 1.3 -0.1
v 0.2 1.8 -0.1
v -0.5 1.1 -0.2
v -0.5 1.2 -0.2
v -0.4 1.1 -0.2
v -0.4 1.2 -0.2
v -0.3 1.2 -0.2
v -0.3 1.3 -0.2
v -0.3 1.8 -0.2
v -0.3 2.3 -0.2
v -0.3 2.8 -0.2
v -0.2 1.2 -0.2
v -0.2 1.3 -0.2
v -0.2 1.8 -0.2
v -0.2 2.3 -0.2
v -0.2 2.8 -0.2
v -0.2 2.9 -0.2
v 0 1.3 -0.2
v 0 1.8 -0.2
v 0 2.8 -0.2
v 0 2.9 -0.2
v 0.1 1.3 -0.2
v 0.1 1.8 -0.2
v 0.1 2.8 -0.2
v 0.1 2.9 -0.2
v 0.3 1.2 -0.2
v 0.3 1.3 -0.2
v 0.3 1.8 -0.2
v 0.3 2.3 -0.2
v 0.3 2.8 -0.2
v 0.3 2.9 -0.2
v 0.4 1.2 -0.2
v 0.4 1.3 -0.2
v 0.4 1.8 -0.2
v 0.4 2.3 -0.2
v 0.4 2.8 -0.2
v 0.5 1.1 -0.2
v 0.5 1.2 -0.2
v 0.6 1.1 -0.2
v 0.6 1.2 -0.2
v -0.2 1.2 -0.3
v -0.2 1.3 -0.3
v -0.2 1.8 -0.3
v -0.2 2.3 -0.3
v -0.2 2.8 -0.3
v 0 2.3 -0.3
v 0 2.8 -0.3
v 0.1 2.3 -0.3
v 0.1 2.8 -0.3
v 0.3 1.2 -0.3
v 0.3 1.3 -0.3
v 0.3 1.8 -0.3
v 0.3 2.3 -0.3
v 0.3 2.8 -0.3
v -0.4 1.1 -0.4
v -0.4 1.2 -0.4
v -0.2 1.1 -0.4
v -0.2 1.2 -0.4
v 0.3 1.1 -0.4
v 0.3 1.2 -0.4
v 0.5 1.1 -0.4
v 0.5 1.2 -0.4
v -0.2 1.1 -0.5
v -0.2 1.2 -0.5
v 0.3 1.1 -0.5
v 0.3 1.2 -0.5
v -0.2 1.1 0.4
v 0.3 1.1 0.4
v -0.4 1.1 0.3
v -0.2 1.1 0.3
v 0.3 1.1 0.3
v 0.5 1.1 0.3
v -0.5 1.1 0.1
v -0.4 1.1 0.1
v 0.5 1.1 0.1
v 0.6 1.1 0.1
v -0.5 1.1 -0.2
v -0.4 1.1 -0.2
v 0.5 1.1 -0.2
v 0.6 1.1 -0.2
v -0.4 1.1 -0.4
v -0.2 1.1 -0.4
v 0.3 1.1 -0.4
v 0.5 1.1 -0.4
v -0.2 1.1 -0.5
v 0.3 1.1 -0.5
v -0.2 1.8 0.2
v 0.3 1.8 0.2
v -0.3 1.8 0.1
v -0.2 1.8 0.1
v 0 1.8 0.1
v 0.1 1.8 0.1
v 0.3 1.8 0.1
v 0.4 1.8 0.1
v -0.1 1.8 0
v 0 1.8 0
v 0.1 1.8 0
v 0.2 1.8 0
v -0.1 1.8 -0.1
v 0 1.8 -0.1
v 0.1 1.8 -0.1
v 0.2 1.8 -0.1
v -0.3 1.8 -0.2
v -0.2 1.8 -0.2
v 0 1.8 -0.2
v 0.1 1.8 -0.2
v 0.3 1.8 -0.2
v 0.4 1.8 -0.2
v -0.2 1.8 -0.3
v 0.3 1.8 -0.3
v -0.2 1.2 0.4
v 0.3 1.2 0.4
v -0.4 1.2 0.3
v -0.2 1.2 0.3
v 0.3 1.2 0.3
v 0.5 1.2 0.3
v -0.2 1.2 0.2
v 0.3 1.2 0.2
v -0.5 1.2 0.1
v -0.4 1.2 0.1
v -0.3 1.2 0.1
v -0.2 1.2 0.1
v 0.3 1.2 0.1
v 0.4 1.2 0.1
v 0.5 1.2 0.1
v 0.6 1.2 0.1
v -0.5 1.2 -0.2
v -0.4 1.2 -0.2
v -0.3 1.2 -0.2
v -0.2 1.2 -0.2
v 0.3 1.2 -0.2
v 0.4 1.2 -0.2
v 0.5 1.2 -0.2
v 0.6 1.2 -0.2
v -0.2 1.2 -0.3
v 0.3 1.2 -0.3
v -0.4 1.2 -0.4
v -0.2 1.2 -0.4
v 0.3 1.2 -0.4
v 0.5 1.2 -0.4
v -0.2 1.2 -0.5
v 0.3 1.2 -0.5
v -0.2 1.3 0.2
v 0.3 1.3 0.2
v -0.3 1.3 0.1
v -0.2 1.3 0.1
v 0 1.3 0.1
v 0.1 1.3 0.1
v 0.3 1.3 0.1
v 0.4 1.3 0.1
v -0.1 1.3 0
v 0 1.3 0
v 0.1 1.3 0
v 0.2 1.3 0
v -0.1 1.3 -0.1
v 0 1.3 -0.1
v 0.1 1.3 -0.1
v 0.2 1.3 -0.1
v -0.3 1.3 -0.2
v -0.2 1.3 -0.2
v 0 1.3 -0.2
v 0.1 1.3 -0.2
v 0.3 1.3 -0.2
v 0.4 1.3 -0.2
v -0.2 1.3 -0.3
v 0.3 1.3 -0.3
v -0.2 2.8 0.2
v 0 2.8 0.2
v 0.1 2.8 0.2
v 0.3 2.8 0.2
v -0.3 2.8 0.1
v -0.2 2.8 0.1
v 0 2.8 0.1
v 0.1 2.8 0.1
v 0.3 2.8 0.1
v 0.4 2.8 0.1
v -0.3 2.8 -0.2
v -0.2 2.8 -0.2
v 0 2.8 -0.2
v 0.1 2.8 -0.2
v 0.3 2.8 -0.2
v 0.4 2.8 -0.2
v -0.2 2.8 -0.3
v 0 2.8 -0.3
v 0.1 2.8 -0.3
v 0.3 2.8 -0.3
v -0.2 2.9 0.1
v 0 2.9 0.1
v 0.1 2.9 0.1
v 0.3 2.9 0.1
v -0.2 2.9 -0.2
v 0 2.9 -0.2
v 0.1 2.9 -0.2
v 0.3 2.9 -0.2

# faces
f 3/2/1 2/2/1 1/2/1
f 4/2/1 2/2/1 3/2/1
f 9/2/1 6/2/1 5/2/1
f 10/2/1 6/2/1 9/2/1
f 11/2/1 8/2/1 7/2/1
f 12/2/1 8/2/1 11/2/1
f 15/2/1 14/2/1 13/2/1
f 16/2/1 14/2/1 15/2/1
f 19/2/1 18/2/1 17/2/1
f 20/2/1 18/2/1 19/2/1
f 21/1/1 20/1/1 19/1/1
f 22/1/1 20/1/1 21/1/1
f 27/2/1 24/2/1 23/2/1
f 28/2/1 24/2/1 27/2/1
f 33/2/1 26/2/1 25/2/1
f 34/2/1 26/2/1 33/2/1
f 35/2/1 30/2/1 29/2/1
f 36/2/1 30/2/1 35/2/1
f 37/2/1 32/2/1 31/2/1
f 38/2/1 32/2/1 37/2/1
f 43/2/1 40/2/1 39/2/1
f 44/2/1 40/2/1 43/2/1
f 45/2/1 42/2/1 41/2/1
f 46/2/1 42/2/1 45/2/1
f 47/1/1 44/1/1 43/1/1
f 48/1/1 44/1/1 47/1/1
f 49/1/1 46/1/1 45/1/1
f 50/1/1 46/1/1 49/1/1
f 51/1/1 49/1/1 48/1/1
f 52/1/1 49/1/1 51/1/1
f 55/2/1 54/2/1 53/2/1
f 56/2/1 54/2/1 55/2/1
f 61/2/1 58/2/1 57/2/1
f 62/2/1 58/2/1 61/2/1
f 63/2/1 60/2/1 59/2/1
f 64/2/1 60/2/1 63/2/1
f 65/2/2 66/2/2 69/2/2
f 69/2/2 66/2/2 70/2/2
f 67/2/2 68/2/2 71/2/2
f 71/2/2 68/2/2 72/2/2
f 73/2/2 74/2/2 75/2/2
f 75/2/2 74/2/2 76/2/2
f 77/2/2 78/2/2 81/2/2
f 81/2/2 78/2/2 82/2/2
f 79/2/2 80/2/2 87/2/2
f 87/2/2 80/2/2 88/2/2
f 83/2/2 84/2/2 89/2/2
f 89/2/2 84/2/2 90/2/2
f 85/2/2 86/2/2 91/2/2
f 91/2/2 86/2/2 92/2/2
f 93/2/2 94/2/2 97/2/2
f 97/2/2 94/2/2 98/2/2
f 95/2/2 96/2/2 99/2/2
f 99/2/2 96/2/2 100/2/2
f 97/1/2 98/1/2 101/1/2
f 101/1/2 98/1/2 102/1/2
f 99/1/2 100/1/2 103/1/2
f 103/1/2 100/1/2 104/1/2
f 102/1/2 103/1/2 105/1/2
f 105/1/2 103/1/2 106/1/2
f 107/2/2 108/2/2 109/2/2
f 109/2/2 108/2/2 110/2/2
f 111/2/2 112/2/2 113/2/2
f 113/2/2 112/2/2 114/2/2
f 113/1/2 114/1/2 115/1/2
f 115/1/2 114/1/2 116/1/2
f 117/2/2 118/2/2 121/2/2
f 121/2/2 118/2/2 122/2/2
f 119/2/2 120/2/2 123/2/2
f 123/2/2 120/2/2 124/2/2
f 125/2/2 126/2/2 127/2/2
f 127/2/2 126/2/2 128/2/2
f 131/2/3 130/2/3 129/2/3
f 132/2/3 130/2/3 131/2/3
f 135/2/3 134/2/3 133/2/3
f 136/2/3 134/2/3 135/2/3
f 139/2/3 138/2/3 137/2/3
f 140/2/3 138/2/3 139/2/3
f 146/2/3 144/2/3 143/2/3
f 146/1/3 145/1/3 144/1/3
f 147/1/3 145/1/3 146/1/3
f 148/2/3 146/2/3 143/2/3
f 148/2/3 147/2/3 146/2/3
f 149/2/3 147/2/3 148/2/3
f 150/2/3 142/2/3 141/2/3
f 151/2/3 142/2/3 150/2/3
f 152/2/3 148/2/3 143/2/3
f 153/1/3 149/1/3 148/1/3
f 153/2/3 148/2/3 152/2/3
f 154/1/3 149/1/3 153/1/3
f 157/2/3 156/2/3 155/2/3
f 158/2/3 156/2/3 157/2/3
f 164/2/3 160/2/3 159/2/3
f 165/2/3 160/2/3 164/2/3
f 166/2/3 162/2/3 161/2/3
f 167/1/3 163/1/3 162/1/3
f 167/2/3 162/2/3 166/2/3
f 168/1/3 163/1/3 167/1/3
f 172/1/3 169/1/3 168/1/3
f 173/1/3 169/1/3 172/1/3
f 174/2/3 171/2/3 170/2/3
f 175/2/3 171/2/3 174/2/3
f 176/2/3 173/2/3 172/2/3
f 177/2/3 173/2/3 176/2/3
f 182/1/3 177/1/3 176/1/3
f 183/1/3 177/1/3 182/1/3
f 184/2/3 179/2/3 178/2/3
f 185/2/3 179/2/3 184/2/3
f 186/2/3 181/2/3 180/2/3
f 187/1/3 182/1/3 181/1/3
f 187/2/3 181/2/3 186/2/3
f 188/1/3 182/1/3 187/1/3
f 191/2/3 190/2/3 189/2/3
f 192/2/3 190/2/3 191/2/3
f 195/2/3 194/2/3 193/2/3
f 196/2/3 194/2/3 195/2/3
f 199/2/3 198/2/3 197/2/3
f 200/2/3 198/2/3 199/2/3
f 201/2/4 202/2/4 203/2/4
f 203/2/4 202/2/4 204/2/4
f 205/2/4 206/2/4 207/2/4
f 207/2/4 206/2/4 208/2/4
f 209/2/4 210/2/4 211/2/4
f 211/2/4 210/2/4 212/2/4
f 213/2/4 214/2/4 218/2/4
f 218/2/4 214/2/4 219/2/4
f 215/2/4 216/2/4 220/2/4
f 216/1/4 217/1/4 221/1/4
f 220/2/4 216/2/4 221/2/4
f 221/1/4 217/1/4 222/1/4
f 222/1/4 223/1/4 226/1/4
f 226/1/4 223/1/4 227/1/4
f 224/2/4 225/2/4 228/2/4
f 228/2/4 225/2/4 229/2/4
f 226/2/4 227/2/4 230/2/4
f 230/2/4 227/2/4 231/2/4
f 230/1/4 231/1/4 236/1/4
f 236/1/4 231/1/4 237/1/4
f 232/2/4 233/2/4 238/2/4
f 238/2/4 233/2/4 239/2/4
f 234/2/4 235/2/4 240/2/4
f 235/1/4 236/1/4 241/1/4
f 240/2/4 235/2/4 241/2/4
f 241/1/4 236/1/4 242/1/4
f 243/2/4 244/2/4 245/2/4
f 245/2/4 244/2/4 246/2/4
f 249/2/4 250/2/4 252/2/4
f 250/1/4 251/1/4 252/1/4
f 252/1/4 251/1/4 253/1/4
f 249/2/4 252/2/4 254/2/4
f 252/2/4 253/2/4 254/2/4
f 254/2/4 253/2/4 255/2/4
f 247/2/4 248/2/4 256/2/4
f 256/2/4 248/2/4 257/2/4
f 249/2/4 254/2/4 258/2/4
f 254/1/4 255/1/4 259/1/4
f 258/2/4 254/2/4 259/2/4
f 259/1/4 255/1/4 260/1/4
f 261/2/4 262/2/4 263/2/4
f 263/2/4 262/2/4 264/2/4
f 265/2/4 266/2/4 267/2/4
f 267/2/4 266/2/4 268/2/4
f 269/2/4 270/2/4 271/2/4
f 271/2/4 270/2/4 272/2/4
f 276/2/5 274/2/5 273/2/5
f 277/2/5 274/2/5 276/2/5
f 280/2/5 276/2/5 275/2/5
f 280/2/5 278/2/5 277/2/5
f 280/2/5 277/2/5 276/2/5
f 281/2/5 278/2/5 280/2/5
f 283/2/5 280/2/5 279/2/5
f 283/2/5 282/2/5 281/2/5
f 283/2/5 281/2/5 280/2/5
f 284/2/5 282/2/5 283/2/5
f 285/2/5 282/2/5 284/2/5
f 286/2/5 282/2/5 285/2/5
f 287/2/5 285/2/5 284/2/5
f 288/2/5 285/2/5 287/2/5
f 289/2/5 285/2/5 288/2/5
f 290/2/5 285/2/5 289/2/5
f 291/2/5 289/2/5 288/2/5
f 292/2/5 289/2/5 291/2/5
f 296/2/5 294/2/5 293/2/5
f 297/2/5 294/2/5 296/2/5
f 298/2/5 294/2/5 297/2/5
f 299/2/5 294/2/5 298/2/5
f 301/2/5 296/2/5 295/2/5
f 301/2/5 297/2/5 296/2/5
f 302/2/5 297/2/5 301/2/5
f 303/2/5 300/2/5 299/2/5
f 303/2/5 299/2/5 298/2/5
f 304/2/5 300/2/5 303/2/5
f 305/2/5 301/2/5 295/2/5
f 308/2/5 300/2/5 304/2/5
f 309/2/5 306/2/5 305/2/5
f 309/2/5 305/2/5 295/2/5
f 310/2/5 306/2/5 309/2/5
f 311/2/5 306/2/5 310/2/5
f 312/2/5 308/2/5 307/2/5
f 313/2/5 300/2/5 308/2/5
f 313/2/5 308/2/5 312/2/5
f 314/2/5 300/2/5 313/2/5
f 315/2/5 311/2/5 310/2/5
f 315/2/5 312/2/5 311/2/5
f 315/2/5 313/2/5 312/2/5
f 316/2/5 313/2/5 315/2/5
f 317/2/6 318/2/6 320/2/6
f 320/2/6 318/2/6 321/2/6
f 319/2/6 320/2/6 323/2/6
f 321/2/6 322/2/6 323/2/6
f 320/2/6 321/2/6 323/2/6
f 323/2/6 322/2/6 324/2/6
f 319/2/6 323/2/6 326/2/6
f 326/2/6 323/2/6 327/2/6
f 327/2/6 323/2/6 328/2/6
f 324/2/6 322/2/6 329/2/6
f 329/2/6 322/2/6 330/2/6
f 330/2/6 322/2/6 331/2/6
f 325/2/6 326/2/6 333/2/6
f 326/2/6 327/2/6 333/2/6
f 333/2/6 327/2/6 334/2/6
f 334/2/6 327/2/6 335/2/6
f 331/2/6 332/2/6 338/2/6
f 330/2/6 331/2/6 338/2/6
f 338/2/6 332/2/6 339/2/6
f 339/2/6 332/2/6 340/2/6
f 335/2/6 336/2/6 341/2/6
f 334/2/6 335/2/6 341/2/6
f 338/2/6 339/2/6 342/2/6
f 337/2/6 338/2/6 342/2/6
f 334/2/6 341/2/6 343/2/6
f 341/2/6 342/2/6 343/2/6
f 343/2/6 342/2/6 344/2/6
f 342/2/6 339/2/6 345/2/6
f 344/2/6 342/2/6 345/2/6
f 345/2/6 339/2/6 346/2/6
f 344/2/6 345/2/6 347/2/6
f 347/2/6 345/2/6 348/2/6
f 349/2/6 350/2/6 352/2/6
f 352/2/6 350/2/6 353/2/6
f 353/2/6 350/2/6 354/2/6
f 354/2/6 350/2/6 355/2/6
f 351/2/6 352/2/6 357/2/6
f 352/2/6 353/2/6 357/2/6
f 357/2/6 353/2/6 358/2/6
f 355/2/6 356/2/6 359/2/6
f 354/2/6 355/2/6 359/2/6
f 359/2/6 356/2/6 360/2/6
f 351/2/6 357/2/6 361/2/6
f 360/2/6 356/2/6 364/2/6
f 361/2/6 362/2/6 365/2/6
f 351/2/6 361/2/6 365/2/6
f 365/2/6 362/2/6 366/2/6
f 366/2/6 362/2/6 367/2/6
f 363/2/6 364/2/6 368/2/6
f 364/2/6 356/2/6 369/2/6
f 368/2/6 364/2/6 369/2/6
f 369/2/6 356/2/6 370/2/6
f 366/2/6 367/2/6 371/2/6
f 367/2/6 368/2/6 371/2/6
f 368/2/6 369/2/6 371/2/6
f 371/2/6 369/2/6 372/2/6
f 373/1/6 374/1/6 378/1/6
f 374/2/6 375/2/6 379/2/6
f 378/1/6 374/1/6 379/1/6
f 375/1/6 376/1/6 380/1/6
f 379/2/6 375/2/6 380/2/6
f 380/1/6 376/1/6 381/1/6
f 377/1/6 378/1/6 383/1/6
f 383/1/6 378/1/6 384/1/6
f 381/1/6 382/1/6 387/1/6
f 387/1/6 382/1/6 388/1/6
f 384/1/6 385/1/6 389/1/6
f 385/2/6 386/2/6 390/2/6
f 389/1/6 385/1/6 390/1/6
f 386/1/6 387/1/6 391/1/6
f 390/2/6 386/2/6 391/2/6
f 391/1/6 387/1/6 392/1/6
f 393/1/6 394/1/6 397/1/6
f 394/2/6 395/2/6 398/2/6
f 397/1/6 394/1/6 398/1/6
f 395/1/6 396/1/6 399/1/6
f 398/2/6 395/2/6 399/2/6
f 399/1/6 396/1/6 400/1/6
