# MagicaVoxel @ Ephtracy

# group
o Guitars

# material
mtllib room-4-Guitars.mtl
usemtl palette

# normals
vn -1 0 0
vn 1 0 0
vn 0 0 1
vn 0 0 -1
vn 0 -1 0
vn 0 1 0

# texcoords
vt 0.0136719 0.5
vt 0.228516 0.5
vt 0.232422 0.5
vt 0.244141 0.5
vt 0.248047 0.5

# verts
v -0.6 0.3 0.2
v -0.6 0.3 -0.2
v -0.6 0.8 0.2
v -0.6 0.8 -0.2
v -0.5 0.1 0.2
v -0.5 0.1 -0.2
v -0.5 0.3 0.2
v -0.5 0.3 -0.2
v -0.5 0.8 0.2
v -0.5 0.8 -0.2
v -0.5 1.1 0.2
v -0.5 1.1 -0.2
v -0.5 1.3 0.2
v -0.5 1.3 -0.2
v -0.5 1.8 0.2
v -0.5 1.8 -0.2
v -0.4 1.1 0.2
v -0.4 1.1 -0.2
v -0.4 1.3 0.2
v -0.4 1.3 -0.2
v -0.4 1.8 0.2
v -0.4 1.8 -0.2
v -0.4 1.9 0.2
v -0.4 1.9 -0.2
v -0.3 0 0.2
v -0.3 0 -0.2
v -0.3 0.1 0.2
v -0.3 0.1 0.1
v -0.3 0.1 -0.1
v -0.3 0.1 -0.2
v -0.2 0.5 -0.2
v -0.2 0.5 -0.3
v -0.2 0.6 -0.2
v -0.2 0.6 -0.3
v -0.2 1.9 0.2
v -0.2 1.9 -0.2
v -0.2 2 0.2
v -0.2 2 -0.2
v -0.2 3.5 -0.1
v -0.2 3.5 -0.2
v -0.2 3.6 -0.1
v -0.2 3.6 -0.2
v -0.2 3.8 0
v -0.2 3.8 -0.1
v -0.2 3.9 0
v -0.2 3.9 -0.1
v -0.1 1.2 -0.2
v -0.1 1.2 -0.3
v -0.1 2 -0.1
v -0.1 2 -0.2
v -0.1 2.1 -0.1
v -0.1 2.1 -0.2
v -0.1 3.3 -0.1
v -0.1 3.3 -0.2
v -0.1 3.4 -0.2
v -0.1 3.4 -0.3
v -0.1 3.5 0
v -0.1 3.5 -0.1
v -0.1 3.5 -0.2
v -0.1 3.5 -0.3
v -0.1 3.6 -0.1
v -0.1 3.6 -0.2
v -0.1 3.7 0.1
v -0.1 3.7 0
v -0.1 3.7 -0.1
v -0.1 3.7 -0.2
v -0.1 3.8 0
v -0.1 3.8 -0.1
v -0.1 3.9 0.1
v -0.1 3.9 0
v -5.96046e-008 2 0.1
v -5.96046e-008 2 -0.1
v -5.96046e-008 2.1 0.1
v -5.96046e-008 2.1 -0.1
v -5.96046e-008 2.1 -0.2
v -5.96046e-008 3.3 -0.1
v -5.96046e-008 3.3 -0.2
v -5.96046e-008 3.9 0.1
v -5.96046e-008 3.9 0
v -5.96046e-008 4 0.1
v -5.96046e-008 4 0
v 0.2 0.9 -0.1
v 0.2 0.9 -0.2
v 0.2 1.2 -0.1
v 0.2 1.2 -0.2
v 0.3 0.8 0
v 0.3 0.8 -0.1
v 0.3 1.3 0
v 0.3 1.3 -0.1
v -0.2 0.8 0
v -0.2 0.8 -0.1
v -0.2 1.3 0
v -0.2 1.3 -0.1
v -0.1 0.9 -0.1
v -0.1 0.9 -0.2
v -0.1 1.2 -0.1
v -0.1 1.2 -0.2
v 0.1 2 0.1
v 0.1 2 -0.1
v 0.1 2.1 0.1
v 0.1 2.1 -0.1
v 0.1 2.1 -0.2
v 0.1 3.3 -0.1
v 0.1 3.3 -0.2
v 0.1 3.9 0.1
v 0.1 3.9 0
v 0.1 4 0.1
v 0.1 4 0
v 0.2 1.2 -0.2
v 0.2 1.2 -0.3
v 0.2 2 -0.1
v 0.2 2 -0.2
v 0.2 2.1 -0.1
v 0.2 2.1 -0.2
v 0.2 3.3 -0.1
v 0.2 3.3 -0.2
v 0.2 3.4 -0.2
v 0.2 3.4 -0.3
v 0.2 3.5 0
v 0.2 3.5 -0.1
v 0.2 3.5 -0.2
v 0.2 3.5 -0.3
v 0.2 3.6 -0.1
v 0.2 3.6 -0.2
v 0.2 3.7 0.1
v 0.2 3.7 0
v 0.2 3.7 -0.1
v 0.2 3.7 -0.2
v 0.2 3.8 0
v 0.2 3.8 -0.1
v 0.2 3.9 0.1
v 0.2 3.9 0
v 0.3 0.5 -0.2
v 0.3 0.5 -0.3
v 0.3 0.6 -0.2
v 0.3 0.6 -0.3
v 0.3 1.9 0.2
v 0.3 1.9 -0.2
v 0.3 2 0.2
v 0.3 2 -0.2
v 0.3 3.5 -0.1
v 0.3 3.5 -0.2
v 0.3 3.6 -0.1
v 0.3 3.6 -0.2
v 0.3 3.8 0
v 0.3 3.8 -0.1
v 0.3 3.9 0
v 0.3 3.9 -0.1
v 0.4 0 0.2
v 0.4 0 -0.2
v 0.4 0.1 0.2
v 0.4 0.1 -0.2
v 0.5 1.1 0.2
v 0.5 1.1 -0.2
v 0.5 1.3 0.2
v 0.5 1.3 -0.2
v 0.5 1.8 0.2
v 0.5 1.8 -0.2
v 0.5 1.9 0.2
v 0.5 1.9 -0.2
v 0.6 0.1 0.2
v 0.6 0.1 -0.2
v 0.6 0.3 0.2
v 0.6 0.3 -0.2
v 0.6 0.8 0.2
v 0.6 0.8 -0.2
v 0.6 1.1 0.2
v 0.6 1.1 -0.2
v 0.6 1.3 0.2
v 0.6 1.3 -0.2
v 0.6 1.8 0.2
v 0.6 1.8 -0.2
v 0.7 0.3 0.2
v 0.7 0.3 -0.2
v 0.7 0.8 0.2
v 0.7 0.8 -0.2
v -0.6 0.3 0.2
v -0.6 0.8 0.2
v -0.5 0.1 0.2
v -0.5 0.3 0.2
v -0.5 0.8 0.2
v -0.5 1.1 0.2
v -0.5 1.3 0.2
v -0.5 1.8 0.2
v -0.4 1.1 0.2
v -0.4 1.3 0.2
v -0.4 1.8 0.2
v -0.4 1.9 0.2
v -0.3 0 0.2
v -0.3 0.1 0.2
v -0.2 1.9 0.2
v -0.2 2 0.2
v 0.3 1.9 0.2
v 0.3 2 0.2
v 0.4 0 0.2
v 0.4 0.1 0.2
v 0.5 1.1 0.2
v 0.5 1.3 0.2
v 0.5 1.8 0.2
v 0.5 1.9 0.2
v 0.6 0.1 0.2
v 0.6 0.3 0.2
v 0.6 0.8 0.2
v 0.6 1.1 0.2
v 0.6 1.3 0.2
v 0.6 1.8 0.2
v 0.7 0.3 0.2
v 0.7 0.8 0.2
v -0.1 3.7 0.1
v -0.1 3.9 0.1
v -5.96046e-008 2 0.1
v -5.96046e-008 2.1 0.1
v -5.96046e-008 3.9 0.1
v -5.96046e-008 4 0.1
v 0.1 2 0.1
v 0.1 2.1 0.1
v 0.1 3.9 0.1
v 0.1 4 0.1
v 0.2 3.7 0.1
v 0.2 3.9 0.1
v -0.2 3.8 0
v -0.2 3.9 0
v -0.1 3.5 0
v -0.1 3.7 0
v -0.1 3.8 0
v -0.1 3.9 0
v 0.2 3.5 0
v 0.2 3.7 0
v 0.2 3.8 0
v 0.2 3.9 0
v 0.3 3.8 0
v 0.3 3.9 0
v -0.2 0.8 -0.1
v -0.2 1.3 -0.1
v -0.2 3.5 -0.1
v -0.2 3.6 -0.1
v -0.1 0.9 -0.1
v -0.1 1.2 -0.1
v -0.1 2 -0.1
v -0.1 2.1 -0.1
v -0.1 3.3 -0.1
v -0.1 3.5 -0.1
v -0.1 3.6 -0.1
v -5.96046e-008 2 -0.1
v -5.96046e-008 2.1 -0.1
v -5.96046e-008 3.3 -0.1
v -5.96046e-008 3.4 -0.1
v 0.1 2 -0.1
v 0.1 2.1 -0.1
v 0.1 3.3 -0.1
v 0.1 3.4 -0.1
v 0.2 0.9 -0.1
v 0.2 1.2 -0.1
v 0.2 2 -0.1
v 0.2 2.1 -0.1
v 0.2 3.3 -0.1
v 0.2 3.5 -0.1
v 0.2 3.6 -0.1
v 0.3 0.8 -0.1
v 0.3 1.3 -0.1
v 0.3 3.5 -0.1
v 0.3 3.6 -0.1
v -0.1 2.1 -0.2
v -0.1 3.3 -0.2
v -5.96046e-008 2.1 -0.2
v -5.96046e-008 3.3 -0.2
v 0.1 2.1 -0.2
v 0.1 3.3 -0.2
v 0.2 2.1 -0.2
v 0.2 3.3 -0.2
v -0.2 0.8 0
v -0.2 1.3 0
v -5.96046e-008 3.9 0
v -5.96046e-008 4 0
v 0.1 3.9 0
v 0.1 4 0
v 0.3 0.8 0
v 0.3 1.3 0
v -0.2 3.8 -0.1
v -0.2 3.9 -0.1
v -0.1 3.7 -0.1
v -0.1 3.8 -0.1
v -0.1 3.9 -0.1
v 0.2 3.7 -0.1
v 0.2 3.8 -0.1
v 0.2 3.9 -0.1
v 0.3 3.8 -0.1
v 0.3 3.9 -0.1
v -0.6 0.3 -0.2
v -0.6 0.8 -0.2
v -0.5 0.1 -0.2
v -0.5 0.3 -0.2
v -0.5 0.8 -0.2
v -0.5 1.1 -0.2
v -0.5 1.3 -0.2
v -0.5 1.8 -0.2
v -0.4 1.1 -0.2
v -0.4 1.3 -0.2
v -0.4 1.8 -0.2
v -0.4 1.9 -0.2
v -0.3 0 -0.2
v -0.3 0.1 -0.2
v -0.2 0.5 -0.2
v -0.2 0.6 -0.2
v -0.2 1.9 -0.2
v -0.2 2 -0.2
v -0.2 3.5 -0.2
v -0.2 3.6 -0.2
v -0.1 0.9 -0.2
v -0.1 1.2 -0.2
v -0.1 2 -0.2
v -0.1 3.5 -0.2
v -0.1 3.6 -0.2
v -0.1 3.7 -0.2
v 0.2 0.9 -0.2
v 0.2 1.2 -0.2
v 0.2 2 -0.2
v 0.2 3.5 -0.2
v 0.2 3.6 -0.2
v 0.2 3.7 -0.2
v 0.3 0.5 -0.2
v 0.3 0.6 -0.2
v 0.3 1.9 -0.2
v 0.3 2 -0.2
v 0.3 3.5 -0.2
v 0.3 3.6 -0.2
v 0.4 0 -0.2
v 0.4 0.1 -0.2
v 0.5 1.1 -0.2
v 0.5 1.3 -0.2
v 0.5 1.8 -0.2
v 0.5 1.9 -0.2
v 0.6 0.1 -0.2
v 0.6 0.3 -0.2
v 0.6 0.8 -0.2
v 0.6 1.1 -0.2
v 0.6 1.3 -0.2
v 0.6 1.8 -0.2
v 0.7 0.3 -0.2
v 0.7 0.8 -0.2
v -0.2 0.5 -0.3
v -0.2 0.6 -0.3
v -0.1 1.2 -0.3
v -0.1 3.4 -0.3
v -0.1 3.5 -0.3
v 0.2 1.2 -0.3
v 0.2 3.4 -0.3
v 0.2 3.5 -0.3
v 0.3 0.5 -0.3
v 0.3 0.6 -0.3
v -0.3 0 0.2
v 0.4 0 0.2
v -0.3 0 -0.2
v 0.4 0 -0.2
v -0.5 0.1 0.2
v -0.3 0.1 0.2
v 0.4 0.1 0.2
v 0.6 0.1 0.2
v -0.4 0.1 0.1
v -0.3 0.1 0.1
v -0.4 0.1 -0.1
v -0.3 0.1 -0.1
v -0.5 0.1 -0.2
v -0.3 0.1 -0.2
v 0.4 0.1 -0.2
v 0.6 0.1 -0.2
v -0.6 0.3 0.2
v -0.5 0.3 0.2
v 0.6 0.3 0.2
v 0.7 0.3 0.2
v -0.6 0.3 -0.2
v -0.5 0.3 -0.2
v 0.6 0.3 -0.2
v 0.7 0.3 -0.2
v -0.2 0.5 -0.2
v 0.3 0.5 -0.2
v -0.2 0.5 -0.3
v 0.3 0.5 -0.3
v -0.1 1.2 -0.1
v 0.2 1.2 -0.1
v -0.1 1.2 -0.2
v 0.2 1.2 -0.2
v -0.1 1.2 -0.3
v 0.2 1.2 -0.3
v -0.5 1.3 0.2
v -0.4 1.3 0.2
v 0.5 1.3 0.2
v 0.6 1.3 0.2
v -0.2 1.3 0
v 0.3 1.3 0
v -0.2 1.3 -0.1
v 0.3 1.3 -0.1
v -0.5 1.3 -0.2
v -0.4 1.3 -0.2
v 0.5 1.3 -0.2
v 0.6 1.3 -0.2
v -0.1 3.3 -0.1
v -5.96046e-008 3.3 -0.1
v 0.1 3.3 -0.1
v 0.2 3.3 -0.1
v -0.1 3.3 -0.2
v -5.96046e-008 3.3 -0.2
v 0.1 3.3 -0.2
v 0.2 3.3 -0.2
v -0.1 3.5 0
v 0.2 3.5 0
v -0.2 3.5 -0.1
v -0.1 3.5 -0.1
v 0.2 3.5 -0.1
v 0.3 3.5 -0.1
v -0.2 3.5 -0.2
v -0.1 3.5 -0.2
v 0.2 3.5 -0.2
v 0.3 3.5 -0.2
v -0.1 3.7 0.1
v 0.2 3.7 0.1
v -0.1 3.7 0
v 0.2 3.7 0
v -0.2 3.8 0
v -0.1 3.8 0
v 0.2 3.8 0
v 0.3 3.8 0
v -0.2 3.8 -0.1
v -0.1 3.8 -0.1
v 0.2 3.8 -0.1
v 0.3 3.8 -0.1
v -0.2 0.6 -0.2
v 0.3 0.6 -0.2
v -0.2 0.6 -0.3
v 0.3 0.6 -0.3
v -0.6 0.8 0.2
v -0.5 0.8 0.2
v 0.6 0.8 0.2
v 0.7 0.8 0.2
v -0.2 0.8 0
v 0.3 0.8 0
v -0.2 0.8 -0.1
v 0.3 0.8 -0.1
v -0.6 0.8 -0.2
v -0.5 0.8 -0.2
v 0.6 0.8 -0.2
v 0.7 0.8 -0.2
v -0.1 0.9 -0.1
v 0.2 0.9 -0.1
v -0.1 0.9 -0.2
v 0.2 0.9 -0.2
v -0.5 1.1 0.2
v -0.4 1.1 0.2
v 0.5 1.1 0.2
v 0.6 1.1 0.2
v -0.5 1.1 -0.2
v -0.4 1.1 -0.2
v 0.5 1.1 -0.2
v 0.6 1.1 -0.2
v -0.5 1.8 0.2
v -0.4 1.8 0.2
v 0.5 1.8 0.2
v 0.6 1.8 0.2
v -0.5 1.8 -0.2
v -0.4 1.8 -0.2
v 0.5 1.8 -0.2
v 0.6 1.8 -0.2
v -0.4 1.9 0.2
v -0.2 1.9 0.2
v 0.3 1.9 0.2
v 0.5 1.9 0.2
v -0.4 1.9 -0.2
v -0.2 1.9 -0.2
v 0.3 1.9 -0.2
v 0.5 1.9 -0.2
v -0.2 2 0.2
v 0.3 2 0.2
v -5.96046e-008 2 0.1
v 0.1 2 0.1
v -0.1 2 -0.1
v -5.96046e-008 2 -0.1
v 0.1 2 -0.1
v 0.2 2 -0.1
v -0.2 2 -0.2
v -0.1 2 -0.2
v 0.2 2 -0.2
v 0.3 2 -0.2
v -5.96046e-008 2.1 0.1
v 0.1 2.1 0.1
v -0.1 2.1 -0.1
v -5.96046e-008 2.1 -0.1
v 0.1 2.1 -0.1
v 0.2 2.1 -0.1
v -0.1 2.1 -0.2
v -5.96046e-008 2.1 -0.2
v 0.1 2.1 -0.2
v 0.2 2.1 -0.2
v -0.1 3.5 -0.2
v 0.2 3.5 -0.2
v -0.1 3.5 -0.3
v 0.2 3.5 -0.3
v -0.2 3.6 -0.1
v -0.1 3.6 -0.1
v 0.2 3.6 -0.1
v 0.3 3.6 -0.1
v -0.2 3.6 -0.2
v -0.1 3.6 -0.2
v 0.2 3.6 -0.2
v 0.3 3.6 -0.2
v -0.1 3.7 -0.1
v 0.2 3.7 -0.1
v -0.1 3.7 -0.2
v 0.2 3.7 -0.2
v -0.1 3.9 0.1
v -5.96046e-008 3.9 0.1
v 0.1 3.9 0.1
v 0.2 3.9 0.1
v -0.2 3.9 0
v -0.1 3.9 0
v -5.96046e-008 3.9 0
v 0.1 3.9 0
v 0.2 3.9 0
v 0.3 3.9 0
v -0.2 3.9 -0.1
v -0.1 3.9 -0.1
v 0.2 3.9 -0.1
v 0.3 3.9 -0.1
v -5.96046e-008 4 0.1
v 0.1 4 0.1
v -5.96046e-008 4 0
v 0.1 4 0

# faces
f 3/3/1 2/3/1 1/3/1
f 4/3/1 2/3/1 3/3/1
f 7/3/1 6/3/1 5/3/1
f 8/3/1 6/3/1 7/3/1
f 11/3/1 10/3/1 9/3/1
f 12/3/1 10/3/1 11/3/1
f 15/3/1 14/3/1 13/3/1
f 16/3/1 14/3/1 15/3/1
f 19/3/1 18/3/1 17/3/1
f 20/3/1 18/3/1 19/3/1
f 23/3/1 22/3/1 21/3/1
f 24/3/1 22/3/1 23/3/1
f 27/3/1 26/3/1 25/3/1
f 28/3/1 26/3/1 27/3/1
f 29/3/1 26/3/1 28/3/1
f 30/3/1 26/3/1 29/3/1
f 33/1/1 32/1/1 31/1/1
f 34/1/1 32/1/1 33/1/1
f 37/3/1 36/3/1 35/3/1
f 38/3/1 36/3/1 37/3/1
f 41/1/1 40/1/1 39/1/1
f 42/1/1 40/1/1 41/1/1
f 45/1/1 44/1/1 43/1/1
f 46/1/1 44/1/1 45/1/1
f 50/2/1 48/2/1 47/2/1
f 51/2/1 50/2/1 49/2/1
f 52/2/1 48/2/1 50/2/1
f 52/2/1 50/2/1 51/2/1
f 54/2/1 48/2/1 52/2/1
f 55/2/1 48/2/1 54/2/1
f 55/3/1 54/3/1 53/3/1
f 56/2/1 48/2/1 55/2/1
f 58/3/1 55/3/1 53/3/1
f 58/3/1 56/3/1 55/3/1
f 59/3/1 56/3/1 58/3/1
f 60/3/1 56/3/1 59/3/1
f 61/3/1 58/3/1 57/3/1
f 64/3/1 61/3/1 57/3/1
f 64/3/1 62/3/1 61/3/1
f 65/3/1 62/3/1 64/3/1
f 66/3/1 62/3/1 65/3/1
f 67/3/1 64/3/1 63/3/1
f 67/3/1 65/3/1 64/3/1
f 68/3/1 65/3/1 67/3/1
f 69/3/1 67/3/1 63/3/1
f 70/3/1 67/3/1 69/3/1
f 73/2/1 72/2/1 71/2/1
f 74/2/1 72/2/1 73/2/1
f 76/2/1 75/2/1 74/2/1
f 77/2/1 75/2/1 76/2/1
f 80/3/1 79/3/1 78/3/1
f 81/3/1 79/3/1 80/3/1
f 84/3/1 83/3/1 82/3/1
f 85/3/1 83/3/1 84/3/1
f 88/5/1 87/5/1 86/5/1
f 89/5/1 87/5/1 88/5/1
f 90/5/2 91/5/2 92/5/2
f 92/5/2 91/5/2 93/5/2
f 94/3/2 95/3/2 96/3/2
f 96/3/2 95/3/2 97/3/2
f 98/2/2 99/2/2 100/2/2
f 100/2/2 99/2/2 101/2/2
f 101/2/2 102/2/2 103/2/2
f 103/2/2 102/2/2 104/2/2
f 105/3/2 106/3/2 107/3/2
f 107/3/2 106/3/2 108/3/2
f 109/2/2 110/2/2 112/2/2
f 111/2/2 112/2/2 113/2/2
f 112/2/2 110/2/2 114/2/2
f 113/2/2 112/2/2 114/2/2
f 114/2/2 110/2/2 116/2/2
f 116/2/2 110/2/2 117/2/2
f 115/3/2 116/3/2 117/3/2
f 117/2/2 110/2/2 118/2/2
f 115/3/2 117/3/2 120/3/2
f 117/3/2 118/3/2 120/3/2
f 120/3/2 118/3/2 121/3/2
f 121/3/2 118/3/2 122/3/2
f 119/3/2 120/3/2 123/3/2
f 119/3/2 123/3/2 126/3/2
f 123/3/2 124/3/2 126/3/2
f 126/3/2 124/3/2 127/3/2
f 127/3/2 124/3/2 128/3/2
f 125/3/2 126/3/2 129/3/2
f 126/3/2 127/3/2 129/3/2
f 129/3/2 127/3/2 130/3/2
f 125/3/2 129/3/2 131/3/2
f 131/3/2 129/3/2 132/3/2
f 133/1/2 134/1/2 135/1/2
f 135/1/2 134/1/2 136/1/2
f 137/3/2 138/3/2 139/3/2
f 139/3/2 138/3/2 140/3/2
f 141/1/2 142/1/2 143/1/2
f 143/1/2 142/1/2 144/1/2
f 145/1/2 146/1/2 147/1/2
f 147/1/2 146/1/2 148/1/2
f 149/3/2 150/3/2 151/3/2
f 151/3/2 150/3/2 152/3/2
f 153/3/2 154/3/2 155/3/2
f 155/3/2 154/3/2 156/3/2
f 157/3/2 158/3/2 159/3/2
f 159/3/2 158/3/2 160/3/2
f 161/3/2 162/3/2 163/3/2
f 163/3/2 162/3/2 164/3/2
f 165/3/2 166/3/2 167/3/2
f 167/3/2 166/3/2 168/3/2
f 169/3/2 170/3/2 171/3/2
f 171/3/2 170/3/2 172/3/2
f 173/3/2 174/3/2 175/3/2
f 175/3/2 174/3/2 176/3/2
f 180/3/3 178/3/3 177/3/3
f 181/3/3 178/3/3 180/3/3
f 185/3/3 180/3/3 179/3/3
f 185/3/3 181/3/3 180/3/3
f 185/3/3 182/3/3 181/3/3
f 186/3/3 184/3/3 183/3/3
f 187/3/3 184/3/3 186/3/3
f 190/3/3 185/3/3 179/3/3
f 190/3/3 188/3/3 187/3/3
f 190/3/3 187/3/3 186/3/3
f 190/3/3 186/3/3 185/3/3
f 191/3/3 188/3/3 190/3/3
f 191/3/3 190/3/3 189/3/3
f 193/3/3 191/3/3 189/3/3
f 193/3/3 192/3/3 191/3/3
f 194/3/3 192/3/3 193/3/3
f 195/3/3 193/3/3 189/3/3
f 196/3/3 193/3/3 195/3/3
f 197/3/3 193/3/3 196/3/3
f 198/3/3 193/3/3 197/3/3
f 199/3/3 193/3/3 198/3/3
f 200/3/3 193/3/3 199/3/3
f 201/3/3 197/3/3 196/3/3
f 202/3/3 197/3/3 201/3/3
f 203/3/3 197/3/3 202/3/3
f 204/3/3 197/3/3 203/3/3
f 205/3/3 199/3/3 198/3/3
f 206/3/3 199/3/3 205/3/3
f 207/3/3 203/3/3 202/3/3
f 208/3/3 203/3/3 207/3/3
f 213/3/3 210/3/3 209/3/3
f 215/2/3 212/2/3 211/2/3
f 216/2/3 212/2/3 215/2/3
f 217/3/3 214/3/3 213/3/3
f 217/3/3 213/3/3 209/3/3
f 218/3/3 214/3/3 217/3/3
f 219/3/3 217/3/3 209/3/3
f 220/3/3 217/3/3 219/3/3
f 225/1/3 222/1/3 221/1/3
f 226/1/3 222/1/3 225/1/3
f 227/3/3 224/3/3 223/3/3
f 228/3/3 224/3/3 227/3/3
f 231/1/3 230/1/3 229/1/3
f 232/1/3 230/1/3 231/1/3
f 237/3/3 234/3/3 233/3/3
f 238/3/3 234/3/3 237/3/3
f 242/1/3 236/1/3 235/1/3
f 243/1/3 236/1/3 242/1/3
f 244/2/3 240/2/3 239/2/3
f 245/2/3 240/2/3 244/2/3
f 246/3/3 242/3/3 241/3/3
f 247/3/3 242/3/3 246/3/3
f 249/2/3 246/2/3 245/2/3
f 249/2/3 247/2/3 246/2/3
f 250/2/3 247/2/3 249/2/3
f 251/3/3 242/3/3 247/3/3
f 251/2/3 247/2/3 250/2/3
f 252/3/3 237/3/3 233/3/3
f 253/3/3 234/3/3 238/3/3
f 254/2/3 249/2/3 248/2/3
f 255/2/3 249/2/3 254/2/3
f 256/3/3 251/3/3 250/3/3
f 257/3/3 242/3/3 251/3/3
f 257/3/3 251/3/3 256/3/3
f 259/3/3 252/3/3 233/3/3
f 259/3/3 253/3/3 252/3/3
f 260/3/3 234/3/3 253/3/3
f 260/3/3 253/3/3 259/3/3
f 261/1/3 258/1/3 257/1/3
f 262/1/3 258/1/3 261/1/3
f 265/2/3 264/2/3 263/2/3
f 266/2/3 264/2/3 265/2/3
f 269/2/3 268/2/3 267/2/3
f 270/2/3 268/2/3 269/2/3
f 273/3/4 274/3/4 275/3/4
f 275/3/4 274/3/4 276/3/4
f 271/2/4 272/2/4 277/2/4
f 277/2/4 272/2/4 278/2/4
f 279/1/4 280/1/4 282/1/4
f 282/1/4 280/1/4 283/1/4
f 281/3/4 282/3/4 284/3/4
f 282/3/4 283/3/4 284/3/4
f 284/3/4 283/3/4 285/3/4
f 285/3/4 283/3/4 286/3/4
f 285/1/4 286/1/4 287/1/4
f 287/1/4 286/1/4 288/1/4
f 289/3/4 290/3/4 292/3/4
f 292/3/4 290/3/4 293/3/4
f 291/3/4 292/3/4 297/3/4
f 292/3/4 293/3/4 297/3/4
f 293/3/4 294/3/4 297/3/4
f 295/3/4 296/3/4 298/3/4
f 298/3/4 296/3/4 299/3/4
f 291/3/4 297/3/4 302/3/4
f 299/3/4 300/3/4 302/3/4
f 298/3/4 299/3/4 302/3/4
f 297/3/4 298/3/4 302/3/4
f 302/3/4 300/3/4 303/3/4
f 301/3/4 302/3/4 303/3/4
f 303/3/4 300/3/4 304/3/4
f 304/3/4 300/3/4 305/3/4
f 304/3/4 305/3/4 309/3/4
f 305/3/4 306/3/4 309/3/4
f 309/3/4 306/3/4 310/3/4
f 310/3/4 306/3/4 311/3/4
f 307/1/4 308/1/4 312/1/4
f 312/1/4 308/1/4 313/1/4
f 304/3/4 309/3/4 315/3/4
f 313/3/4 314/3/4 318/3/4
f 312/3/4 313/3/4 318/3/4
f 318/3/4 314/3/4 319/3/4
f 319/3/4 314/3/4 320/3/4
f 301/3/4 303/3/4 321/3/4
f 316/3/4 317/3/4 322/3/4
f 315/3/4 316/3/4 322/3/4
f 304/3/4 315/3/4 322/3/4
f 322/3/4 317/3/4 323/3/4
f 323/3/4 317/3/4 324/3/4
f 318/1/4 319/1/4 325/1/4
f 325/1/4 319/1/4 326/1/4
f 301/3/4 321/3/4 327/3/4
f 321/3/4 322/3/4 327/3/4
f 322/3/4 323/3/4 327/3/4
f 327/3/4 323/3/4 328/3/4
f 328/3/4 323/3/4 329/3/4
f 329/3/4 323/3/4 330/3/4
f 330/3/4 323/3/4 331/3/4
f 331/3/4 323/3/4 332/3/4
f 328/3/4 329/3/4 333/3/4
f 333/3/4 329/3/4 334/3/4
f 334/3/4 329/3/4 335/3/4
f 335/3/4 329/3/4 336/3/4
f 330/3/4 331/3/4 337/3/4
f 337/3/4 331/3/4 338/3/4
f 334/3/4 335/3/4 339/3/4
f 339/3/4 335/3/4 340/3/4
f 343/2/4 344/2/4 346/2/4
f 344/3/4 345/3/4 347/3/4
f 346/2/4 344/2/4 347/2/4
f 347/3/4 345/3/4 348/3/4
f 341/1/4 342/1/4 349/1/4
f 349/1/4 342/1/4 350/1/4
f 353/3/5 352/3/5 351/3/5
f 354/3/5 352/3/5 353/3/5
f 359/3/5 356/3/5 355/3/5
f 360/3/5 356/3/5 359/3/5
f 361/3/5 359/3/5 355/3/5
f 361/5/5 360/5/5 359/5/5
f 362/5/5 360/5/5 361/5/5
f 363/3/5 361/3/5 355/3/5
f 363/3/5 362/3/5 361/3/5
f 364/3/5 362/3/5 363/3/5
f 365/3/5 358/3/5 357/3/5
f 366/3/5 358/3/5 365/3/5
f 371/3/5 368/3/5 367/3/5
f 372/3/5 368/3/5 371/3/5
f 373/3/5 370/3/5 369/3/5
f 374/3/5 370/3/5 373/3/5
f 377/1/5 376/1/5 375/1/5
f 378/1/5 376/1/5 377/1/5
f 381/3/5 380/3/5 379/3/5
f 382/3/5 380/3/5 381/3/5
f 383/2/5 382/2/5 381/2/5
f 384/2/5 382/2/5 383/2/5
f 391/5/5 390/5/5 389/5/5
f 392/5/5 390/5/5 391/5/5
f 393/3/5 386/3/5 385/3/5
f 394/3/5 386/3/5 393/3/5
f 395/3/5 388/3/5 387/3/5
f 396/3/5 388/3/5 395/3/5
f 401/3/5 398/3/5 397/3/5
f 402/3/5 398/3/5 401/3/5
f 403/3/5 400/3/5 399/3/5
f 404/3/5 400/3/5 403/3/5
f 408/3/5 406/3/5 405/3/5
f 409/3/5 406/3/5 408/3/5
f 411/1/5 408/1/5 407/1/5
f 412/1/5 408/1/5 411/1/5
f 413/1/5 410/1/5 409/1/5
f 414/1/5 410/1/5 413/1/5
f 417/3/5 416/3/5 415/3/5
f 418/3/5 416/3/5 417/3/5
f 423/1/5 420/1/5 419/1/5
f 424/1/5 420/1/5 423/1/5
f 425/1/5 422/1/5 421/1/5
f 426/1/5 422/1/5 425/1/5
f 427/1/6 428/1/6 429/1/6
f 429/1/6 428/1/6 430/1/6
f 435/5/6 436/5/6 437/5/6
f 437/5/6 436/5/6 438/5/6
f 431/3/6 432/3/6 439/3/6
f 439/3/6 432/3/6 440/3/6
f 433/3/6 434/3/6 441/3/6
f 441/3/6 434/3/6 442/3/6
f 443/3/6 444/3/6 445/3/6
f 445/3/6 444/3/6 446/3/6
f 447/3/6 448/3/6 451/3/6
f 451/3/6 448/3/6 452/3/6
f 449/3/6 450/3/6 453/3/6
f 453/3/6 450/3/6 454/3/6
f 455/3/6 456/3/6 459/3/6
f 459/3/6 456/3/6 460/3/6
f 457/3/6 458/3/6 461/3/6
f 461/3/6 458/3/6 462/3/6
f 463/3/6 464/3/6 467/3/6
f 467/3/6 464/3/6 468/3/6
f 465/3/6 466/3/6 469/3/6
f 469/3/6 466/3/6 470/3/6
f 471/3/6 472/3/6 473/3/6
f 473/3/6 472/3/6 474/3/6
f 471/3/6 473/3/6 475/3/6
f 475/3/6 473/3/6 476/3/6
f 474/3/6 472/3/6 477/3/6
f 477/3/6 472/3/6 478/3/6
f 471/3/6 475/3/6 479/3/6
f 479/3/6 475/3/6 480/3/6
f 478/3/6 472/3/6 481/3/6
f 481/3/6 472/3/6 482/3/6
f 483/2/6 484/2/6 486/2/6
f 486/2/6 484/2/6 487/2/6
f 485/2/6 486/2/6 489/2/6
f 489/2/6 486/2/6 490/2/6
f 487/2/6 488/2/6 491/2/6
f 491/2/6 488/2/6 492/2/6
f 493/3/6 494/3/6 495/3/6
f 495/3/6 494/3/6 496/3/6
f 497/1/6 498/1/6 501/1/6
f 501/1/6 498/1/6 502/1/6
f 499/1/6 500/1/6 503/1/6
f 503/1/6 500/1/6 504/1/6
f 505/3/6 506/3/6 507/3/6
f 507/3/6 506/3/6 508/3/6
f 509/3/6 510/3/6 514/3/6
f 514/3/6 510/3/6 515/3/6
f 511/3/6 512/3/6 516/3/6
f 516/3/6 512/3/6 517/3/6
f 513/1/6 514/1/6 519/1/6
f 514/3/6 515/3/6 520/3/6
f 519/1/6 514/1/6 520/1/6
f 515/3/6 516/3/6 520/3/6
f 516/3/6 517/3/6 520/3/6
f 517/1/6 518/1/6 521/1/6
f 520/3/6 517/3/6 521/3/6
f 521/1/6 518/1/6 522/1/6
f 523/3/6 524/3/6 525/3/6
f 525/3/6 524/3/6 526/3/6
