# MagicaVoxel @ Ephtracy

# group
o Furniture_Old

# material
mtllib room-44-Furniture_Old.mtl
usemtl palette

# normals
vn -1 0 0
vn 1 0 0
vn 0 0 1
vn 0 0 -1
vn 0 -1 0
vn 0 1 0

# texcoords
vt 0.947266 0.5
vt 0.990234 0.5

# verts
v -0.6 0.9 0.6
v -0.6 0.9 0.4
v -0.6 0.9 -0.4
v -0.6 0.9 -0.6
v -0.6 1 0.6
v -0.6 1 0.4
v -0.6 1 -0.4
v -0.6 1 -0.6
v -0.6 2 0.4
v -0.6 2 -0.4
v -0.6 2.1 0.4
v -0.6 2.1 -0.6
v -0.6 2.2 0.4
v -0.6 2.2 -0.6
v -0.6 3.1 0.6
v -0.6 3.1 0.4
v -0.5 1.5 0.4
v -0.5 1.5 -0.4
v -0.5 1.7 0.4
v -0.5 1.7 -0.4
v 0.4 0.9 0.6
v 0.4 0.9 0.4
v 0.4 0.9 -0.4
v 0.4 0.9 -0.6
v 0.4 1 0.6
v 0.4 1 0.4
v 0.4 1 -0.4
v 0.4 1 -0.6
v 0.4 1.5 0.5
v 0.4 1.5 0.4
v 0.4 1.5 -0.4
v 0.4 1.5 -0.5
v 0.4 1.7 0.5
v 0.4 1.7 0.4
v 0.4 1.7 -0.4
v 0.4 1.7 -0.5
v 0.4 2 0.6
v 0.4 2 0.4
v 0.4 2 -0.4
v 0.4 2 -0.6
v 0.4 2.2 0.6
v 0.4 2.2 0.4
v 0.4 2.4 0.5
v 0.4 2.4 0.4
v 0.4 2.6 0.5
v 0.4 2.6 0.4
v 0.4 2.7 0.5
v 0.4 2.7 0.4
v 0.4 2.9 0.5
v 0.4 2.9 0.4
v 0.4 3.1 0.6
v 0.4 3.1 0.4
v -0.4 0.9 0.6
v -0.4 0.9 0.4
v -0.4 0.9 -0.4
v -0.4 0.9 -0.6
v -0.4 1 0.6
v -0.4 1 0.4
v -0.4 1 -0.4
v -0.4 1 -0.6
v -0.4 1.5 0.5
v -0.4 1.5 0.4
v -0.4 1.5 -0.4
v -0.4 1.5 -0.5
v -0.4 1.7 0.5
v -0.4 1.7 0.4
v -0.4 1.7 -0.4
v -0.4 1.7 -0.5
v -0.4 2 0.6
v -0.4 2 0.4
v -0.4 2 -0.4
v -0.4 2 -0.6
v -0.4 2.2 0.6
v -0.4 2.2 0.4
v -0.4 2.4 0.5
v -0.4 2.4 0.4
v -0.4 2.6 0.5
v -0.4 2.6 0.4
v -0.4 2.7 0.5
v -0.4 2.7 0.4
v -0.4 2.9 0.5
v -0.4 2.9 0.4
v -0.4 3.1 0.6
v -0.4 3.1 0.4
v 0.5 1.5 0.4
v 0.5 1.5 -0.4
v 0.5 1.7 0.4
v 0.5 1.7 -0.4
v 0.6 0.9 0.6
v 0.6 0.9 0.4
v 0.6 0.9 -0.4
v 0.6 0.9 -0.6
v 0.6 1 0.6
v 0.6 1 0.4
v 0.6 1 -0.4
v 0.6 1 -0.6
v 0.6 2 0.4
v 0.6 2 -0.4
v 0.6 2.1 0.4
v 0.6 2.1 -0.6
v 0.6 2.2 0.4
v 0.6 2.2 -0.6
v 0.6 3.1 0.6
v 0.6 3.1 0.4
v -0.6 0.9 0.6
v -0.6 1 0.6
v -0.6 3.1 0.6
v -0.4 0.9 0.6
v -0.4 1 0.6
v -0.4 2 0.6
v -0.4 2.1 0.6
v -0.4 2.2 0.6
v -0.4 3.1 0.6
v 0.4 0.9 0.6
v 0.4 1 0.6
v 0.4 2 0.6
v 0.4 2.1 0.6
v 0.4 2.2 0.6
v 0.4 3.1 0.6
v 0.6 0.9 0.6
v 0.6 1 0.6
v 0.6 3.1 0.6
v -0.4 1.5 0.5
v -0.4 1.7 0.5
v -0.4 2.4 0.5
v -0.4 2.6 0.5
v -0.4 2.7 0.5
v -0.4 2.9 0.5
v 0.4 1.5 0.5
v 0.4 1.7 0.5
v 0.4 2.4 0.5
v 0.4 2.6 0.5
v 0.4 2.7 0.5
v 0.4 2.9 0.5
v -0.6 0.9 -0.4
v -0.6 1 -0.4
v -0.6 2 -0.4
v -0.5 1.5 -0.4
v -0.5 1.7 -0.4
v -0.4 0.9 -0.4
v -0.4 1 -0.4
v -0.4 1.5 -0.4
v -0.4 1.7 -0.4
v -0.4 2 -0.4
v 0.4 0.9 -0.4
v 0.4 1 -0.4
v 0.4 1.5 -0.4
v 0.4 1.7 -0.4
v 0.4 2 -0.4
v 0.5 1.5 -0.4
v 0.5 1.7 -0.4
v 0.6 0.9 -0.4
v 0.6 1 -0.4
v 0.6 2 -0.4
v -0.6 0.9 0.4
v -0.6 1 0.4
v -0.6 2 0.4
v -0.6 2.2 0.4
v -0.6 3.1 0.4
v -0.5 1.5 0.4
v -0.5 1.7 0.4
v -0.4 0.9 0.4
v -0.4 1 0.4
v -0.4 1.5 0.4
v -0.4 1.7 0.4
v -0.4 2 0.4
v -0.4 2.2 0.4
v -0.4 2.4 0.4
v -0.4 2.6 0.4
v -0.4 2.7 0.4
v -0.4 2.9 0.4
v -0.4 3.1 0.4
v 0.4 0.9 0.4
v 0.4 1 0.4
v 0.4 1.5 0.4
v 0.4 1.7 0.4
v 0.4 2 0.4
v 0.4 2.2 0.4
v 0.4 2.4 0.4
v 0.4 2.6 0.4
v 0.4 2.7 0.4
v 0.4 2.9 0.4
v 0.4 3.1 0.4
v 0.5 1.5 0.4
v 0.5 1.7 0.4
v 0.6 0.9 0.4
v 0.6 1 0.4
v 0.6 2 0.4
v 0.6 2.2 0.4
v 0.6 3.1 0.4
v -0.4 1.5 -0.5
v -0.4 1.7 -0.5
v 0.4 1.5 -0.5
v 0.4 1.7 -0.5
v -0.6 0.9 -0.6
v -0.6 1 -0.6
v -0.6 2.1 -0.6
v -0.6 2.2 -0.6
v -0.4 0.9 -0.6
v -0.4 1 -0.6
v -0.4 2 -0.6
v 0.4 0.9 -0.6
v 0.4 1 -0.6
v 0.4 2 -0.6
v 0.6 0.9 -0.6
v 0.6 1 -0.6
v 0.6 2.1 -0.6
v 0.6 2.2 -0.6
v -0.6 0.9 0.6
v -0.4 0.9 0.6
v 0.4 0.9 0.6
v 0.6 0.9 0.6
v -0.6 0.9 0.4
v -0.4 0.9 0.4
v 0.4 0.9 0.4
v 0.6 0.9 0.4
v -0.6 0.9 -0.4
v -0.4 0.9 -0.4
v 0.4 0.9 -0.4
v 0.6 0.9 -0.4
v -0.6 0.9 -0.6
v -0.4 0.9 -0.6
v 0.4 0.9 -0.6
v 0.6 0.9 -0.6
v -0.4 1.5 0.5
v 0.4 1.5 0.5
v -0.5 1.5 0.4
v -0.4 1.5 0.4
v 0.4 1.5 0.4
v 0.5 1.5 0.4
v -0.5 1.5 -0.4
v -0.4 1.5 -0.4
v 0.4 1.5 -0.4
v 0.5 1.5 -0.4
v -0.4 1.5 -0.5
v 0.4 1.5 -0.5
v -0.4 2 0.6
v 0.4 2 0.6
v -0.6 2 0.4
v -0.4 2 0.4
v 0.4 2 0.4
v 0.6 2 0.4
v -0.6 2 -0.4
v -0.4 2 -0.4
v 0.4 2 -0.4
v 0.6 2 -0.4
v -0.4 2 -0.6
v 0.4 2 -0.6
v -0.4 2.4 0.5
v 0.4 2.4 0.5
v -0.4 2.4 0.4
v 0.4 2.4 0.4
v -0.4 2.7 0.5
v 0.4 2.7 0.5
v -0.4 2.7 0.4
v 0.4 2.7 0.4
v -0.4 1.7 0.5
v 0.4 1.7 0.5
v -0.5 1.7 0.4
v -0.4 1.7 0.4
v 0.4 1.7 0.4
v 0.5 1.7 0.4
v -0.5 1.7 -0.4
v -0.4 1.7 -0.4
v 0.4 1.7 -0.4
v 0.5 1.7 -0.4
v -0.4 1.7 -0.5
v 0.4 1.7 -0.5
v -0.4 2.2 0.6
v 0.4 2.2 0.6
v -0.6 2.2 0.4
v -0.4 2.2 0.4
v 0.4 2.2 0.4
v 0.6 2.2 0.4
v -0.6 2.2 -0.6
v 0.6 2.2 -0.6
v -0.4 2.6 0.5
v 0.4 2.6 0.5
v -0.4 2.6 0.4
v 0.4 2.6 0.4
v -0.4 2.9 0.5
v 0.4 2.9 0.5
v -0.4 2.9 0.4
v 0.4 2.9 0.4
v -0.6 3.1 0.6
v -0.4 3.1 0.6
v 0.4 3.1 0.6
v 0.6 3.1 0.6
v -0.6 3.1 0.4
v -0.4 3.1 0.4
v 0.4 3.1 0.4
v 0.6 3.1 0.4

# faces
f 5/1/1 2/1/1 1/1/1
f 6/1/1 2/1/1 5/1/1
f 7/1/1 4/1/1 3/1/1
f 8/1/1 4/1/1 7/1/1
f 9/2/1 6/2/1 5/2/1
f 10/2/1 8/2/1 7/2/1
f 11/2/1 9/2/1 5/2/1
f 11/2/1 10/2/1 9/2/1
f 12/2/1 8/2/1 10/2/1
f 12/2/1 10/2/1 11/2/1
f 13/2/1 11/2/1 5/2/1
f 13/1/1 12/1/1 11/1/1
f 14/1/1 12/1/1 13/1/1
f 15/2/1 13/2/1 5/2/1
f 16/2/1 13/2/1 15/2/1
f 19/1/1 18/1/1 17/1/1
f 20/1/1 18/1/1 19/1/1
f 25/1/1 22/1/1 21/1/1
f 26/1/1 22/1/1 25/1/1
f 27/1/1 24/1/1 23/1/1
f 28/1/1 24/1/1 27/1/1
f 29/2/1 26/2/1 25/2/1
f 30/2/1 26/2/1 29/2/1
f 31/2/1 28/2/1 27/2/1
f 32/2/1 28/2/1 31/2/1
f 33/2/1 29/2/1 25/2/1
f 34/1/1 31/1/1 30/1/1
f 35/1/1 31/1/1 34/1/1
f 36/2/1 28/2/1 32/2/1
f 37/2/1 33/2/1 25/2/1
f 37/2/1 34/2/1 33/2/1
f 38/2/1 34/2/1 37/2/1
f 39/2/1 36/2/1 35/2/1
f 40/2/1 28/2/1 36/2/1
f 40/2/1 36/2/1 39/2/1
f 43/2/1 42/2/1 41/2/1
f 44/2/1 42/2/1 43/2/1
f 45/2/1 43/2/1 41/2/1
f 47/2/1 45/2/1 41/2/1
f 47/2/1 46/2/1 45/2/1
f 48/2/1 46/2/1 47/2/1
f 49/2/1 47/2/1 41/2/1
f 51/2/1 49/2/1 41/2/1
f 51/2/1 50/2/1 49/2/1
f 52/2/1 50/2/1 51/2/1
f 53/1/2 54/1/2 57/1/2
f 57/1/2 54/1/2 58/1/2
f 55/1/2 56/1/2 59/1/2
f 59/1/2 56/1/2 60/1/2
f 57/2/2 58/2/2 61/2/2
f 61/2/2 58/2/2 62/2/2
f 59/2/2 60/2/2 63/2/2
f 63/2/2 60/2/2 64/2/2
f 57/2/2 61/2/2 65/2/2
f 62/1/2 63/1/2 66/1/2
f 66/1/2 63/1/2 67/1/2
f 64/2/2 60/2/2 68/2/2
f 57/2/2 65/2/2 69/2/2
f 65/2/2 66/2/2 69/2/2
f 69/2/2 66/2/2 70/2/2
f 67/2/2 68/2/2 71/2/2
f 68/2/2 60/2/2 72/2/2
f 71/2/2 68/2/2 72/2/2
f 73/2/2 74/2/2 75/2/2
f 75/2/2 74/2/2 76/2/2
f 73/2/2 75/2/2 77/2/2
f 73/2/2 77/2/2 79/2/2
f 77/2/2 78/2/2 79/2/2
f 79/2/2 78/2/2 80/2/2
f 73/2/2 79/2/2 81/2/2
f 73/2/2 81/2/2 83/2/2
f 81/2/2 82/2/2 83/2/2
f 83/2/2 82/2/2 84/2/2
f 85/1/2 86/1/2 87/1/2
f 87/1/2 86/1/2 88/1/2
f 89/1/2 90/1/2 93/1/2
f 93/1/2 90/1/2 94/1/2
f 91/1/2 92/1/2 95/1/2
f 95/1/2 92/1/2 96/1/2
f 93/2/2 94/2/2 97/2/2
f 95/2/2 96/2/2 98/2/2
f 93/2/2 97/2/2 99/2/2
f 97/2/2 98/2/2 99/2/2
f 98/2/2 96/2/2 100/2/2
f 99/2/2 98/2/2 100/2/2
f 93/2/2 99/2/2 101/2/2
f 99/1/2 100/1/2 101/1/2
f 101/1/2 100/1/2 102/1/2
f 93/2/2 101/2/2 103/2/2
f 103/2/2 101/2/2 104/2/2
f 108/1/3 106/1/3 105/1/3
f 109/2/3 107/2/3 106/2/3
f 109/1/3 106/1/3 108/1/3
f 110/2/3 107/2/3 109/2/3
f 111/2/3 107/2/3 110/2/3
f 112/2/3 107/2/3 111/2/3
f 113/2/3 107/2/3 112/2/3
f 116/2/3 111/2/3 110/2/3
f 117/1/3 112/1/3 111/1/3
f 117/2/3 111/2/3 116/2/3
f 118/1/3 112/1/3 117/1/3
f 120/1/3 115/1/3 114/1/3
f 121/2/3 116/2/3 115/2/3
f 121/1/3 115/1/3 120/1/3
f 121/2/3 119/2/3 118/2/3
f 121/2/3 118/2/3 117/2/3
f 121/2/3 117/2/3 116/2/3
f 122/2/3 119/2/3 121/2/3
f 129/1/3 124/1/3 123/1/3
f 130/1/3 124/1/3 129/1/3
f 131/1/3 126/1/3 125/1/3
f 132/1/3 126/1/3 131/1/3
f 133/1/3 128/1/3 127/1/3
f 134/1/3 128/1/3 133/1/3
f 138/2/3 137/2/3 136/2/3
f 139/2/3 137/2/3 138/2/3
f 140/1/3 136/1/3 135/1/3
f 141/2/3 138/2/3 136/2/3
f 141/1/3 136/1/3 140/1/3
f 142/2/3 138/2/3 141/2/3
f 143/2/3 137/2/3 139/2/3
f 144/2/3 137/2/3 143/2/3
f 147/1/3 143/1/3 142/1/3
f 148/1/3 143/1/3 147/1/3
f 150/2/3 147/2/3 146/2/3
f 151/2/3 149/2/3 148/2/3
f 152/1/3 146/1/3 145/1/3
f 153/2/3 151/2/3 150/2/3
f 153/1/3 146/1/3 152/1/3
f 153/2/3 150/2/3 146/2/3
f 154/2/3 149/2/3 151/2/3
f 154/2/3 151/2/3 153/2/3
f 156/2/4 157/2/4 160/2/4
f 160/2/4 157/2/4 161/2/4
f 155/1/4 156/1/4 162/1/4
f 156/2/4 160/2/4 163/2/4
f 162/1/4 156/1/4 163/1/4
f 163/2/4 160/2/4 164/2/4
f 161/2/4 157/2/4 165/2/4
f 165/2/4 157/2/4 166/2/4
f 158/2/4 159/2/4 167/2/4
f 167/2/4 159/2/4 168/2/4
f 168/2/4 159/2/4 169/2/4
f 169/2/4 159/2/4 170/2/4
f 170/2/4 159/2/4 171/2/4
f 171/2/4 159/2/4 172/2/4
f 164/1/4 165/1/4 175/1/4
f 175/1/4 165/1/4 176/1/4
f 168/1/4 169/1/4 179/1/4
f 179/1/4 169/1/4 180/1/4
f 170/1/4 171/1/4 181/1/4
f 181/1/4 171/1/4 182/1/4
f 174/2/4 175/2/4 184/2/4
f 176/2/4 177/2/4 185/2/4
f 173/1/4 174/1/4 186/1/4
f 174/2/4 184/2/4 187/2/4
f 186/1/4 174/1/4 187/1/4
f 184/2/4 185/2/4 187/2/4
f 185/2/4 177/2/4 188/2/4
f 187/2/4 185/2/4 188/2/4
f 179/2/4 180/2/4 189/2/4
f 182/2/4 183/2/4 189/2/4
f 181/2/4 182/2/4 189/2/4
f 180/2/4 181/2/4 189/2/4
f 178/2/4 179/2/4 189/2/4
f 189/2/4 183/2/4 190/2/4
f 191/1/4 192/1/4 193/1/4
f 193/1/4 192/1/4 194/1/4
f 195/1/4 196/1/4 199/1/4
f 196/2/4 197/2/4 200/2/4
f 199/1/4 196/1/4 200/1/4
f 200/2/4 197/2/4 201/2/4
f 201/2/4 197/2/4 204/2/4
f 202/1/4 203/1/4 205/1/4
f 203/2/4 204/2/4 206/2/4
f 205/1/4 203/1/4 206/1/4
f 197/1/4 198/1/4 207/1/4
f 206/2/4 204/2/4 207/2/4
f 204/2/4 197/2/4 207/2/4
f 207/1/4 198/1/4 208/1/4
f 213/1/5 210/1/5 209/1/5
f 214/1/5 210/1/5 213/1/5
f 215/1/5 212/1/5 211/1/5
f 216/1/5 212/1/5 215/1/5
f 221/1/5 218/1/5 217/1/5
f 222/1/5 218/1/5 221/1/5
f 223/1/5 220/1/5 219/1/5
f 224/1/5 220/1/5 223/1/5
f 228/1/5 226/1/5 225/1/5
f 229/1/5 226/1/5 228/1/5
f 231/1/5 228/1/5 227/1/5
f 232/1/5 228/1/5 231/1/5
f 233/1/5 230/1/5 229/1/5
f 234/1/5 230/1/5 233/1/5
f 235/1/5 233/1/5 232/1/5
f 236/1/5 233/1/5 235/1/5
f 240/2/5 238/2/5 237/2/5
f 241/2/5 238/2/5 240/2/5
f 243/2/5 240/2/5 239/2/5
f 243/2/5 242/2/5 241/2/5
f 243/2/5 241/2/5 240/2/5
f 244/2/5 242/2/5 243/2/5
f 245/2/5 242/2/5 244/2/5
f 246/2/5 242/2/5 245/2/5
f 247/2/5 245/2/5 244/2/5
f 248/2/5 245/2/5 247/2/5
f 251/1/5 250/1/5 249/1/5
f 252/1/5 250/1/5 251/1/5
f 255/1/5 254/1/5 253/1/5
f 256/1/5 254/1/5 255/1/5
f 257/1/6 258/1/6 260/1/6
f 260/1/6 258/1/6 261/1/6
f 259/1/6 260/1/6 263/1/6
f 263/1/6 260/1/6 264/1/6
f 261/1/6 262/1/6 265/1/6
f 265/1/6 262/1/6 266/1/6
f 264/1/6 265/1/6 267/1/6
f 267/1/6 265/1/6 268/1/6
f 269/1/6 270/1/6 272/1/6
f 272/1/6 270/1/6 273/1/6
f 271/1/6 272/1/6 275/1/6
f 273/1/6 274/1/6 275/1/6
f 272/1/6 273/1/6 275/1/6
f 275/1/6 274/1/6 276/1/6
f 277/1/6 278/1/6 279/1/6
f 279/1/6 278/1/6 280/1/6
f 281/1/6 282/1/6 283/1/6
f 283/1/6 282/1/6 284/1/6
f 285/2/6 286/2/6 289/2/6
f 289/2/6 286/2/6 290/2/6
f 287/2/6 288/2/6 291/2/6
f 291/2/6 288/2/6 292/2/6
