# MagicaVoxel @ Ephtracy

# group
o Rooms_Window

# material
mtllib room-48-Rooms_Window.mtl
usemtl palette

# normals
vn -1 0 0
vn 1 0 0
vn 0 0 1
vn 0 0 -1
vn 0 -1 0
vn 0 1 0

# texcoords
vt 0.0566406 0.5
vt 0.978516 0.5
vt 0.982422 0.5
vt 0.986328 0.5

# verts
v -1 0.7 0.2
v -1 0.7 -0.3
v -1 0.9 0
v -1 0.9 -0.3
v -1 3.3 0.2
v -1 3.3 0
v 0.8 1 0.1
v 0.8 1 0
v 0.8 2.3 0.1
v 0.8 2.3 0
v 0.8 2.4 0.1
v 0.8 2.4 0
v 0.8 2.5 0.1
v 0.8 2.5 0
v 0.8 2.6 0.1
v 0.8 2.6 0
v 0.8 2.7 0.1
v 0.8 2.7 0
v -0.8 1 0.1
v -0.8 1 0
v -0.8 2.3 0.1
v -0.8 2.3 0
v -0.8 2.4 0.1
v -0.8 2.4 0
v -0.8 2.5 0.1
v -0.8 2.5 0
v -0.8 2.6 0.1
v -0.8 2.6 0
v -0.8 2.7 0.1
v -0.8 2.7 0
v 1 0.7 0.2
v 1 0.7 -0.3
v 1 0.9 0
v 1 0.9 -0.3
v 1 3.3 0.2
v 1 3.3 0
v -1 0.7 0.2
v -1 3.3 0.2
v -0.8 0.9 0.2
v -0.8 1 0.2
v -0.8 2.3 0.2
v -0.8 2.4 0.2
v -0.8 2.5 0.2
v -0.8 2.6 0.2
v -0.8 2.7 0.2
v -0.8 3.1 0.2
v 0.8 0.9 0.2
v 0.8 1 0.2
v 0.8 2.3 0.2
v 0.8 2.4 0.2
v 0.8 2.5 0.2
v 0.8 2.6 0.2
v 0.8 2.7 0.2
v 0.8 3.1 0.2
v 1 0.7 0.2
v 1 3.3 0.2
v -0.8 1 0.1
v -0.8 2.3 0.1
v -0.8 2.4 0.1
v -0.8 2.5 0.1
v -0.8 2.6 0.1
v -0.8 2.7 0.1
v 0.8 1 0.1
v 0.8 2.3 0.1
v 0.8 2.4 0.1
v 0.8 2.5 0.1
v 0.8 2.6 0.1
v 0.8 2.7 0.1
v -1 0.9 0
v -1 3.3 0
v -0.8 1 0
v -0.8 2.3 0
v -0.8 2.4 0
v -0.8 2.5 0
v -0.8 2.6 0
v -0.8 2.7 0
v -0.8 3.1 0
v 0.8 1 0
v 0.8 2.3 0
v 0.8 2.4 0
v 0.8 2.5 0
v 0.8 2.6 0
v 0.8 2.7 0
v 0.8 3.1 0
v 1 0.9 0
v 1 3.3 0
v -1 0.7 -0.3
v -1 0.9 -0.3
v 1 0.7 -0.3
v 1 0.9 -0.3
v -1 0.7 0.2
v 1 0.7 0.2
v -1 0.7 -0.3
v 1 0.7 -0.3
v -0.8 2.3 0.1
v 0.8 2.3 0.1
v -0.8 2.3 0
v 0.8 2.3 0
v -0.8 2.5 0.1
v 0.8 2.5 0.1
v -0.8 2.5 0
v 0.8 2.5 0
v -0.8 2.7 0.1
v 0.8 2.7 0.1
v -0.8 2.7 0
v 0.8 2.7 0
v -1 0.9 0
v 1 0.9 0
v -1 0.9 -0.3
v 1 0.9 -0.3
v -0.8 1 0.1
v 0.8 1 0.1
v -0.8 1 0
v 0.8 1 0
v -0.8 2.4 0.1
v 0.8 2.4 0.1
v -0.8 2.4 0
v 0.8 2.4 0
v -0.8 2.6 0.1
v 0.8 2.6 0.1
v -0.8 2.6 0
v 0.8 2.6 0
v -1 3.3 0.2
v 1 3.3 0.2
v -1 3.3 0
v 1 3.3 0

# faces
f 3/2/1 2/2/1 1/2/1
f 4/2/1 2/2/1 3/2/1
f 5/2/1 3/2/1 1/2/1
f 6/2/1 3/2/1 5/2/1
f 9/2/1 8/2/1 7/2/1
f 10/2/1 8/2/1 9/2/1
f 13/2/1 12/2/1 11/2/1
f 14/2/1 12/2/1 13/2/1
f 17/2/1 16/2/1 15/2/1
f 18/2/1 16/2/1 17/2/1
f 19/2/2 20/2/2 21/2/2
f 21/2/2 20/2/2 22/2/2
f 23/2/2 24/2/2 25/2/2
f 25/2/2 24/2/2 26/2/2
f 27/2/2 28/2/2 29/2/2
f 29/2/2 28/2/2 30/2/2
f 31/2/2 32/2/2 33/2/2
f 33/2/2 32/2/2 34/2/2
f 31/2/2 33/2/2 35/2/2
f 35/2/2 33/2/2 36/2/2
f 39/2/3 38/2/3 37/2/3
f 40/2/3 38/2/3 39/2/3
f 41/2/3 38/2/3 40/2/3
f 42/2/3 38/2/3 41/2/3
f 43/2/3 38/2/3 42/2/3
f 44/2/3 38/2/3 43/2/3
f 45/2/3 38/2/3 44/2/3
f 46/2/3 38/2/3 45/2/3
f 47/2/3 39/2/3 37/2/3
f 47/3/3 40/3/3 39/3/3
f 48/1/3 41/1/3 40/1/3
f 48/3/3 40/3/3 47/3/3
f 49/3/3 42/3/3 41/3/3
f 49/1/3 41/1/3 48/1/3
f 50/1/3 43/1/3 42/1/3
f 50/3/3 42/3/3 49/3/3
f 51/3/3 44/3/3 43/3/3
f 51/1/3 43/1/3 50/1/3
f 52/1/3 45/1/3 44/1/3
f 52/3/3 44/3/3 51/3/3
f 53/3/3 46/3/3 45/3/3
f 53/1/3 45/1/3 52/1/3
f 54/2/3 38/2/3 46/2/3
f 54/3/3 46/3/3 53/3/3
f 55/2/3 53/2/3 52/2/3
f 55/2/3 52/2/3 51/2/3
f 55/2/3 54/2/3 53/2/3
f 55/2/3 51/2/3 50/2/3
f 55/2/3 50/2/3 49/2/3
f 55/2/3 49/2/3 48/2/3
f 55/2/3 48/2/3 47/2/3
f 55/2/3 47/2/3 37/2/3
f 56/2/3 38/2/3 54/2/3
f 56/2/3 54/2/3 55/2/3
f 57/1/4 58/1/4 63/1/4
f 63/1/4 58/1/4 64/1/4
f 59/1/4 60/1/4 65/1/4
f 65/1/4 60/1/4 66/1/4
f 61/1/4 62/1/4 67/1/4
f 67/1/4 62/1/4 68/1/4
f 69/2/4 70/2/4 71/2/4
f 71/2/4 70/2/4 72/2/4
f 72/2/4 70/2/4 73/2/4
f 73/2/4 70/2/4 74/2/4
f 74/2/4 70/2/4 75/2/4
f 75/2/4 70/2/4 76/2/4
f 76/2/4 70/2/4 77/2/4
f 69/2/4 71/2/4 78/2/4
f 72/4/4 73/4/4 79/4/4
f 79/4/4 73/4/4 80/4/4
f 74/4/4 75/4/4 81/4/4
f 81/4/4 75/4/4 82/4/4
f 76/4/4 77/4/4 83/4/4
f 77/2/4 70/2/4 84/2/4
f 83/4/4 77/4/4 84/4/4
f 82/2/4 83/2/4 85/2/4
f 81/2/4 82/2/4 85/2/4
f 83/2/4 84/2/4 85/2/4
f 69/2/4 78/2/4 85/2/4
f 80/2/4 81/2/4 85/2/4
f 79/2/4 80/2/4 85/2/4
f 78/2/4 79/2/4 85/2/4
f 84/2/4 70/2/4 86/2/4
f 85/2/4 84/2/4 86/2/4
f 87/2/4 88/2/4 89/2/4
f 89/2/4 88/2/4 90/2/4
f 93/2/5 92/2/5 91/2/5
f 94/2/5 92/2/5 93/2/5
f 97/4/5 96/4/5 95/4/5
f 98/4/5 96/4/5 97/4/5
f 101/4/5 100/4/5 99/4/5
f 102/4/5 100/4/5 101/4/5
f 105/4/5 104/4/5 103/4/5
f 106/4/5 104/4/5 105/4/5
f 107/2/6 108/2/6 109/2/6
f 109/2/6 108/2/6 110/2/6
f 111/2/6 112/2/6 113/2/6
f 113/2/6 112/2/6 114/2/6
f 115/4/6 116/4/6 117/4/6
f 117/4/6 116/4/6 118/4/6
f 119/4/6 120/4/6 121/4/6
f 121/4/6 120/4/6 122/4/6
f 123/2/6 124/2/6 125/2/6
f 125/2/6 124/2/6 126/2/6
