# MagicaVoxel @ Ephtracy

# group
o PC

# material
mtllib room-38-PC.mtl
usemtl palette

# normals
vn -1 0 0
vn 1 0 0
vn 0 0 1
vn 0 0 -1
vn 0 -1 0
vn 0 1 0

# texcoords
vt 0.0175781 0.5
vt 0.0214844 0.5

# verts
v -0.6 0.8 1.2
v -0.6 0.8 -1.3
v -0.6 3.3 1.2
v -0.6 3.3 -1.3
v 0.2 1.3 -1.2
v 0.2 1.3 -1.3
v 0.2 1.8 -1.2
v 0.2 1.8 -1.3
v 0.3 2.6 -1.2
v 0.3 2.6 -1.3
v 0.3 2.7 -1.2
v 0.3 2.7 -1.3
v 0.4 3 -1.2
v 0.4 3 -1.3
v 0.4 3.1 -1.2
v 0.4 3.1 -1.3
v -0.5 3 -1.2
v -0.5 3 -1.3
v -0.5 3.1 -1.2
v -0.5 3.1 -1.3
v -0.4 2.6 -1.2
v -0.4 2.6 -1.3
v -0.4 2.7 -1.2
v -0.4 2.7 -1.3
v -0.3 1.3 -1.2
v -0.3 1.3 -1.3
v -0.3 1.8 -1.2
v -0.3 1.8 -1.3
v 0.6 0.8 1.2
v 0.6 0.8 -1.3
v 0.6 1 1
v 0.6 1 -0.6
v 0.6 1 -0.7
v 0.6 2.6 1
v 0.6 2.7 1
v 0.6 2.7 -0.7
v 0.6 3.3 1.2
v 0.6 3.3 -1.3
v 0.7 1 1
v 0.7 1 -0.6
v 0.7 1 -0.7
v 0.7 2.6 1
v 0.7 2.6 -0.6
v 0.7 2.7 1
v 0.7 2.7 -0.7
v -0.6 0.8 1.2
v -0.6 3.3 1.2
v 0.6 0.8 1.2
v 0.6 3.3 1.2
v 0.6 1 1
v 0.6 2.6 1
v 0.6 2.7 1
v 0.7 1 1
v 0.7 2.6 1
v 0.7 2.7 1
v 0.6 1 -0.7
v 0.6 2.7 -0.7
v 0.7 1 -0.7
v 0.7 2.7 -0.7
v -0.5 3 -1.2
v -0.5 3.1 -1.2
v -0.4 2.6 -1.2
v -0.4 2.7 -1.2
v -0.3 1.3 -1.2
v -0.3 1.8 -1.2
v 0.2 1.3 -1.2
v 0.2 1.8 -1.2
v 0.3 2.6 -1.2
v 0.3 2.7 -1.2
v 0.4 3 -1.2
v 0.4 3.1 -1.2
v -0.6 0.8 -1.3
v -0.6 3.3 -1.3
v -0.5 2.8 -1.3
v -0.5 3 -1.3
v -0.5 3.1 -1.3
v -0.4 2.4 -1.3
v -0.4 2.6 -1.3
v -0.4 2.7 -1.3
v -0.3 1.3 -1.3
v -0.3 1.8 -1.3
v 0.2 1.3 -1.3
v 0.2 1.8 -1.3
v 0.3 2.4 -1.3
v 0.3 2.6 -1.3
v 0.3 2.7 -1.3
v 0.4 2.8 -1.3
v 0.4 3 -1.3
v 0.4 3.1 -1.3
v 0.6 0.8 -1.3
v 0.6 3.3 -1.3
v -0.6 0.8 1.2
v 0.6 0.8 1.2
v -0.6 0.8 -1.3
v 0.6 0.8 -1.3
v 0.6 1 1
v 0.7 1 1
v 0.6 1 -0.6
v 0.7 1 -0.6
v 0.6 1 -0.7
v 0.7 1 -0.7
v -0.3 1.8 -1.2
v 0.2 1.8 -1.2
v -0.3 1.8 -1.3
v 0.2 1.8 -1.3
v -0.4 2.7 -1.2
v 0.3 2.7 -1.2
v -0.4 2.7 -1.3
v 0.3 2.7 -1.3
v -0.5 3.1 -1.2
v 0.4 3.1 -1.2
v -0.5 3.1 -1.3
v 0.4 3.1 -1.3
v -0.3 1.3 -1.2
v 0.2 1.3 -1.2
v -0.3 1.3 -1.3
v 0.2 1.3 -1.3
v -0.4 2.6 -1.2
v 0.3 2.6 -1.2
v -0.4 2.6 -1.3
v 0.3 2.6 -1.3
v 0.6 2.7 1
v 0.7 2.7 1
v 0.6 2.7 -0.7
v 0.7 2.7 -0.7
v -0.5 3 -1.2
v 0.4 3 -1.2
v -0.5 3 -1.3
v 0.4 3 -1.3
v -0.6 3.3 1.2
v 0.6 3.3 1.2
v -0.6 3.3 -1.3
v 0.6 3.3 -1.3

# faces
f 3/2/1 2/2/1 1/2/1
f 4/2/1 2/2/1 3/2/1
f 7/2/1 6/2/1 5/2/1
f 8/2/1 6/2/1 7/2/1
f 11/2/1 10/2/1 9/2/1
f 12/2/1 10/2/1 11/2/1
f 15/2/1 14/2/1 13/2/1
f 16/2/1 14/2/1 15/2/1
f 17/2/2 18/2/2 19/2/2
f 19/2/2 18/2/2 20/2/2
f 21/2/2 22/2/2 23/2/2
f 23/2/2 22/2/2 24/2/2
f 25/2/2 26/2/2 27/2/2
f 27/2/2 26/2/2 28/2/2
f 29/2/2 30/2/2 31/2/2
f 31/2/2 30/2/2 32/2/2
f 32/2/2 30/2/2 33/2/2
f 29/2/2 31/2/2 34/2/2
f 29/2/2 34/2/2 35/2/2
f 33/2/2 30/2/2 36/2/2
f 29/2/2 35/2/2 37/2/2
f 35/2/2 36/2/2 37/2/2
f 36/2/2 30/2/2 38/2/2
f 37/2/2 36/2/2 38/2/2
f 39/2/2 40/2/2 42/2/2
f 40/1/2 41/1/2 43/1/2
f 42/2/2 40/2/2 43/2/2
f 42/1/2 43/1/2 44/1/2
f 43/1/2 41/1/2 45/1/2
f 44/1/2 43/1/2 45/1/2
f 48/2/3 47/2/3 46/2/3
f 49/2/3 47/2/3 48/2/3
f 53/2/3 51/2/3 50/2/3
f 54/1/3 52/1/3 51/1/3
f 54/2/3 51/2/3 53/2/3
f 55/1/3 52/1/3 54/1/3
f 56/1/4 57/1/4 58/1/4
f 58/1/4 57/1/4 59/1/4
f 64/1/4 65/1/4 66/1/4
f 66/1/4 65/1/4 67/1/4
f 62/1/4 63/1/4 68/1/4
f 68/1/4 63/1/4 69/1/4
f 60/1/4 61/1/4 70/1/4
f 70/1/4 61/1/4 71/1/4
f 72/2/4 73/2/4 74/2/4
f 74/2/4 73/2/4 75/2/4
f 75/2/4 73/2/4 76/2/4
f 72/2/4 74/2/4 77/2/4
f 77/2/4 74/2/4 78/2/4
f 78/2/4 74/2/4 79/2/4
f 72/2/4 77/2/4 80/2/4
f 80/2/4 77/2/4 81/2/4
f 72/2/4 80/2/4 82/2/4
f 81/2/4 77/2/4 83/2/4
f 77/1/4 78/1/4 84/1/4
f 82/2/4 83/2/4 84/2/4
f 83/2/4 77/2/4 84/2/4
f 84/1/4 78/1/4 85/1/4
f 79/2/4 74/2/4 86/2/4
f 74/1/4 75/1/4 87/1/4
f 85/2/4 86/2/4 87/2/4
f 86/2/4 74/2/4 87/2/4
f 84/2/4 85/2/4 87/2/4
f 87/1/4 75/1/4 88/1/4
f 76/2/4 73/2/4 89/2/4
f 87/2/4 88/2/4 90/2/4
f 88/2/4 89/2/4 90/2/4
f 82/2/4 84/2/4 90/2/4
f 72/2/4 82/2/4 90/2/4
f 84/2/4 87/2/4 90/2/4
f 89/2/4 73/2/4 91/2/4
f 90/2/4 89/2/4 91/2/4
f 94/2/5 93/2/5 92/2/5
f 95/2/5 93/2/5 94/2/5
f 98/2/5 97/2/5 96/2/5
f 99/2/5 97/2/5 98/2/5
f 100/1/5 99/1/5 98/1/5
f 101/1/5 99/1/5 100/1/5
f 104/2/5 103/2/5 102/2/5
f 105/2/5 103/2/5 104/2/5
f 108/2/5 107/2/5 106/2/5
f 109/2/5 107/2/5 108/2/5
f 112/2/5 111/2/5 110/2/5
f 113/2/5 111/2/5 112/2/5
f 114/2/6 115/2/6 116/2/6
f 116/2/6 115/2/6 117/2/6
f 118/1/6 119/1/6 120/1/6
f 120/1/6 119/1/6 121/1/6
f 122/1/6 123/1/6 124/1/6
f 124/1/6 123/1/6 125/1/6
f 126/1/6 127/1/6 128/1/6
f 128/1/6 127/1/6 129/1/6
f 130/2/6 131/2/6 132/2/6
f 132/2/6 131/2/6 133/2/6
