# MagicaVoxel @ Ephtracy

# group
o NewRoom

# material
mtllib room-14-NewRoom.mtl
usemtl palette

# normals
vn -1 0 0
vn 1 0 0
vn 0 0 1
vn 0 0 -1
vn 0 -1 0
vn 0 1 0

# texcoords
vt 0.908203 0.5
vt 0.912109 0.5

# verts
v -1.5 0.5 2.4
v -1.5 0.5 -2.3
v -1.5 0.5 -2.4
v -1.5 0.6 2.4
v -1.5 0.6 -2.3
v -1.5 3.5 2.4
v -1.5 3.5 -2.4
v -1.4 0.6 2.3
v -1.4 0.6 -2.4
v -1.4 3.5 2.3
v -1.4 3.5 -2.4
v 1.5 0.5 2.4
v 1.5 0.5 -2.4
v 1.5 0.6 2.4
v 1.5 0.6 2.3
v 1.5 0.6 -2.4
v 1.5 3.5 2.4
v 1.5 3.5 2.3
v -1.5 0.5 2.4
v -1.5 0.6 2.4
v -1.5 3.5 2.4
v 1.5 0.5 2.4
v 1.5 0.6 2.4
v 1.5 3.5 2.4
v -1.4 0.6 2.3
v -1.4 3.5 2.3
v 1.5 0.6 2.3
v 1.5 3.5 2.3
v -1.5 0.5 -2.4
v -1.5 3.5 -2.4
v -1.4 0.5 -2.4
v -1.4 0.6 -2.4
v -1.4 3.5 -2.4
v 1.5 0.5 -2.4
v 1.5 0.6 -2.4
v -1.5 0.5 2.4
v 1.5 0.5 2.4
v -1.5 0.5 -2.3
v -1.4 0.5 -2.3
v -1.5 0.5 -2.4
v -1.4 0.5 -2.4
v 1.5 0.5 -2.4
v -1.4 0.6 2.3
v 1.5 0.6 2.3
v -1.4 0.6 -2.4
v 1.5 0.6 -2.4
v -1.5 3.5 2.4
v 1.5 3.5 2.4
v -1.4 3.5 2.3
v 1.5 3.5 2.3
v -1.5 3.5 -2.4
v -1.4 3.5 -2.4

# faces
f 4/2/1 2/2/1 1/2/1
f 5/1/1 3/1/1 2/1/1
f 5/2/1 2/2/1 4/2/1
f 6/1/1 5/1/1 4/1/1
f 7/1/1 3/1/1 5/1/1
f 7/1/1 5/1/1 6/1/1
f 8/1/2 9/1/2 10/1/2
f 10/1/2 9/1/2 11/1/2
f 12/2/2 13/2/2 14/2/2
f 14/2/2 13/2/2 15/2/2
f 15/2/2 13/2/2 16/2/2
f 14/1/2 15/1/2 17/1/2
f 17/1/2 15/1/2 18/1/2
f 22/2/3 20/2/3 19/2/3
f 23/1/3 21/1/3 20/1/3
f 23/2/3 20/2/3 22/2/3
f 24/1/3 21/1/3 23/1/3
f 25/1/4 26/1/4 27/1/4
f 27/1/4 26/1/4 28/1/4
f 29/1/4 30/1/4 31/1/4
f 31/1/4 30/1/4 32/1/4
f 32/1/4 30/1/4 33/1/4
f 31/2/4 32/2/4 34/2/4
f 34/2/4 32/2/4 35/2/4
f 38/2/5 37/2/5 36/2/5
f 39/2/5 37/2/5 38/2/5
f 40/1/5 39/1/5 38/1/5
f 41/2/5 37/2/5 39/2/5
f 41/1/5 39/1/5 40/1/5
f 42/2/5 37/2/5 41/2/5
f 43/2/6 44/2/6 45/2/6
f 45/2/6 44/2/6 46/2/6
f 47/1/6 48/1/6 49/1/6
f 49/1/6 48/1/6 50/1/6
f 47/1/6 49/1/6 51/1/6
f 51/1/6 49/1/6 52/1/6
