# MagicaVoxel @ Ephtracy

# group
o Furniture_New

# material
mtllib room-26-Furniture_New.mtl
usemtl palette

# normals
vn -1 0 0
vn 1 0 0
vn 0 0 1
vn 0 0 -1
vn 0 -1 0
vn 0 1 0

# texcoords
vt 0.0839844 0.5
vt 0.0878906 0.5
vt 0.978516 0.5

# verts
v -1 1.1 0.8
v -1 1.1 -0.7
v -1 2.8 -0.7
v -1 2.8 -0.8
v -1 2.9 0.8
v -1 2.9 -0.8
v -0.9 1.5 -0.7
v -0.9 1.5 -0.8
v -0.9 2.1 -0.7
v -0.9 2.1 -0.8
v -0.3 1.8 -0.8
v -0.3 1.8 -0.9
v -0.3 1.9 -0.8
v -0.3 1.9 -0.9
v -0.3 2.5 -0.7
v -0.3 2.5 -0.8
v -0.3 2.6 -0.7
v -0.3 2.6 -0.8
v 0.9 1.1 0.8
v 0.9 1.1 0.7
v 0.9 1.1 -0.6
v 0.9 1.1 -0.7
v 0.9 1.4 -0.6
v 0.9 1.4 -0.7
v 0.9 2.8 0.8
v 0.9 2.8 0.7
v -0.9 1.1 0.8
v -0.9 1.1 0.7
v -0.9 1.1 -0.6
v -0.9 1.1 -0.7
v -0.9 1.4 -0.6
v -0.9 1.4 -0.7
v -0.9 2.8 0.8
v -0.9 2.8 0.7
v 0.3 1.8 -0.8
v 0.3 1.8 -0.9
v 0.3 1.9 -0.8
v 0.3 1.9 -0.9
v 0.3 2.5 -0.7
v 0.3 2.5 -0.8
v 0.3 2.6 -0.7
v 0.3 2.6 -0.8
v 0.9 1.5 -0.7
v 0.9 1.5 -0.8
v 0.9 2.1 -0.7
v 0.9 2.1 -0.8
v 1 1.1 0.8
v 1 1.1 -0.7
v 1 2.8 -0.7
v 1 2.8 -0.8
v 1 2.9 0.8
v 1 2.9 -0.8
v -1 1.1 0.8
v -1 2.9 0.8
v -0.9 1.1 0.8
v -0.9 2.8 0.8
v 0.9 1.1 0.8
v 0.9 2.8 0.8
v 1 1.1 0.8
v 1 2.9 0.8
v -0.9 1.1 0.7
v -0.9 2.8 0.7
v 0.9 1.1 0.7
v 0.9 2.8 0.7
v -0.9 1.1 -0.6
v -0.9 1.4 -0.6
v 0.9 1.1 -0.6
v 0.9 1.4 -0.6
v -1 1.1 -0.7
v -1 2.8 -0.7
v -0.9 1.1 -0.7
v -0.9 1.4 -0.7
v -0.9 1.5 -0.7
v -0.9 2.1 -0.7
v -0.9 2.2 -0.7
v -0.9 2.8 -0.7
v -0.3 2.5 -0.7
v -0.3 2.6 -0.7
v 0.3 2.5 -0.7
v 0.3 2.6 -0.7
v 0.9 1.1 -0.7
v 0.9 1.4 -0.7
v 0.9 1.5 -0.7
v 0.9 2.1 -0.7
v 0.9 2.2 -0.7
v 0.9 2.8 -0.7
v 1 1.1 -0.7
v 1 2.8 -0.7
v -1 2.8 -0.8
v -1 2.9 -0.8
v -0.9 1.5 -0.8
v -0.9 2.1 -0.8
v -0.3 1.8 -0.8
v -0.3 1.9 -0.8
v -0.3 2.5 -0.8
v -0.3 2.6 -0.8
v 0.3 1.8 -0.8
v 0.3 1.9 -0.8
v 0.3 2.5 -0.8
v 0.3 2.6 -0.8
v 0.9 1.5 -0.8
v 0.9 2.1 -0.8
v 1 2.8 -0.8
v 1 2.9 -0.8
v -0.3 1.8 -0.9
v -0.3 1.9 -0.9
v 0.3 1.8 -0.9
v 0.3 1.9 -0.9
v -1 1.1 0.8
v -0.9 1.1 0.8
v 0.9 1.1 0.8
v 1 1.1 0.8
v -0.9 1.1 0.7
v 0.9 1.1 0.7
v -0.9 1.1 -0.6
v 0.9 1.1 -0.6
v -1 1.1 -0.7
v -0.9 1.1 -0.7
v 0.9 1.1 -0.7
v 1 1.1 -0.7
v -0.9 1.4 -0.6
v 0.9 1.4 -0.6
v -0.9 1.4 -0.7
v 0.9 1.4 -0.7
v -0.9 1.5 -0.7
v 0.9 1.5 -0.7
v -0.9 1.5 -0.8
v 0.9 1.5 -0.8
v -0.3 1.8 -0.8
v 0.3 1.8 -0.8
v -0.3 1.8 -0.9
v 0.3 1.8 -0.9
v -0.3 2.5 -0.7
v 0.3 2.5 -0.7
v -0.3 2.5 -0.8
v 0.3 2.5 -0.8
v -0.9 2.8 0.8
v 0.9 2.8 0.8
v -0.9 2.8 0.7
v 0.9 2.8 0.7
v -1 2.8 -0.7
v -0.9 2.8 -0.7
v 0.9 2.8 -0.7
v 1 2.8 -0.7
v -1 2.8 -0.8
v 1 2.8 -0.8
v -0.3 1.9 -0.8
v 0.3 1.9 -0.8
v -0.3 1.9 -0.9
v 0.3 1.9 -0.9
v -0.9 2.1 -0.7
v 0.9 2.1 -0.7
v -0.9 2.1 -0.8
v 0.9 2.1 -0.8
v -0.3 2.6 -0.7
v 0.3 2.6 -0.7
v -0.3 2.6 -0.8
v 0.3 2.6 -0.8
v -1 2.9 0.8
v 1 2.9 0.8
v -1 2.9 -0.8
v 1 2.9 -0.8

# faces
f 3/2/1 2/2/1 1/2/1
f 5/2/1 3/2/1 1/2/1
f 5/2/1 4/2/1 3/2/1
f 6/2/1 4/2/1 5/2/1
f 9/1/1 8/1/1 7/1/1
f 10/1/1 8/1/1 9/1/1
f 13/3/1 12/3/1 11/3/1
f 14/3/1 12/3/1 13/3/1
f 17/3/1 16/3/1 15/3/1
f 18/3/1 16/3/1 17/3/1
f 23/2/1 22/2/1 21/2/1
f 24/2/1 22/2/1 23/2/1
f 25/2/1 20/2/1 19/2/1
f 26/2/1 20/2/1 25/2/1
f 29/2/2 30/2/2 31/2/2
f 31/2/2 30/2/2 32/2/2
f 27/2/2 28/2/2 33/2/2
f 33/2/2 28/2/2 34/2/2
f 35/3/2 36/3/2 37/3/2
f 37/3/2 36/3/2 38/3/2
f 39/3/2 40/3/2 41/3/2
f 41/3/2 40/3/2 42/3/2
f 43/1/2 44/1/2 45/1/2
f 45/1/2 44/1/2 46/1/2
f 47/2/2 48/2/2 49/2/2
f 47/2/2 49/2/2 51/2/2
f 49/2/2 50/2/2 51/2/2
f 51/2/2 50/2/2 52/2/2
f 55/2/3 54/2/3 53/2/3
f 56/2/3 54/2/3 55/2/3
f 58/2/3 54/2/3 56/2/3
f 59/2/3 58/2/3 57/2/3
f 60/2/3 54/2/3 58/2/3
f 60/2/3 58/2/3 59/2/3
f 63/1/3 62/1/3 61/1/3
f 64/1/3 62/1/3 63/1/3
f 65/1/4 66/1/4 67/1/4
f 67/1/4 66/1/4 68/1/4
f 69/2/4 70/2/4 71/2/4
f 71/2/4 70/2/4 72/2/4
f 72/2/4 70/2/4 73/2/4
f 73/2/4 70/2/4 74/2/4
f 74/2/4 70/2/4 75/2/4
f 75/2/4 70/2/4 76/2/4
f 75/1/4 76/1/4 77/1/4
f 77/1/4 76/1/4 78/1/4
f 75/1/4 77/1/4 79/1/4
f 78/1/4 76/1/4 80/1/4
f 72/2/4 73/2/4 82/2/4
f 82/2/4 73/2/4 83/2/4
f 74/2/4 75/2/4 84/2/4
f 79/1/4 80/1/4 85/1/4
f 75/1/4 79/1/4 85/1/4
f 84/2/4 75/2/4 85/2/4
f 80/1/4 76/1/4 86/1/4
f 85/1/4 80/1/4 86/1/4
f 83/2/4 84/2/4 87/2/4
f 82/2/4 83/2/4 87/2/4
f 85/2/4 86/2/4 87/2/4
f 81/2/4 82/2/4 87/2/4
f 84/2/4 85/2/4 87/2/4
f 87/2/4 86/2/4 88/2/4
f 91/1/4 92/1/4 93/1/4
f 93/1/4 92/1/4 94/1/4
f 91/1/4 93/1/4 97/1/4
f 94/1/4 92/1/4 98/1/4
f 95/3/4 96/3/4 99/3/4
f 99/3/4 96/3/4 100/3/4
f 97/1/4 98/1/4 101/1/4
f 91/1/4 97/1/4 101/1/4
f 98/1/4 92/1/4 102/1/4
f 101/1/4 98/1/4 102/1/4
f 89/2/4 90/2/4 103/2/4
f 103/2/4 90/2/4 104/2/4
f 105/3/4 106/3/4 107/3/4
f 107/3/4 106/3/4 108/3/4
f 113/2/5 110/2/5 109/2/5
f 114/2/5 112/2/5 111/2/5
f 115/2/5 113/2/5 109/2/5
f 115/1/5 114/1/5 113/1/5
f 116/2/5 112/2/5 114/2/5
f 116/1/5 114/1/5 115/1/5
f 117/2/5 115/2/5 109/2/5
f 118/2/5 115/2/5 117/2/5
f 119/2/5 112/2/5 116/2/5
f 120/2/5 112/2/5 119/2/5
f 123/2/5 122/2/5 121/2/5
f 124/2/5 122/2/5 123/2/5
f 127/1/5 126/1/5 125/1/5
f 128/1/5 126/1/5 127/1/5
f 131/3/5 130/3/5 129/3/5
f 132/3/5 130/3/5 131/3/5
f 135/3/5 134/3/5 133/3/5
f 136/3/5 134/3/5 135/3/5
f 139/2/5 138/2/5 137/2/5
f 140/2/5 138/2/5 139/2/5
f 145/2/5 143/2/5 142/2/5
f 145/2/5 144/2/5 143/2/5
f 145/2/5 142/2/5 141/2/5
f 146/2/5 144/2/5 145/2/5
f 147/3/6 148/3/6 149/3/6
f 149/3/6 148/3/6 150/3/6
f 151/1/6 152/1/6 153/1/6
f 153/1/6 152/1/6 154/1/6
f 155/3/6 156/3/6 157/3/6
f 157/3/6 156/3/6 158/3/6
f 159/2/6 160/2/6 161/2/6
f 161/2/6 160/2/6 162/2/6
