# MagicaVoxel @ Ephtracy

# group
o Interior

# material
mtllib room-11-Interior.mtl
usemtl palette

# normals
vn -1 0 0
vn 1 0 0
vn 0 0 1
vn 0 0 -1
vn 0 -1 0
vn 0 1 0

# texcoords
vt 0.00976563 0.5
vt 0.0136719 0.5
vt 0.0175781 0.5

# verts
v -0.6 2 0.8
v -0.6 2 -1
v -0.6 2.1 0.8
v -0.6 2.1 -1
v -0.5 1.9 0.9
v -0.5 1.9 -0.9
v -0.5 2 0.9
v -0.5 2 0.8
v -0.5 2 -0.9
v -0.5 2.1 0.9
v -0.5 2.1 0.8
v -0.5 2.1 -0.9
v -0.5 2.2 0.9
v -0.5 2.2 -0.9
v 0.5 2 0.8
v 0.5 2 -0.9
v 0.5 2 -1
v 0.5 2.1 0.8
v 0.5 2.1 -0.9
v 0.5 2.1 -1
v 0.6 1.9 0.9
v 0.6 1.9 -0.9
v 0.6 2 0.9
v 0.6 2 -0.9
v 0.6 2.1 0.9
v 0.6 2.1 -0.9
v 0.6 2.2 0.9
v 0.6 2.2 -0.9
v -0.5 1.9 0.9
v -0.5 2 0.9
v -0.5 2.1 0.9
v -0.5 2.2 0.9
v 0.6 1.9 0.9
v 0.6 2 0.9
v 0.6 2.1 0.9
v 0.6 2.2 0.9
v -0.6 2 0.8
v -0.6 2.1 0.8
v -0.5 2 0.8
v -0.5 2.1 0.8
v 0.5 2 0.8
v 0.5 2.1 0.8
v -0.5 1.9 -0.9
v -0.5 2 -0.9
v -0.5 2.1 -0.9
v -0.5 2.2 -0.9
v 0.5 2 -0.9
v 0.5 2.1 -0.9
v 0.6 1.9 -0.9
v 0.6 2 -0.9
v 0.6 2.1 -0.9
v 0.6 2.2 -0.9
v -0.6 2 -1
v -0.6 2.1 -1
v 0.5 2 -1
v 0.5 2.1 -1
v -0.5 1.9 0.9
v 0.6 1.9 0.9
v -0.5 1.9 -0.9
v 0.6 1.9 -0.9
v -0.6 2 0.8
v -0.5 2 0.8
v -0.5 2 -0.9
v 0.5 2 -0.9
v -0.6 2 -1
v 0.5 2 -1
v -0.5 2.1 0.9
v 0.6 2.1 0.9
v -0.5 2.1 0.8
v 0.5 2.1 0.8
v 0.5 2.1 -0.9
v 0.6 2.1 -0.9
v -0.5 2 0.9
v 0.6 2 0.9
v -0.5 2 0.8
v 0.5 2 0.8
v 0.5 2 -0.9
v 0.6 2 -0.9
v -0.6 2.1 0.8
v -0.5 2.1 0.8
v -0.5 2.1 -0.9
v 0.5 2.1 -0.9
v -0.6 2.1 -1
v 0.5 2.1 -1
v -0.5 2.2 0.9
v 0.6 2.2 0.9
v -5.96046e-008 2.2 0.8
v 0.5 2.2 0.8
v -5.96046e-008 2.2 0.7
v 0.5 2.2 0.7
v -0.4 2.2 0.5
v 0.5 2.2 0.5
v -0.4 2.2 0.4
v 0.5 2.2 0.4
v -0.4 2.2 0.3
v 0.5 2.2 0.3
v -0.4 2.2 0.2
v 0.5 2.2 0.2
v -0.4 2.2 0.1
v 0.1 2.2 0.1
v 0.2 2.2 0.1
v 0.5 2.2 0.1
v -0.4 2.2 0
v 0.1 2.2 0
v 0.2 2.2 0
v 0.5 2.2 0
v -0.4 2.2 -0.1
v -5.96046e-008 2.2 -0.1
v 0.1 2.2 -0.1
v 0.5 2.2 -0.1
v -0.4 2.2 -0.2
v -5.96046e-008 2.2 -0.2
v 0.1 2.2 -0.2
v 0.5 2.2 -0.2
v -0.4 2.2 -0.3
v -0.2 2.2 -0.3
v -0.1 2.2 -0.3
v 0.3 2.2 -0.3
v 0.4 2.2 -0.3
v 0.5 2.2 -0.3
v -0.4 2.2 -0.4
v -0.2 2.2 -0.4
v -0.1 2.2 -0.4
v 0.3 2.2 -0.4
v 0.4 2.2 -0.4
v 0.5 2.2 -0.4
v -5.96046e-008 2.2 -0.5
v 0.5 2.2 -0.5
v -5.96046e-008 2.2 -0.6
v 0.5 2.2 -0.6
v -0.4 2.2 -0.7
v -0.1 2.2 -0.7
v -0.4 2.2 -0.8
v -0.1 2.2 -0.8
v -0.5 2.2 -0.9
v 0.6 2.2 -0.9

# faces
f 3/3/1 2/3/1 1/3/1
f 4/3/1 2/3/1 3/3/1
f 7/3/1 6/3/1 5/3/1
f 8/3/1 6/3/1 7/3/1
f 9/3/1 6/3/1 8/3/1
f 13/1/1 11/1/1 10/1/1
f 13/1/1 12/1/1 11/1/1
f 14/1/1 12/1/1 13/1/1
f 15/3/2 16/3/2 18/3/2
f 16/3/2 17/3/2 18/3/2
f 18/3/2 17/3/2 19/3/2
f 19/3/2 17/3/2 20/3/2
f 21/3/2 22/3/2 23/3/2
f 23/3/2 22/3/2 24/3/2
f 25/1/2 26/1/2 27/1/2
f 27/1/2 26/1/2 28/1/2
f 33/3/3 30/3/3 29/3/3
f 34/3/3 30/3/3 33/3/3
f 35/1/3 32/1/3 31/1/3
f 36/1/3 32/1/3 35/1/3
f 39/3/3 38/3/3 37/3/3
f 40/3/3 38/3/3 39/3/3
f 41/3/3 40/3/3 39/3/3
f 42/3/3 40/3/3 41/3/3
f 43/3/4 44/3/4 47/3/4
f 45/1/4 46/1/4 48/1/4
f 43/3/4 47/3/4 49/3/4
f 49/3/4 47/3/4 50/3/4
f 48/1/4 46/1/4 51/1/4
f 51/1/4 46/1/4 52/1/4
f 53/3/4 54/3/4 55/3/4
f 55/3/4 54/3/4 56/3/4
f 59/3/5 58/3/5 57/3/5
f 60/3/5 58/3/5 59/3/5
f 63/3/5 62/3/5 61/3/5
f 65/3/5 63/3/5 61/3/5
f 65/3/5 64/3/5 63/3/5
f 66/3/5 64/3/5 65/3/5
f 69/1/5 68/1/5 67/1/5
f 70/1/5 68/1/5 69/1/5
f 71/1/5 68/1/5 70/1/5
f 72/1/5 68/1/5 71/1/5
f 73/3/6 74/3/6 75/3/6
f 75/3/6 74/3/6 76/3/6
f 76/3/6 74/3/6 77/3/6
f 77/3/6 74/3/6 78/3/6
f 79/3/6 80/3/6 81/3/6
f 79/3/6 81/3/6 83/3/6
f 81/3/6 82/3/6 83/3/6
f 83/3/6 82/3/6 84/3/6
f 85/1/6 86/1/6 87/1/6
f 87/1/6 86/1/6 88/1/6
f 85/1/6 87/1/6 89/1/6
f 87/2/6 88/2/6 89/2/6
f 88/1/6 86/1/6 90/1/6
f 89/2/6 88/2/6 90/2/6
f 85/1/6 89/1/6 91/1/6
f 89/1/6 90/1/6 91/1/6
f 90/1/6 86/1/6 92/1/6
f 91/1/6 90/1/6 92/1/6
f 85/1/6 91/1/6 93/1/6
f 91/2/6 92/2/6 93/2/6
f 92/1/6 86/1/6 94/1/6
f 93/2/6 92/2/6 94/2/6
f 85/1/6 93/1/6 95/1/6
f 93/1/6 94/1/6 95/1/6
f 94/1/6 86/1/6 96/1/6
f 95/1/6 94/1/6 96/1/6
f 85/1/6 95/1/6 97/1/6
f 95/2/6 96/2/6 97/2/6
f 96/1/6 86/1/6 98/1/6
f 97/2/6 96/2/6 98/2/6
f 85/1/6 97/1/6 99/1/6
f 97/1/6 98/1/6 99/1/6
f 99/1/6 98/1/6 100/1/6
f 100/1/6 98/1/6 101/1/6
f 98/1/6 86/1/6 102/1/6
f 101/1/6 98/1/6 102/1/6
f 85/1/6 99/1/6 103/1/6
f 99/2/6 100/2/6 103/2/6
f 100/1/6 101/1/6 104/1/6
f 103/2/6 100/2/6 104/2/6
f 101/2/6 102/2/6 105/2/6
f 104/1/6 101/1/6 105/1/6
f 102/1/6 86/1/6 106/1/6
f 105/2/6 102/2/6 106/2/6
f 85/1/6 103/1/6 107/1/6
f 104/1/6 105/1/6 107/1/6
f 105/1/6 106/1/6 107/1/6
f 103/1/6 104/1/6 107/1/6
f 107/1/6 106/1/6 108/1/6
f 108/1/6 106/1/6 109/1/6
f 106/1/6 86/1/6 110/1/6
f 109/1/6 106/1/6 110/1/6
f 85/1/6 107/1/6 111/1/6
f 107/2/6 108/2/6 111/2/6
f 108/1/6 109/1/6 112/1/6
f 111/2/6 108/2/6 112/2/6
f 109/2/6 110/2/6 113/2/6
f 112/1/6 109/1/6 113/1/6
f 110/1/6 86/1/6 114/1/6
f 113/2/6 110/2/6 114/2/6
f 85/1/6 111/1/6 115/1/6
f 112/1/6 113/1/6 115/1/6
f 113/1/6 114/1/6 115/1/6
f 111/1/6 112/1/6 115/1/6
f 115/1/6 114/1/6 116/1/6
f 116/1/6 114/1/6 117/1/6
f 117/1/6 114/1/6 118/1/6
f 118/1/6 114/1/6 119/1/6
f 114/1/6 86/1/6 120/1/6
f 119/1/6 114/1/6 120/1/6
f 85/1/6 115/1/6 121/1/6
f 115/2/6 116/2/6 121/2/6
f 116/1/6 117/1/6 122/1/6
f 121/2/6 116/2/6 122/2/6
f 117/2/6 118/2/6 123/2/6
f 122/1/6 117/1/6 123/1/6
f 118/1/6 119/1/6 124/1/6
f 123/2/6 118/2/6 124/2/6
f 119/2/6 120/2/6 125/2/6
f 124/1/6 119/1/6 125/1/6
f 120/1/6 86/1/6 126/1/6
f 125/2/6 120/2/6 126/2/6
f 122/1/6 123/1/6 127/1/6
f 124/1/6 125/1/6 127/1/6
f 125/1/6 126/1/6 127/1/6
f 121/1/6 122/1/6 127/1/6
f 123/1/6 124/1/6 127/1/6
f 126/1/6 86/1/6 128/1/6
f 127/1/6 126/1/6 128/1/6
f 121/1/6 127/1/6 129/1/6
f 127/2/6 128/2/6 129/2/6
f 128/1/6 86/1/6 130/1/6
f 129/2/6 128/2/6 130/2/6
f 121/1/6 129/1/6 131/1/6
f 85/1/6 121/1/6 131/1/6
f 129/1/6 130/1/6 131/1/6
f 131/1/6 130/1/6 132/1/6
f 85/1/6 131/1/6 133/1/6
f 131/2/6 132/2/6 133/2/6
f 132/1/6 130/1/6 134/1/6
f 133/2/6 132/2/6 134/2/6
f 85/1/6 133/1/6 135/1/6
f 133/1/6 134/1/6 135/1/6
f 130/1/6 86/1/6 136/1/6
f 135/1/6 134/1/6 136/1/6
f 134/1/6 130/1/6 136/1/6
