# MagicaVoxel @ Ephtracy

# group
o Furniture_Old

# material
mtllib room-46-Furniture_Old.mtl
usemtl palette

# normals
vn -1 0 0
vn 1 0 0
vn 0 0 1
vn 0 0 -1
vn 0 -1 0
vn 0 1 0

# texcoords
vt 0.943359 0.5
vt 0.990234 0.5
vt 0.994141 0.5

# verts
v -1.3 1.5 0.6
v -1.3 1.5 0.4
v -1.3 1.5 -0.4
v -1.3 1.5 -0.6
v -1.3 1.9 0.4
v -1.3 1.9 -0.4
v -1.3 2.1 0.4
v -1.3 2.1 -0.4
v -1.3 2.3 0.4
v -1.3 2.3 -0.4
v -1.3 2.4 0.6
v -1.3 2.4 0.4
v -1.3 2.4 -0.4
v -1.3 2.4 -0.6
v -1.2 2.3 0.4
v -1.2 2.3 -0.4
v -1.2 2.4 0.4
v -1.2 2.4 -0.4
v -1.2 2.5 0.4
v -1.2 2.5 -0.4
v -0.6 2.3 0.4
v -0.6 2.3 -0.4
v -0.6 2.4 0.4
v -0.6 2.4 -0.4
v 1.1 1.5 0.6
v 1.1 1.5 0.4
v 1.1 1.5 -0.4
v 1.1 1.5 -0.6
v 1.1 1.9 0.6
v 1.1 1.9 0.4
v 1.1 1.9 -0.4
v 1.1 1.9 -0.6
v 1.1 2.1 0.6
v 1.1 2.1 0.5
v 1.1 2.1 -0.5
v 1.1 2.1 -0.6
v 1.1 2.3 0.5
v 1.1 2.3 0.4
v 1.1 2.3 -0.4
v 1.1 2.3 -0.5
v 1.1 2.4 0.6
v 1.1 2.4 0.4
v 1.1 2.4 -0.4
v 1.1 2.4 -0.6
v -1.1 1.5 0.6
v -1.1 1.5 0.4
v -1.1 1.5 -0.4
v -1.1 1.5 -0.6
v -1.1 1.9 0.6
v -1.1 1.9 0.4
v -1.1 1.9 -0.4
v -1.1 1.9 -0.6
v -1.1 2.1 0.6
v -1.1 2.1 0.5
v -1.1 2.1 -0.5
v -1.1 2.1 -0.6
v -1.1 2.3 0.5
v -1.1 2.3 0.4
v -1.1 2.3 -0.4
v -1.1 2.3 -0.5
v -1.1 2.4 0.6
v -1.1 2.4 0.4
v -1.1 2.4 -0.4
v -1.1 2.4 -0.6
v -0.8 2.4 0.4
v -0.8 2.4 -0.4
v -0.8 2.5 0.4
v -0.8 2.5 -0.4
v -0.7 2.3 0.4
v -0.7 2.3 -0.4
v -0.7 2.4 0.4
v -0.7 2.4 -0.4
v 1.2 2.3 0.4
v 1.2 2.3 -0.4
v 1.2 2.4 0.4
v 1.2 2.4 -0.4
v 1.3 1.5 0.6
v 1.3 1.5 0.4
v 1.3 1.5 -0.4
v 1.3 1.5 -0.6
v 1.3 1.9 0.4
v 1.3 1.9 -0.4
v 1.3 2.1 0.4
v 1.3 2.1 -0.4
v 1.3 2.3 0.4
v 1.3 2.3 -0.4
v 1.3 2.4 0.6
v 1.3 2.4 0.4
v 1.3 2.4 -0.4
v 1.3 2.4 -0.6
v -1.3 1.5 0.6
v -1.3 2.4 0.6
v -1.1 1.5 0.6
v -1.1 1.9 0.6
v -1.1 2.1 0.6
v -1.1 2.4 0.6
v 1.1 1.5 0.6
v 1.1 1.9 0.6
v 1.1 2.1 0.6
v 1.1 2.4 0.6
v 1.3 1.5 0.6
v 1.3 2.4 0.6
v -1.1 2.1 0.5
v -1.1 2.3 0.5
v 1.1 2.1 0.5
v 1.1 2.3 0.5
v -1.2 2.4 0.4
v -1.2 2.5 0.4
v -1.1 2.3 0.4
v -1.1 2.4 0.4
v -0.8 2.4 0.4
v -0.8 2.5 0.4
v -0.7 2.3 0.4
v -0.7 2.4 0.4
v -0.6 2.3 0.4
v -0.6 2.4 0.4
v 1.1 2.3 0.4
v 1.1 2.4 0.4
v -1.3 1.5 -0.4
v -1.3 1.9 -0.4
v -1.3 2.3 -0.4
v -1.3 2.4 -0.4
v -1.2 2.3 -0.4
v -1.2 2.4 -0.4
v -1.1 1.5 -0.4
v -1.1 1.9 -0.4
v 1.1 1.5 -0.4
v 1.1 1.9 -0.4
v 1.2 2.3 -0.4
v 1.2 2.4 -0.4
v 1.3 1.5 -0.4
v 1.3 1.9 -0.4
v 1.3 2.3 -0.4
v 1.3 2.4 -0.4
v -1.3 1.5 0.4
v -1.3 1.9 0.4
v -1.3 2.3 0.4
v -1.3 2.4 0.4
v -1.2 2.3 0.4
v -1.2 2.4 0.4
v -1.1 1.5 0.4
v -1.1 1.9 0.4
v 1.1 1.5 0.4
v 1.1 1.9 0.4
v 1.2 2.3 0.4
v 1.2 2.4 0.4
v 1.3 1.5 0.4
v 1.3 1.9 0.4
v 1.3 2.3 0.4
v 1.3 2.4 0.4
v -1.2 2.4 -0.4
v -1.2 2.5 -0.4
v -1.1 2.3 -0.4
v -1.1 2.4 -0.4
v -0.8 2.4 -0.4
v -0.8 2.5 -0.4
v -0.7 2.3 -0.4
v -0.7 2.4 -0.4
v -0.6 2.3 -0.4
v -0.6 2.4 -0.4
v 1.1 2.3 -0.4
v 1.1 2.4 -0.4
v -1.1 2.1 -0.5
v -1.1 2.3 -0.5
v 1.1 2.1 -0.5
v 1.1 2.3 -0.5
v -1.3 1.5 -0.6
v -1.3 2.4 -0.6
v -1.1 1.5 -0.6
v -1.1 1.9 -0.6
v -1.1 2.1 -0.6
v -1.1 2.4 -0.6
v 1.1 1.5 -0.6
v 1.1 1.9 -0.6
v 1.1 2.1 -0.6
v 1.1 2.4 -0.6
v 1.3 1.5 -0.6
v 1.3 2.4 -0.6
v -1.3 1.5 0.6
v -1.1 1.5 0.6
v 1.1 1.5 0.6
v 1.3 1.5 0.6
v -1.3 1.5 0.4
v -1.1 1.5 0.4
v 1.1 1.5 0.4
v 1.3 1.5 0.4
v -1.3 1.5 -0.4
v -1.1 1.5 -0.4
v 1.1 1.5 -0.4
v 1.3 1.5 -0.4
v -1.3 1.5 -0.6
v -1.1 1.5 -0.6
v 1.1 1.5 -0.6
v 1.3 1.5 -0.6
v -1.1 1.9 0.6
v 1.1 1.9 0.6
v -1.3 1.9 0.4
v -1.1 1.9 0.4
v 1.1 1.9 0.4
v 1.3 1.9 0.4
v -1.3 1.9 -0.4
v -1.1 1.9 -0.4
v 1.1 1.9 -0.4
v 1.3 1.9 -0.4
v -1.1 1.9 -0.6
v 1.1 1.9 -0.6
v -1.1 2.1 0.6
v 1.1 2.1 0.6
v -1.1 2.1 0.5
v 1.1 2.1 0.5
v -1.1 2.1 -0.5
v 1.1 2.1 -0.5
v -1.1 2.1 -0.6
v 1.1 2.1 -0.6
v -1.1 2.3 0.5
v 1.1 2.3 0.5
v -1.3 2.3 0.4
v -1.2 2.3 0.4
v -1.1 2.3 0.4
v -0.7 2.3 0.4
v -0.6 2.3 0.4
v 1.1 2.3 0.4
v 1.2 2.3 0.4
v 1.3 2.3 0.4
v -1.3 2.3 -0.4
v -1.2 2.3 -0.4
v -1.1 2.3 -0.4
v -0.7 2.3 -0.4
v -0.6 2.3 -0.4
v 1.1 2.3 -0.4
v 1.2 2.3 -0.4
v 1.3 2.3 -0.4
v -1.1 2.3 -0.5
v 1.1 2.3 -0.5
v -1.3 2.4 0.6
v -1.1 2.4 0.6
v 1.1 2.4 0.6
v 1.3 2.4 0.6
v -1.3 2.4 0.4
v -1.2 2.4 0.4
v -1.1 2.4 0.4
v -0.8 2.4 0.4
v -0.7 2.4 0.4
v -0.6 2.4 0.4
v 1.1 2.4 0.4
v 1.2 2.4 0.4
v 1.3 2.4 0.4
v -1.3 2.4 -0.4
v -1.2 2.4 -0.4
v -1.1 2.4 -0.4
v -0.8 2.4 -0.4
v -0.7 2.4 -0.4
v -0.6 2.4 -0.4
v 1.1 2.4 -0.4
v 1.2 2.4 -0.4
v 1.3 2.4 -0.4
v -1.3 2.4 -0.6
v -1.1 2.4 -0.6
v 1.1 2.4 -0.6
v 1.3 2.4 -0.6
v -1.2 2.5 0.4
v -0.8 2.5 0.4
v -1.2 2.5 -0.4
v -0.8 2.5 -0.4

# faces
f 5/2/1 2/2/1 1/2/1
f 6/2/1 4/2/1 3/2/1
f 7/2/1 5/2/1 1/2/1
f 7/2/1 6/2/1 5/2/1
f 8/2/1 4/2/1 6/2/1
f 8/2/1 6/2/1 7/2/1
f 9/2/1 7/2/1 1/2/1
f 9/3/1 8/3/1 7/3/1
f 10/2/1 4/2/1 8/2/1
f 10/3/1 8/3/1 9/3/1
f 11/2/1 9/2/1 1/2/1
f 12/2/1 9/2/1 11/2/1
f 13/2/1 4/2/1 10/2/1
f 14/2/1 4/2/1 13/2/1
f 17/1/1 16/1/1 15/1/1
f 18/1/1 16/1/1 17/1/1
f 19/1/1 18/1/1 17/1/1
f 20/1/1 18/1/1 19/1/1
f 23/1/1 22/1/1 21/1/1
f 24/1/1 22/1/1 23/1/1
f 29/2/1 26/2/1 25/2/1
f 30/2/1 26/2/1 29/2/1
f 31/2/1 28/2/1 27/2/1
f 32/2/1 28/2/1 31/2/1
f 37/2/1 34/2/1 33/2/1
f 40/2/1 36/2/1 35/2/1
f 41/2/1 38/2/1 37/2/1
f 41/2/1 37/2/1 33/2/1
f 42/2/1 38/2/1 41/2/1
f 43/2/1 40/2/1 39/2/1
f 44/2/1 36/2/1 40/2/1
f 44/2/1 40/2/1 43/2/1
f 45/2/2 46/2/2 49/2/2
f 49/2/2 46/2/2 50/2/2
f 47/2/2 48/2/2 51/2/2
f 51/2/2 48/2/2 52/2/2
f 53/2/2 54/2/2 57/2/2
f 55/2/2 56/2/2 60/2/2
f 57/2/2 58/2/2 61/2/2
f 53/2/2 57/2/2 61/2/2
f 61/2/2 58/2/2 62/2/2
f 59/2/2 60/2/2 63/2/2
f 60/2/2 56/2/2 64/2/2
f 63/2/2 60/2/2 64/2/2
f 65/1/2 66/1/2 67/1/2
f 67/1/2 66/1/2 68/1/2
f 69/1/2 70/1/2 71/1/2
f 71/1/2 70/1/2 72/1/2
f 73/1/2 74/1/2 75/1/2
f 75/1/2 74/1/2 76/1/2
f 77/2/2 78/2/2 81/2/2
f 79/2/2 80/2/2 82/2/2
f 77/2/2 81/2/2 83/2/2
f 81/2/2 82/2/2 83/2/2
f 82/2/2 80/2/2 84/2/2
f 83/2/2 82/2/2 84/2/2
f 77/2/2 83/2/2 85/2/2
f 83/3/2 84/3/2 85/3/2
f 84/2/2 80/2/2 86/2/2
f 85/3/2 84/3/2 86/3/2
f 77/2/2 85/2/2 87/2/2
f 87/2/2 85/2/2 88/2/2
f 86/2/2 80/2/2 89/2/2
f 89/2/2 80/2/2 90/2/2
f 93/2/3 92/2/3 91/2/3
f 94/2/3 92/2/3 93/2/3
f 95/2/3 92/2/3 94/2/3
f 96/2/3 92/2/3 95/2/3
f 98/2/3 95/2/3 94/2/3
f 99/2/3 95/2/3 98/2/3
f 101/2/3 98/2/3 97/2/3
f 101/2/3 100/2/3 99/2/3
f 101/2/3 99/2/3 98/2/3
f 102/2/3 100/2/3 101/2/3
f 105/3/3 104/3/3 103/3/3
f 106/3/3 104/3/3 105/3/3
f 110/1/3 108/1/3 107/1/3
f 111/1/3 108/1/3 110/1/3
f 111/1/3 110/1/3 109/1/3
f 112/1/3 108/1/3 111/1/3
f 113/1/3 111/1/3 109/1/3
f 114/1/3 111/1/3 113/1/3
f 117/1/3 116/1/3 115/1/3
f 118/1/3 116/1/3 117/1/3
f 123/2/3 122/2/3 121/2/3
f 124/2/3 122/2/3 123/2/3
f 125/2/3 120/2/3 119/2/3
f 126/2/3 120/2/3 125/2/3
f 131/2/3 128/2/3 127/2/3
f 132/2/3 128/2/3 131/2/3
f 133/2/3 130/2/3 129/2/3
f 134/2/3 130/2/3 133/2/3
f 137/2/4 138/2/4 139/2/4
f 139/2/4 138/2/4 140/2/4
f 135/2/4 136/2/4 141/2/4
f 141/2/4 136/2/4 142/2/4
f 143/2/4 144/2/4 147/2/4
f 147/2/4 144/2/4 148/2/4
f 145/2/4 146/2/4 149/2/4
f 149/2/4 146/2/4 150/2/4
f 151/1/4 152/1/4 154/1/4
f 154/1/4 152/1/4 155/1/4
f 153/1/4 154/1/4 155/1/4
f 155/1/4 152/1/4 156/1/4
f 153/1/4 155/1/4 157/1/4
f 157/1/4 155/1/4 158/1/4
f 159/1/4 160/1/4 161/1/4
f 161/1/4 160/1/4 162/1/4
f 163/3/4 164/3/4 165/3/4
f 165/3/4 164/3/4 166/3/4
f 167/2/4 168/2/4 169/2/4
f 169/2/4 168/2/4 170/2/4
f 170/2/4 168/2/4 171/2/4
f 171/2/4 168/2/4 172/2/4
f 170/2/4 171/2/4 174/2/4
f 174/2/4 171/2/4 175/2/4
f 173/2/4 174/2/4 177/2/4
f 175/2/4 176/2/4 177/2/4
f 174/2/4 175/2/4 177/2/4
f 177/2/4 176/2/4 178/2/4
f 183/2/5 180/2/5 179/2/5
f 184/2/5 180/2/5 183/2/5
f 185/2/5 182/2/5 181/2/5
f 186/2/5 182/2/5 185/2/5
f 191/2/5 188/2/5 187/2/5
f 192/2/5 188/2/5 191/2/5
f 193/2/5 190/2/5 189/2/5
f 194/2/5 190/2/5 193/2/5
f 198/2/5 196/2/5 195/2/5
f 199/2/5 196/2/5 198/2/5
f 201/2/5 198/2/5 197/2/5
f 201/2/5 200/2/5 199/2/5
f 201/2/5 199/2/5 198/2/5
f 202/2/5 200/2/5 201/2/5
f 203/2/5 200/2/5 202/2/5
f 204/2/5 200/2/5 203/2/5
f 205/2/5 203/2/5 202/2/5
f 206/2/5 203/2/5 205/2/5
f 207/2/6 208/2/6 209/2/6
f 209/2/6 208/2/6 210/2/6
f 211/2/6 212/2/6 213/2/6
f 213/2/6 212/2/6 214/2/6
f 215/3/6 216/3/6 219/3/6
f 219/3/6 216/3/6 220/3/6
f 220/3/6 216/3/6 221/3/6
f 221/3/6 216/3/6 222/3/6
f 217/3/6 218/3/6 225/3/6
f 225/3/6 218/3/6 226/3/6
f 220/3/6 221/3/6 228/3/6
f 228/3/6 221/3/6 229/3/6
f 223/3/6 224/3/6 231/3/6
f 231/3/6 224/3/6 232/3/6
f 229/3/6 230/3/6 233/3/6
f 227/3/6 228/3/6 233/3/6
f 228/3/6 229/3/6 233/3/6
f 233/3/6 230/3/6 234/3/6
f 235/2/6 236/2/6 239/2/6
f 239/2/6 236/2/6 240/2/6
f 240/2/6 236/2/6 241/2/6
f 237/2/6 238/2/6 245/2/6
f 245/2/6 238/2/6 246/2/6
f 246/2/6 238/2/6 247/2/6
f 242/1/6 243/1/6 251/1/6
f 251/1/6 243/1/6 252/1/6
f 245/1/6 246/1/6 253/1/6
f 244/1/6 245/1/6 253/1/6
f 253/1/6 246/1/6 254/1/6
f 254/1/6 246/1/6 255/1/6
f 249/2/6 250/2/6 257/2/6
f 248/2/6 249/2/6 257/2/6
f 257/2/6 250/2/6 258/2/6
f 255/2/6 256/2/6 259/2/6
f 254/2/6 255/2/6 259/2/6
f 259/2/6 256/2/6 260/2/6
f 261/1/6 262/1/6 263/1/6
f 263/1/6 262/1/6 264/1/6
