# MagicaVoxel @ Ephtracy

# group
o Furniture_Old

# material
mtllib room-45-Furniture_Old.mtl
usemtl palette

# normals
vn -1 0 0
vn 1 0 0
vn 0 0 1
vn 0 0 -1
vn 0 -1 0
vn 0 1 0

# texcoords
vt 0.947266 0.5
vt 0.978516 0.5
vt 0.990234 0.5

# verts
v -0.8 0.5 0.5
v -0.8 0.5 -0.4
v -0.8 3.5 0.5
v -0.8 3.5 -0.4
v -0.7 0.7 -0.4
v -0.7 0.7 -0.5
v -0.7 1 -0.4
v -0.7 1 -0.5
v -0.7 1.1 -0.4
v -0.7 1.1 -0.5
v -0.7 1.4 -0.4
v -0.7 1.4 -0.5
v -0.1 0.9 -0.5
v -0.1 0.9 -0.6
v -0.1 1 -0.5
v -0.1 1 -0.6
v -0.1 1.3 -0.5
v -0.1 1.3 -0.6
v -0.1 1.4 -0.5
v -0.1 1.4 -0.6
v -0.1 2 -0.4
v -0.1 2 -0.5
v -0.1 2.3 -0.4
v -0.1 2.3 -0.5
v 0.1 2 -0.4
v 0.1 2 -0.5
v 0.1 2.3 -0.4
v 0.1 2.3 -0.5
v 0 2 -0.4
v 0 2 -0.5
v 0 2.3 -0.4
v 0 2.3 -0.5
v 0.2 0.9 -0.5
v 0.2 0.9 -0.6
v 0.2 1 -0.5
v 0.2 1 -0.6
v 0.2 1.3 -0.5
v 0.2 1.3 -0.6
v 0.2 1.4 -0.5
v 0.2 1.4 -0.6
v 0.2 2 -0.4
v 0.2 2 -0.5
v 0.2 2.3 -0.4
v 0.2 2.3 -0.5
v 0.8 0.7 -0.4
v 0.8 0.7 -0.5
v 0.8 1 -0.4
v 0.8 1 -0.5
v 0.8 1.1 -0.4
v 0.8 1.1 -0.5
v 0.8 1.4 -0.4
v 0.8 1.4 -0.5
v 0.9 0.5 0.5
v 0.9 0.5 -0.4
v 0.9 3.5 0.5
v 0.9 3.5 -0.4
v -0.8 0.5 0.5
v -0.8 3.5 0.5
v 0.9 0.5 0.5
v 0.9 3.5 0.5
v -0.8 0.5 -0.4
v -0.8 3.5 -0.4
v -0.7 0.7 -0.4
v -0.7 1 -0.4
v -0.7 1.1 -0.4
v -0.7 1.4 -0.4
v -0.7 1.5 -0.4
v -0.7 3.4 -0.4
v -0.1 2 -0.4
v -0.1 2.3 -0.4
v 0 1.5 -0.4
v 0 2 -0.4
v 0 2.3 -0.4
v 0 3.4 -0.4
v 0.1 1.5 -0.4
v 0.1 2 -0.4
v 0.1 2.3 -0.4
v 0.1 3.4 -0.4
v 0.2 2 -0.4
v 0.2 2.3 -0.4
v 0.8 0.7 -0.4
v 0.8 1 -0.4
v 0.8 1.1 -0.4
v 0.8 1.4 -0.4
v 0.8 1.5 -0.4
v 0.8 3.4 -0.4
v 0.9 0.5 -0.4
v 0.9 3.5 -0.4
v -0.7 0.7 -0.5
v -0.7 1 -0.5
v -0.7 1.1 -0.5
v -0.7 1.4 -0.5
v -0.1 0.9 -0.5
v -0.1 1 -0.5
v -0.1 1.3 -0.5
v -0.1 1.4 -0.5
v -0.1 2 -0.5
v -0.1 2.3 -0.5
v 0 2 -0.5
v 0 2.3 -0.5
v 0.1 2 -0.5
v 0.1 2.3 -0.5
v 0.2 0.9 -0.5
v 0.2 1 -0.5
v 0.2 1.3 -0.5
v 0.2 1.4 -0.5
v 0.2 2 -0.5
v 0.2 2.3 -0.5
v 0.8 0.7 -0.5
v 0.8 1 -0.5
v 0.8 1.1 -0.5
v 0.8 1.4 -0.5
v -0.1 0.9 -0.6
v -0.1 1 -0.6
v -0.1 1.3 -0.6
v -0.1 1.4 -0.6
v 0.2 0.9 -0.6
v 0.2 1 -0.6
v 0.2 1.3 -0.6
v 0.2 1.4 -0.6
v -0.8 0.5 0.5
v 0.9 0.5 0.5
v -0.8 0.5 -0.4
v 0.9 0.5 -0.4
v -0.7 0.7 -0.4
v 0.8 0.7 -0.4
v -0.7 0.7 -0.5
v 0.8 0.7 -0.5
v -0.1 0.9 -0.5
v 0.2 0.9 -0.5
v -0.1 0.9 -0.6
v 0.2 0.9 -0.6
v -0.7 1.1 -0.4
v 0.8 1.1 -0.4
v -0.7 1.1 -0.5
v 0.8 1.1 -0.5
v -0.1 1.3 -0.5
v 0.2 1.3 -0.5
v -0.1 1.3 -0.6
v 0.2 1.3 -0.6
v -0.1 2 -0.4
v 0 2 -0.4
v 0.1 2 -0.4
v 0.2 2 -0.4
v -0.1 2 -0.5
v 0 2 -0.5
v 0.1 2 -0.5
v 0.2 2 -0.5
v -0.7 1 -0.4
v 0.8 1 -0.4
v -0.7 1 -0.5
v -0.1 1 -0.5
v 0.2 1 -0.5
v 0.8 1 -0.5
v -0.1 1 -0.6
v 0.2 1 -0.6
v -0.7 1.4 -0.4
v 0.8 1.4 -0.4
v -0.7 1.4 -0.5
v -0.1 1.4 -0.5
v 0.2 1.4 -0.5
v 0.8 1.4 -0.5
v -0.1 1.4 -0.6
v 0.2 1.4 -0.6
v -0.1 2.3 -0.4
v 0 2.3 -0.4
v 0.1 2.3 -0.4
v 0.2 2.3 -0.4
v -0.1 2.3 -0.5
v 0 2.3 -0.5
v 0.1 2.3 -0.5
v 0.2 2.3 -0.5
v -0.8 3.5 0.5
v 0.9 3.5 0.5
v -0.8 3.5 -0.4
v 0.9 3.5 -0.4

# faces
f 3/3/1 2/3/1 1/3/1
f 4/3/1 2/3/1 3/3/1
f 7/3/1 6/3/1 5/3/1
f 8/3/1 6/3/1 7/3/1
f 11/3/1 10/3/1 9/3/1
f 12/3/1 10/3/1 11/3/1
f 15/2/1 14/2/1 13/2/1
f 16/2/1 14/2/1 15/2/1
f 19/2/1 18/2/1 17/2/1
f 20/2/1 18/2/1 19/2/1
f 23/2/1 22/2/1 21/2/1
f 24/2/1 22/2/1 23/2/1
f 27/2/1 26/2/1 25/2/1
f 28/2/1 26/2/1 27/2/1
f 29/2/2 30/2/2 31/2/2
f 31/2/2 30/2/2 32/2/2
f 33/2/2 34/2/2 35/2/2
f 35/2/2 34/2/2 36/2/2
f 37/2/2 38/2/2 39/2/2
f 39/2/2 38/2/2 40/2/2
f 41/2/2 42/2/2 43/2/2
f 43/2/2 42/2/2 44/2/2
f 45/3/2 46/3/2 47/3/2
f 47/3/2 46/3/2 48/3/2
f 49/3/2 50/3/2 51/3/2
f 51/3/2 50/3/2 52/3/2
f 53/3/2 54/3/2 55/3/2
f 55/3/2 54/3/2 56/3/2
f 59/3/3 58/3/3 57/3/3
f 60/3/3 58/3/3 59/3/3
f 61/3/4 62/3/4 63/3/4
f 63/3/4 62/3/4 64/3/4
f 64/3/4 62/3/4 65/3/4
f 65/3/4 62/3/4 66/3/4
f 66/3/4 62/3/4 67/3/4
f 67/3/4 62/3/4 68/3/4
f 67/1/4 68/1/4 69/1/4
f 69/1/4 68/1/4 70/1/4
f 66/3/4 67/3/4 71/3/4
f 67/1/4 69/1/4 71/1/4
f 71/1/4 69/1/4 72/1/4
f 70/1/4 68/1/4 73/1/4
f 68/3/4 62/3/4 74/3/4
f 73/1/4 68/1/4 74/1/4
f 72/3/4 73/3/4 75/3/4
f 71/3/4 72/3/4 75/3/4
f 73/3/4 74/3/4 75/3/4
f 66/3/4 71/3/4 75/3/4
f 75/3/4 74/3/4 76/3/4
f 76/3/4 74/3/4 77/3/4
f 74/3/4 62/3/4 78/3/4
f 77/3/4 74/3/4 78/3/4
f 75/1/4 76/1/4 79/1/4
f 77/1/4 78/1/4 80/1/4
f 61/3/4 63/3/4 81/3/4
f 64/3/4 65/3/4 82/3/4
f 82/3/4 65/3/4 83/3/4
f 66/3/4 75/3/4 84/3/4
f 79/1/4 80/1/4 85/1/4
f 75/1/4 79/1/4 85/1/4
f 84/3/4 75/3/4 85/3/4
f 78/3/4 62/3/4 86/3/4
f 85/1/4 80/1/4 86/1/4
f 80/1/4 78/1/4 86/1/4
f 83/3/4 84/3/4 87/3/4
f 84/3/4 85/3/4 87/3/4
f 85/3/4 86/3/4 87/3/4
f 61/3/4 81/3/4 87/3/4
f 81/3/4 82/3/4 87/3/4
f 82/3/4 83/3/4 87/3/4
f 86/3/4 62/3/4 88/3/4
f 87/3/4 86/3/4 88/3/4
f 89/3/4 90/3/4 93/3/4
f 93/3/4 90/3/4 94/3/4
f 91/3/4 92/3/4 95/3/4
f 95/3/4 92/3/4 96/3/4
f 97/2/4 98/2/4 99/2/4
f 99/2/4 98/2/4 100/2/4
f 89/3/4 93/3/4 103/3/4
f 91/3/4 95/3/4 105/3/4
f 101/2/4 102/2/4 107/2/4
f 107/2/4 102/2/4 108/2/4
f 103/3/4 104/3/4 109/3/4
f 89/3/4 103/3/4 109/3/4
f 109/3/4 104/3/4 110/3/4
f 105/3/4 106/3/4 111/3/4
f 91/3/4 105/3/4 111/3/4
f 111/3/4 106/3/4 112/3/4
f 113/2/4 114/2/4 117/2/4
f 117/2/4 114/2/4 118/2/4
f 115/2/4 116/2/4 119/2/4
f 119/2/4 116/2/4 120/2/4
f 123/3/5 122/3/5 121/3/5
f 124/3/5 122/3/5 123/3/5
f 127/3/5 126/3/5 125/3/5
f 128/3/5 126/3/5 127/3/5
f 131/2/5 130/2/5 129/2/5
f 132/2/5 130/2/5 131/2/5
f 135/3/5 134/3/5 133/3/5
f 136/3/5 134/3/5 135/3/5
f 139/2/5 138/2/5 137/2/5
f 140/2/5 138/2/5 139/2/5
f 145/2/5 142/2/5 141/2/5
f 146/2/5 142/2/5 145/2/5
f 147/2/5 144/2/5 143/2/5
f 148/2/5 144/2/5 147/2/5
f 149/3/6 150/3/6 151/3/6
f 151/3/6 150/3/6 152/3/6
f 152/3/6 150/3/6 153/3/6
f 153/3/6 150/3/6 154/3/6
f 152/2/6 153/2/6 155/2/6
f 155/2/6 153/2/6 156/2/6
f 157/3/6 158/3/6 159/3/6
f 159/3/6 158/3/6 160/3/6
f 160/3/6 158/3/6 161/3/6
f 161/3/6 158/3/6 162/3/6
f 160/2/6 161/2/6 163/2/6
f 163/2/6 161/2/6 164/2/6
f 165/2/6 166/2/6 169/2/6
f 169/2/6 166/2/6 170/2/6
f 167/2/6 168/2/6 171/2/6
f 171/2/6 168/2/6 172/2/6
f 173/3/6 174/3/6 175/3/6
f 175/3/6 174/3/6 176/3/6
