# MagicaVoxel @ Ephtracy

# group
o Interior

# material
mtllib room-7-Interior.mtl
usemtl palette

# normals
vn -1 0 0
vn 1 0 0
vn 0 0 1
vn 0 0 -1
vn 0 -1 0
vn 0 1 0

# texcoords
vt 0.00976563 0.5
vt 0.0839844 0.5
vt 0.0878906 0.5
vt 0.0917969 0.5
vt 0.201172 0.5
vt 0.205078 0.5
vt 0.208984 0.5
vt 0.212891 0.5

# verts
v -1.1 0.7 0.1
v -1.1 0.7 0
v -1.1 3.4 0.1
v -1.1 3.4 0
v -1 0.8 0
v -1 0.8 -0.1
v -1 3.3 0
v -1 3.3 -0.1
v 0.9 0.9 0
v 0.9 0.9 -0.1
v 0.9 1.1 0
v 0.9 2.1 0
v 0.9 3.2 0
v 0.9 3.2 -0.1
v -0.9 0.9 0
v -0.9 0.9 -0.1
v -0.9 1.3 0
v -0.9 2.1 0
v -0.9 2.3 0
v -0.9 2.4 0
v -0.9 2.7 0
v -0.9 2.9 0
v -0.9 3.2 0
v -0.9 3.2 -0.1
v 1 0.8 0
v 1 0.8 -0.1
v 1 3.3 0
v 1 3.3 -0.1
v 1.1 0.7 0.1
v 1.1 0.7 0
v 1.1 3.4 0.1
v 1.1 3.4 0
v -1.1 0.7 0.1
v -1.1 3.4 0.1
v -0.9 0.9 0.1
v -0.9 1.3 0.1
v -0.9 2.1 0.1
v -0.9 2.3 0.1
v -0.9 2.4 0.1
v -0.9 2.7 0.1
v -0.9 2.9 0.1
v -0.9 3.2 0.1
v -0.8 1.4 0.1
v -0.8 1.7 0.1
v -0.7 1.7 0.1
v -0.7 1.9 0.1
v -0.6 1.1 0.1
v -0.6 1.3 0.1
v -0.6 1.4 0.1
v -0.6 2.3 0.1
v -0.6 2.4 0.1
v -0.6 2.7 0.1
v -0.6 2.9 0.1
v -0.5 1.1 0.1
v -0.5 1.3 0.1
v -0.5 1.4 0.1
v -0.5 3 0.1
v -0.5 3.1 0.1
v -0.4 1.7 0.1
v -0.4 1.9 0.1
v -0.3 1.4 0.1
v -0.3 1.7 0.1
v -0.2 1.5 0.1
v -0.2 1.6 0.1
v -0.2 1.7 0.1
v -0.2 1.8 0.1
v -0.2 2.1 0.1
v -0.2 2.3 0.1
v -0.1 1.8 0.1
v -0.1 1.9 0.1
v -0.1 2 0.1
v -0.1 2.1 0.1
v -0.1 3 0.1
v -0.1 3.1 0.1
v 0 1.2 0.1
v 0 1.3 0.1
v 0 1.7 0.1
v 0 1.8 0.1
v 0 2 0.1
v 0 2.1 0.1
v 0.1 1.3 0.1
v 0.1 1.4 0.1
v 0.1 1.5 0.1
v 0.1 1.6 0.1
v 0.1 1.8 0.1
v 0.1 1.9 0.1
v 0.1 2.1 0.1
v 0.1 2.3 0.1
v 0.2 1.3 0.1
v 0.2 1.4 0.1
v 0.2 2.2 0.1
v 0.2 2.3 0.1
v 0.3 2.8 0.1
v 0.3 3 0.1
v 0.4 2.2 0.1
v 0.4 2.3 0.1
v 0.4 2.6 0.1
v 0.4 2.7 0.1
v 0.5 1.1 0.1
v 0.5 1.2 0.1
v 0.8 2.6 0.1
v 0.8 2.7 0.1
v 0.8 2.8 0.1
v 0.8 3 0.1
v 0.9 0.9 0.1
v 0.9 1.1 0.1
v 0.9 2.1 0.1
v 0.9 3.2 0.1
v 1.1 0.7 0.1
v 1.1 3.4 0.1
v -1.1 0.7 0
v -1.1 3.4 0
v -1 0.8 0
v -1 3.3 0
v -0.9 0.9 0
v -0.9 1.3 0
v -0.9 2.1 0
v -0.9 2.3 0
v -0.9 2.4 0
v -0.9 2.7 0
v -0.9 2.9 0
v -0.9 3.2 0
v -0.8 1.4 0
v -0.8 1.7 0
v -0.7 1.7 0
v -0.7 1.9 0
v -0.6 1.1 0
v -0.6 1.3 0
v -0.6 1.4 0
v -0.6 2.3 0
v -0.6 2.4 0
v -0.6 2.7 0
v -0.6 2.9 0
v -0.5 1.1 0
v -0.5 1.3 0
v -0.5 1.4 0
v -0.5 3 0
v -0.5 3.1 0
v -0.4 1.7 0
v -0.4 1.9 0
v -0.3 1.4 0
v -0.3 1.7 0
v -0.2 1.5 0
v -0.2 1.6 0
v -0.2 1.7 0
v -0.2 1.8 0
v -0.2 2.1 0
v -0.2 2.3 0
v -0.1 1.8 0
v -0.1 1.9 0
v -0.1 2 0
v -0.1 2.1 0
v -0.1 3 0
v -0.1 3.1 0
v 0 1.2 0
v 0 1.3 0
v 0 1.7 0
v 0 1.8 0
v 0 2 0
v 0 2.1 0
v 0.1 1.3 0
v 0.1 1.4 0
v 0.1 1.5 0
v 0.1 1.6 0
v 0.1 1.8 0
v 0.1 1.9 0
v 0.1 2.1 0
v 0.1 2.3 0
v 0.2 1.3 0
v 0.2 1.4 0
v 0.2 2.2 0
v 0.2 2.3 0
v 0.3 2.8 0
v 0.3 3 0
v 0.4 2.2 0
v 0.4 2.3 0
v 0.4 2.6 0
v 0.4 2.7 0
v 0.5 1.1 0
v 0.5 1.2 0
v 0.8 2.6 0
v 0.8 2.7 0
v 0.8 2.8 0
v 0.8 3 0
v 0.9 0.9 0
v 0.9 1.1 0
v 0.9 2.1 0
v 0.9 3.2 0
v 1 0.8 0
v 1 3.3 0
v 1.1 0.7 0
v 1.1 3.4 0
v -1 0.8 -0.1
v -1 3.3 -0.1
v -0.9 0.9 -0.1
v -0.9 3.2 -0.1
v 0.9 0.9 -0.1
v 0.9 3.2 -0.1
v 1 0.8 -0.1
v 1 3.3 -0.1
v -1.1 0.7 0.1
v 1.1 0.7 0.1
v -1.1 0.7 0
v 1.1 0.7 0
v -1 0.8 0
v 1 0.8 0
v -1 0.8 -0.1
v 1 0.8 -0.1
v -0.9 3.2 0
v 0.9 3.2 0
v -0.9 3.2 -0.1
v 0.9 3.2 -0.1
v -0.9 0.9 0
v 0.9 0.9 0
v -0.9 0.9 -0.1
v 0.9 0.9 -0.1
v -1 3.3 0
v 1 3.3 0
v -1 3.3 -0.1
v 1 3.3 -0.1
v -1.1 3.4 0.1
v 1.1 3.4 0.1
v -1.1 3.4 0
v 1.1 3.4 0

# faces
f 3/3/1 2/3/1 1/3/1
f 4/3/1 2/3/1 3/3/1
f 7/2/1 6/2/1 5/2/1
f 8/2/1 6/2/1 7/2/1
f 11/2/1 10/2/1 9/2/1
f 12/2/1 10/2/1 11/2/1
f 13/2/1 10/2/1 12/2/1
f 14/2/1 10/2/1 13/2/1
f 15/2/2 16/2/2 17/2/2
f 17/2/2 16/2/2 18/2/2
f 18/2/2 16/2/2 19/2/2
f 19/2/2 16/2/2 20/2/2
f 20/2/2 16/2/2 21/2/2
f 21/2/2 16/2/2 22/2/2
f 22/2/2 16/2/2 23/2/2
f 23/2/2 16/2/2 24/2/2
f 25/2/2 26/2/2 27/2/2
f 27/2/2 26/2/2 28/2/2
f 29/3/2 30/3/2 31/3/2
f 31/3/2 30/3/2 32/3/2
f 35/3/3 34/3/3 33/3/3
f 36/3/3 34/3/3 35/3/3
f 37/3/3 34/3/3 36/3/3
f 38/3/3 34/3/3 37/3/3
f 39/3/3 34/3/3 38/3/3
f 40/3/3 34/3/3 39/3/3
f 41/3/3 34/3/3 40/3/3
f 42/3/3 34/3/3 41/3/3
f 43/6/3 37/6/3 36/6/3
f 44/6/3 37/6/3 43/6/3
f 45/8/3 44/8/3 43/8/3
f 45/6/3 37/6/3 44/6/3
f 46/6/3 37/6/3 45/6/3
f 47/8/3 36/8/3 35/8/3
f 48/6/3 43/6/3 36/6/3
f 48/8/3 36/8/3 47/8/3
f 49/8/3 45/8/3 43/8/3
f 49/6/3 43/6/3 48/6/3
f 49/8/3 46/8/3 45/8/3
f 50/5/3 38/5/3 37/5/3
f 50/1/3 39/1/3 38/1/3
f 51/5/3 40/5/3 39/5/3
f 51/1/3 39/1/3 50/1/3
f 52/1/3 41/1/3 40/1/3
f 52/5/3 40/5/3 51/5/3
f 53/5/3 42/5/3 41/5/3
f 53/1/3 41/1/3 52/1/3
f 54/4/3 49/4/3 48/4/3
f 54/8/3 47/8/3 35/8/3
f 54/4/3 48/4/3 47/4/3
f 55/4/3 49/4/3 54/4/3
f 56/8/3 46/8/3 49/8/3
f 56/4/3 49/4/3 55/4/3
f 57/5/3 42/5/3 53/5/3
f 57/5/3 51/5/3 50/5/3
f 57/5/3 52/5/3 51/5/3
f 57/5/3 53/5/3 52/5/3
f 58/5/3 42/5/3 57/5/3
f 59/8/3 46/8/3 56/8/3
f 60/6/3 37/6/3 46/6/3
f 60/8/3 46/8/3 59/8/3
f 61/8/3 59/8/3 56/8/3
f 61/6/3 56/6/3 55/6/3
f 62/6/3 60/6/3 59/6/3
f 62/8/3 59/8/3 61/8/3
f 63/6/3 62/6/3 61/6/3
f 64/6/3 62/6/3 63/6/3
f 65/6/3 60/6/3 62/6/3
f 65/6/3 62/6/3 64/6/3
f 66/6/3 60/6/3 65/6/3
f 67/6/3 37/6/3 60/6/3
f 67/6/3 60/6/3 66/6/3
f 67/5/3 50/5/3 37/5/3
f 67/5/3 57/5/3 50/5/3
f 68/5/3 57/5/3 67/5/3
f 69/5/3 66/5/3 65/5/3
f 69/6/3 67/6/3 66/6/3
f 70/6/3 67/6/3 69/6/3
f 71/6/3 67/6/3 70/6/3
f 72/7/3 68/7/3 67/7/3
f 72/6/3 67/6/3 71/6/3
f 73/5/3 57/5/3 68/5/3
f 73/1/3 58/1/3 57/1/3
f 74/5/3 42/5/3 58/5/3
f 74/1/3 58/1/3 73/1/3
f 75/8/3 55/8/3 54/8/3
f 76/6/3 61/6/3 55/6/3
f 76/8/3 55/8/3 75/8/3
f 76/6/3 63/6/3 61/6/3
f 77/6/3 65/6/3 64/6/3
f 77/5/3 69/5/3 65/5/3
f 77/5/3 70/5/3 69/5/3
f 78/5/3 70/5/3 77/5/3
f 79/5/3 72/5/3 71/5/3
f 79/6/3 71/6/3 70/6/3
f 80/7/3 68/7/3 72/7/3
f 80/5/3 72/5/3 79/5/3
f 81/6/3 63/6/3 76/6/3
f 81/6/3 76/6/3 75/6/3
f 82/6/3 63/6/3 81/6/3
f 83/5/3 64/5/3 63/5/3
f 83/6/3 63/6/3 82/6/3
f 84/6/3 78/6/3 77/6/3
f 84/5/3 64/5/3 83/5/3
f 84/6/3 77/6/3 64/6/3
f 85/5/3 70/5/3 78/5/3
f 85/6/3 78/6/3 84/6/3
f 86/6/3 79/6/3 70/6/3
f 86/5/3 70/5/3 85/5/3
f 86/6/3 80/6/3 79/6/3
f 87/7/3 68/7/3 80/7/3
f 87/6/3 80/6/3 86/6/3
f 88/5/3 73/5/3 68/5/3
f 88/7/3 68/7/3 87/7/3
f 88/5/3 74/5/3 73/5/3
f 89/6/3 81/6/3 75/6/3
f 89/5/3 82/5/3 81/5/3
f 90/6/3 85/6/3 84/6/3
f 90/5/3 82/5/3 89/5/3
f 90/6/3 87/6/3 86/6/3
f 90/6/3 83/6/3 82/6/3
f 90/6/3 86/6/3 85/6/3
f 90/6/3 84/6/3 83/6/3
f 91/5/3 88/5/3 87/5/3
f 92/5/3 74/5/3 88/5/3
f 92/5/3 88/5/3 91/5/3
f 93/5/3 74/5/3 92/5/3
f 94/5/3 74/5/3 93/5/3
f 95/5/3 91/5/3 87/5/3
f 95/1/3 92/1/3 91/1/3
f 96/5/3 93/5/3 92/5/3
f 96/1/3 92/1/3 95/1/3
f 97/5/3 93/5/3 96/5/3
f 98/5/3 93/5/3 97/5/3
f 99/8/3 75/8/3 54/8/3
f 99/8/3 54/8/3 35/8/3
f 100/6/3 89/6/3 75/6/3
f 100/8/3 75/8/3 99/8/3
f 100/6/3 90/6/3 89/6/3
f 101/1/3 98/1/3 97/1/3
f 101/5/3 97/5/3 96/5/3
f 101/5/3 96/5/3 95/5/3
f 102/5/3 93/5/3 98/5/3
f 102/1/3 98/1/3 101/1/3
f 103/1/3 94/1/3 93/1/3
f 103/5/3 93/5/3 102/5/3
f 104/5/3 74/5/3 94/5/3
f 104/1/3 94/1/3 103/1/3
f 105/3/3 35/3/3 33/3/3
f 105/8/3 99/8/3 35/8/3
f 106/6/3 100/6/3 99/6/3
f 106/8/3 99/8/3 105/8/3
f 107/5/3 104/5/3 103/5/3
f 107/6/3 100/6/3 106/6/3
f 107/6/3 87/6/3 90/6/3
f 107/5/3 95/5/3 87/5/3
f 107/5/3 102/5/3 101/5/3
f 107/5/3 103/5/3 102/5/3
f 107/6/3 90/6/3 100/6/3
f 107/5/3 101/5/3 95/5/3
f 108/5/3 74/5/3 104/5/3
f 108/5/3 104/5/3 107/5/3
f 108/3/3 34/3/3 42/3/3
f 108/5/3 42/5/3 74/5/3
f 109/3/3 107/3/3 106/3/3
f 109/3/3 106/3/3 105/3/3
f 109/3/3 108/3/3 107/3/3
f 109/3/3 105/3/3 33/3/3
f 110/3/3 34/3/3 108/3/3
f 110/3/3 108/3/3 109/3/3
f 111/3/4 112/3/4 113/3/4
f 113/3/4 112/3/4 114/3/4
f 116/6/4 117/6/4 123/6/4
f 123/6/4 117/6/4 124/6/4
f 123/8/4 124/8/4 125/8/4
f 124/6/4 117/6/4 125/6/4
f 125/6/4 117/6/4 126/6/4
f 115/8/4 116/8/4 127/8/4
f 116/6/4 123/6/4 128/6/4
f 127/8/4 116/8/4 128/8/4
f 123/8/4 125/8/4 129/8/4
f 128/6/4 123/6/4 129/6/4
f 125/8/4 126/8/4 129/8/4
f 117/5/4 118/5/4 130/5/4
f 118/1/4 119/1/4 130/1/4
f 119/5/4 120/5/4 131/5/4
f 130/1/4 119/1/4 131/1/4
f 120/1/4 121/1/4 132/1/4
f 131/5/4 120/5/4 132/5/4
f 121/5/4 122/5/4 133/5/4
f 132/1/4 121/1/4 133/1/4
f 128/4/4 129/4/4 134/4/4
f 115/8/4 127/8/4 134/8/4
f 127/4/4 128/4/4 134/4/4
f 134/4/4 129/4/4 135/4/4
f 129/8/4 126/8/4 136/8/4
f 135/4/4 129/4/4 136/4/4
f 131/5/4 132/5/4 137/5/4
f 133/5/4 122/5/4 137/5/4
f 130/5/4 131/5/4 137/5/4
f 132/5/4 133/5/4 137/5/4
f 137/5/4 122/5/4 138/5/4
f 136/8/4 126/8/4 139/8/4
f 126/6/4 117/6/4 140/6/4
f 139/8/4 126/8/4 140/8/4
f 136/8/4 139/8/4 141/8/4
f 135/6/4 136/6/4 141/6/4
f 139/6/4 140/6/4 142/6/4
f 141/8/4 139/8/4 142/8/4
f 141/6/4 142/6/4 143/6/4
f 143/6/4 142/6/4 144/6/4
f 142/6/4 140/6/4 145/6/4
f 144/6/4 142/6/4 145/6/4
f 145/6/4 140/6/4 146/6/4
f 140/6/4 117/6/4 147/6/4
f 146/6/4 140/6/4 147/6/4
f 117/5/4 130/5/4 147/5/4
f 130/5/4 137/5/4 147/5/4
f 147/5/4 137/5/4 148/5/4
f 145/5/4 146/5/4 149/5/4
f 146/6/4 147/6/4 149/6/4
f 149/6/4 147/6/4 150/6/4
f 150/6/4 147/6/4 151/6/4
f 147/7/4 148/7/4 152/7/4
f 151/6/4 147/6/4 152/6/4
f 148/5/4 137/5/4 153/5/4
f 137/1/4 138/1/4 153/1/4
f 138/5/4 122/5/4 154/5/4
f 153/1/4 138/1/4 154/1/4
f 134/8/4 135/8/4 155/8/4
f 135/6/4 141/6/4 156/6/4
f 155/8/4 135/8/4 156/8/4
f 141/6/4 143/6/4 156/6/4
f 144/6/4 145/6/4 157/6/4
f 145/5/4 149/5/4 157/5/4
f 149/5/4 150/5/4 157/5/4
f 157/5/4 150/5/4 158/5/4
f 151/5/4 152/5/4 159/5/4
f 150/6/4 151/6/4 159/6/4
f 152/7/4 148/7/4 160/7/4
f 159/5/4 152/5/4 160/5/4
f 156/6/4 143/6/4 161/6/4
f 155/6/4 156/6/4 161/6/4
f 161/6/4 143/6/4 162/6/4
f 143/5/4 144/5/4 163/5/4
f 162/6/4 143/6/4 163/6/4
f 157/6/4 158/6/4 164/6/4
f 163/5/4 144/5/4 164/5/4
f 144/6/4 157/6/4 164/6/4
f 158/5/4 150/5/4 165/5/4
f 164/6/4 158/6/4 165/6/4
f 150/6/4 159/6/4 166/6/4
f 165/5/4 150/5/4 166/5/4
f 159/6/4 160/6/4 166/6/4
f 160/7/4 148/7/4 167/7/4
f 166/6/4 160/6/4 167/6/4
f 148/5/4 153/5/4 168/5/4
f 167/7/4 148/7/4 168/7/4
f 153/5/4 154/5/4 168/5/4
f 155/6/4 161/6/4 169/6/4
f 161/5/4 162/5/4 169/5/4
f 164/6/4 165/6/4 170/6/4
f 169/5/4 162/5/4 170/5/4
f 166/6/4 167/6/4 170/6/4
f 162/6/4 163/6/4 170/6/4
f 165/6/4 166/6/4 170/6/4
f 163/6/4 164/6/4 170/6/4
f 167/5/4 168/5/4 171/5/4
f 168/5/4 154/5/4 172/5/4
f 171/5/4 168/5/4 172/5/4
f 172/5/4 154/5/4 173/5/4
f 173/5/4 154/5/4 174/5/4
f 167/5/4 171/5/4 175/5/4
f 171/1/4 172/1/4 175/1/4
f 172/5/4 173/5/4 176/5/4
f 175/1/4 172/1/4 176/1/4
f 176/5/4 173/5/4 177/5/4
f 177/5/4 173/5/4 178/5/4
f 134/8/4 155/8/4 179/8/4
f 115/8/4 134/8/4 179/8/4
f 155/6/4 169/6/4 180/6/4
f 179/8/4 155/8/4 180/8/4
f 169/6/4 170/6/4 180/6/4
f 177/1/4 178/1/4 181/1/4
f 176/5/4 177/5/4 181/5/4
f 175/5/4 176/5/4 181/5/4
f 178/5/4 173/5/4 182/5/4
f 181/1/4 178/1/4 182/1/4
f 173/1/4 174/1/4 183/1/4
f 182/5/4 173/5/4 183/5/4
f 174/5/4 154/5/4 184/5/4
f 183/1/4 174/1/4 184/1/4
f 115/8/4 179/8/4 185/8/4
f 179/6/4 180/6/4 186/6/4
f 185/8/4 179/8/4 186/8/4
f 170/6/4 167/6/4 187/6/4
f 186/6/4 180/6/4 187/6/4
f 175/5/4 181/5/4 187/5/4
f 183/5/4 184/5/4 187/5/4
f 167/5/4 175/5/4 187/5/4
f 181/5/4 182/5/4 187/5/4
f 182/5/4 183/5/4 187/5/4
f 180/6/4 170/6/4 187/6/4
f 184/5/4 154/5/4 188/5/4
f 187/5/4 184/5/4 188/5/4
f 154/5/4 122/5/4 188/5/4
f 111/3/4 113/3/4 189/3/4
f 114/3/4 112/3/4 190/3/4
f 111/3/4 189/3/4 191/3/4
f 189/3/4 190/3/4 191/3/4
f 190/3/4 112/3/4 192/3/4
f 191/3/4 190/3/4 192/3/4
f 193/2/4 194/2/4 195/2/4
f 195/2/4 194/2/4 196/2/4
f 193/2/4 195/2/4 197/2/4
f 196/2/4 194/2/4 198/2/4
f 193/2/4 197/2/4 199/2/4
f 197/2/4 198/2/4 199/2/4
f 198/2/4 194/2/4 200/2/4
f 199/2/4 198/2/4 200/2/4
f 203/3/5 202/3/5 201/3/5
f 204/3/5 202/3/5 203/3/5
f 207/2/5 206/2/5 205/2/5
f 208/2/5 206/2/5 207/2/5
f 211/2/5 210/2/5 209/2/5
f 212/2/5 210/2/5 211/2/5
f 213/2/6 214/2/6 215/2/6
f 215/2/6 214/2/6 216/2/6
f 217/2/6 218/2/6 219/2/6
f 219/2/6 218/2/6 220/2/6
f 221/3/6 222/3/6 223/3/6
f 223/3/6 222/3/6 224/3/6
